<svg width="312" height="208" viewBox="0 0 312 208" fill="none" xmlns="http://www.w3.org/2000/svg">
<path d="M215.045 186.192C205.626 180.037 203.238 168.253 203.338 157.61C203.338 155.832 203.112 153.965 203.932 152.388C204.751 150.812 206.728 149.697 208.357 150.41C209.71 150.997 210.333 152.514 211.113 153.769C212.16 155.44 213.657 156.783 215.432 157.645C216.594 158.202 218.022 158.528 219.144 157.886C220.677 157.002 220.808 154.873 220.753 153.116C220.652 149.829 220.55 146.539 220.446 143.246C220.391 141.478 220.34 139.676 220.858 137.989C221.376 136.302 222.568 134.711 224.263 134.203C225.957 133.696 228.085 134.61 228.487 136.327C228.575 137.057 228.61 137.792 228.593 138.526C228.663 139.259 229.03 140.062 229.739 140.248C230.448 140.434 231.167 139.922 231.69 139.39C233.495 137.562 234.707 135.238 235.809 132.923C236.91 130.609 238.006 128.249 239.636 126.261C241.265 124.273 243.553 122.681 246.113 122.475C248.672 122.269 251.453 123.771 252.147 126.236C252.841 128.701 251.443 131.256 249.889 133.325C247.582 136.383 244.841 139.089 241.753 141.358C241.153 141.705 240.678 142.232 240.395 142.864C240.038 144.049 241.199 145.194 242.406 145.55C243.754 145.957 245.197 145.786 246.6 145.917C248.003 146.047 249.532 146.614 250.09 147.925C250.87 149.712 249.381 151.64 247.908 152.915C244.942 155.478 241.559 157.515 237.906 158.94C236.598 159.442 235.225 159.899 234.184 160.833C233.143 161.767 232.54 163.373 233.214 164.603C233.888 165.833 235.542 166.19 236.92 165.909C238.298 165.627 239.51 164.854 240.812 164.332C243.256 163.358 246.439 163.449 248.069 165.507C249.14 166.863 249.276 168.78 248.793 170.437C248.229 172.073 247.341 173.579 246.183 174.865C242.378 179.592 237.388 183.229 231.72 185.409C226.058 187.497 220.778 188.15 215.05 186.242" fill="#F0F0F0"/>
<path d="M249.511 123.877C249.511 123.877 249.455 123.937 249.34 124.047L248.837 124.524C248.374 124.941 247.695 125.558 246.825 126.382C244.416 128.688 242.185 131.174 240.152 133.817C238.855 135.484 237.512 137.372 236.129 139.42C234.746 141.469 233.253 143.678 231.785 146.053C230.232 148.524 228.817 151.078 227.545 153.704C226.887 155.075 226.303 156.501 225.71 157.957C225.116 159.412 224.523 160.889 223.915 162.38C221.604 167.98 219.611 173.706 217.946 179.53C216.608 184.289 215.729 189.164 215.321 194.09C215.054 197.413 215.082 200.753 215.406 204.071C215.532 205.241 215.647 206.154 215.748 206.767C215.793 207.063 215.823 207.299 215.849 207.465C215.874 207.63 215.879 207.706 215.879 207.706C215.879 207.706 215.582 206.431 215.3 204.081C214.94 200.758 214.883 197.408 215.129 194.075C215.515 189.132 216.379 184.237 217.709 179.46C219.36 173.622 221.348 167.883 223.663 162.274C224.273 160.785 224.872 159.31 225.458 157.851C226.052 156.4 226.64 154.959 227.304 153.589C228.581 150.954 230.004 148.393 231.568 145.917C233.047 143.542 234.535 141.343 235.943 139.29C237.351 137.236 238.709 135.364 240.017 133.697C242.069 131.058 244.327 128.585 246.77 126.302C247.63 125.493 248.324 124.886 248.782 124.479L249.32 124.022C249.445 123.922 249.511 123.877 249.511 123.877Z" fill="#E0E0E0"/>
<path d="M227.355 153.569C227.272 153.324 227.212 153.072 227.174 152.816C227.073 152.314 226.943 151.621 226.802 150.748C226.51 148.99 226.188 146.56 225.836 143.874C225.484 141.188 225.127 138.768 224.795 137.026C224.635 136.153 224.494 135.45 224.393 134.963C224.325 134.715 224.282 134.461 224.262 134.205C224.361 134.442 224.438 134.687 224.494 134.938C224.629 135.44 224.795 136.117 224.997 136.986C225.374 138.723 225.771 141.153 226.118 143.839C226.465 146.525 226.767 148.91 227.003 150.717C227.119 151.561 227.214 152.259 227.29 152.796C227.337 153.051 227.359 153.31 227.355 153.569Z" fill="#E0E0E0"/>
<path d="M250.291 148.773C250.215 148.801 250.135 148.816 250.055 148.819L249.376 148.894C248.782 148.954 247.928 149.04 246.861 149.185C244.754 149.451 241.858 149.933 238.69 150.596C235.522 151.259 232.681 152.002 230.644 152.604C229.638 152.895 228.803 153.151 228.235 153.327L227.581 153.523C227.505 153.551 227.426 153.57 227.345 153.578C227.345 153.578 227.415 153.533 227.561 153.473L228.2 153.227C228.758 153.021 229.573 152.725 230.589 152.423C232.6 151.786 235.461 151.023 238.635 150.345C241.808 149.667 244.719 149.23 246.836 149.009C247.897 148.889 248.757 148.829 249.351 148.799L250.035 148.773C250.12 148.761 250.206 148.761 250.291 148.773Z" fill="#E0E0E0"/>
<path d="M217.945 179.032C217.885 178.945 217.832 178.853 217.789 178.756C217.684 178.545 217.548 178.254 217.377 177.943C217.025 177.235 216.542 176.196 215.959 174.93C214.787 172.355 213.278 168.745 211.669 164.744C210.06 160.742 208.577 157.127 207.455 154.532L206.108 151.469C205.962 151.128 205.841 150.852 205.745 150.636C205.697 150.54 205.66 150.439 205.635 150.334C205.701 150.419 205.755 150.512 205.796 150.611L206.203 151.424C206.555 152.132 207.043 153.171 207.626 154.436C208.798 157.012 210.301 160.622 211.916 164.623C213.53 168.625 215.003 172.239 216.13 174.83C216.688 176.105 217.135 177.144 217.472 177.898C217.623 178.239 217.744 178.515 217.834 178.731C217.883 178.827 217.92 178.928 217.945 179.032Z" fill="#E0E0E0"/>
<path d="M248.313 168.58C248.218 168.633 248.117 168.675 248.012 168.706L247.127 169.012L243.873 170.131C241.122 171.075 237.336 172.426 233.172 173.932C229.008 175.438 225.207 176.764 222.441 177.662C221.058 178.114 219.926 178.466 219.157 178.697L218.257 178.958C218.153 178.997 218.045 179.022 217.935 179.033C218.033 178.982 218.136 178.94 218.242 178.907L219.122 178.596L222.38 177.482C225.126 176.538 228.918 175.182 233.082 173.681C237.245 172.18 241.047 170.849 243.813 169.951C245.196 169.499 246.327 169.147 247.097 168.916L247.997 168.655C248.099 168.617 248.205 168.592 248.313 168.58Z" fill="#E0E0E0"/>
<path d="M90.066 109.18L98.5947 134.057H137.205L136.918 132.777L121.309 132.295L114.113 109.17L90.066 109.18Z" fill="#E6E6E6"/>
<path d="M107.179 120.868C107.43 121.872 106.993 122.877 106.198 123.097C105.404 123.318 104.554 122.656 104.302 121.637C104.051 120.617 104.483 119.628 105.278 119.402C106.072 119.176 106.922 119.849 107.179 120.868Z" fill="white"/>
<path d="M175.856 163.003L188.684 206.974H190.228L180.382 162.852L175.856 163.003Z" fill="#EBEBEB"/>
<path d="M152.287 163.223L142.355 206.958H144.115L157.411 163.208L152.287 163.223Z" fill="#EBEBEB"/>
<path d="M163.908 162.214L165.432 206.958H167.514L168.429 162.39L163.908 162.214Z" fill="#EBEBEB"/>
<path d="M151.824 180.93L181.614 179.996L181.816 183.079L149.592 184.309L151.824 180.93Z" fill="#EBEBEB"/>
<path d="M152.271 163.208L151.814 165.472H156.742L157.361 163.208H152.271Z" fill="#E0E0E0"/>
<path d="M163.898 162.34L164.004 165.473H168.374L168.429 162.888L163.898 162.34Z" fill="#E0E0E0"/>
<path d="M164.527 180.534L164.637 183.737L162.324 183.822L161.57 180.624L164.527 180.534Z" fill="#E0E0E0"/>
<path d="M168.062 180.364L167.991 183.617L169.802 183.547L170.219 180.364H168.062Z" fill="#E0E0E0"/>
<path d="M175.66 162.34L176.319 164.605H180.769L180.282 162.406L175.66 162.34Z" fill="#E0E0E0"/>
<path d="M142.405 160.121C146.644 158.047 163.766 159.162 163.766 159.162C163.766 159.162 158.929 99.2458 165.18 98.7688C171.43 98.2919 185.591 93.7934 188.141 102.856C190.826 112.395 187.2 163.284 183.615 162.792C175.448 161.667 150.254 164.579 142.671 162.792C140.72 162.36 142.405 160.121 142.405 160.121Z" fill="#F0F0F0"/>
<path d="M182.746 103.891C182.776 103.891 182.897 104.041 183.103 104.393C183.208 104.559 183.319 104.769 183.45 105.02C183.581 105.271 183.721 105.573 183.867 105.909C184.659 107.844 185.158 109.887 185.346 111.969C185.615 115.03 185.699 118.105 185.597 121.177C185.537 124.641 185.325 128.447 185.014 132.423C184.702 136.399 184.315 140.19 183.958 143.624C183.601 147.058 183.249 150.151 182.766 152.751C182.407 154.798 181.884 156.813 181.202 158.776C180.987 159.508 180.678 160.208 180.282 160.86C180.429 160.117 180.629 159.385 180.88 158.671C181.427 156.69 181.852 154.678 182.152 152.646C182.555 150.075 182.841 146.988 183.158 143.549C183.475 140.11 183.832 136.324 184.164 132.358C184.496 128.391 184.712 124.606 184.813 121.157C184.952 118.114 184.932 115.065 184.752 112.024C184.62 109.984 184.224 107.969 183.575 106.03C183.078 104.624 182.69 103.926 182.746 103.891Z" fill="#E0E0E0"/>
<path d="M179.557 160.752C179.507 161.003 175.614 160.391 170.787 160.004C165.959 159.617 162.017 159.577 162.007 159.321C161.997 159.065 165.969 158.729 170.857 159.135C175.745 159.542 179.607 160.531 179.557 160.752Z" fill="#E0E0E0"/>
<path d="M206.456 133.692H69.5693V138.171H206.456V133.692Z" fill="#E6E6E6"/>
<path d="M80.2704 138.17L69.5693 206.918L74.9198 207.013L93.2897 138.17H80.2704Z" fill="#EBEBEB"/>
<path d="M196.489 137.427L202.745 206.973H197.761L184.259 140.309L183.555 135.359L196.489 137.427Z" fill="#EBEBEB"/>
<path d="M183.953 138.17L184.451 141.263L196.792 140.801L196.555 138.17H183.953Z" fill="#E0E0E0"/>
<path d="M80.2697 138.17L79.7669 141.338L92.5197 140.982L93.2891 138.17H80.2697Z" fill="#E0E0E0"/>
<path d="M74.5478 134.315V128.953L77.2533 128.355L74.5478 126.683V121.612H103.408V124.655H105.042C104.775 124.956 105.545 125.323 105.218 125.448C104.635 125.664 103.206 126.001 103.206 126.001L103.563 128.114L101.944 128.476L104.107 129.982L104.469 133.998L74.5227 134.611" fill="#E0E0E0"/>
<path d="M71.9123 134.315V128.953L74.6278 128.355L71.9224 126.683V121.612H100.777V124.655H102.406C102.14 124.956 102.934 125.323 102.582 125.448C101.999 125.664 100.571 126 100.571 126L100.933 128.114L99.3087 128.476L101.471 129.982L101.833 133.998L71.9123 134.591" fill="#F0F0F0"/>
<path d="M206.979 126.714C206.311 126.221 205.488 125.986 204.66 126.052C204.66 125.605 204.66 125.329 204.66 125.329H192.003C192.003 125.329 191.606 133.663 197.997 133.959C200.859 134.09 202.498 132.809 203.433 131.198C203.903 131.31 204.384 131.368 204.866 131.373C205.58 131.406 206.285 131.209 206.878 130.811C207.198 130.559 207.452 130.232 207.618 129.859C207.784 129.486 207.856 129.079 207.828 128.672C207.844 128.303 207.775 127.935 207.628 127.596C207.481 127.257 207.259 126.956 206.979 126.714ZM206.114 129.812C205.576 130.214 204.605 130.153 203.976 130.043C204.296 129.159 204.504 128.238 204.595 127.302C205.147 127.234 205.706 127.362 206.174 127.663C206.31 127.791 206.415 127.947 206.482 128.121C206.549 128.295 206.576 128.482 206.561 128.667C206.581 128.876 206.551 129.086 206.473 129.281C206.395 129.476 206.272 129.649 206.114 129.787V129.812Z" fill="#F0F0F0"/>
<path d="M117.252 68.4341L110.936 62.3441H77.6154V42.4273L124.614 41.4232V61.9474H116.367L117.252 68.4341ZM78.1183 61.842H111.137L116.558 67.0685L115.788 61.4454H124.111V41.9553L78.1183 42.9193V61.842Z" fill="#E0E0E0"/>
<path d="M99.5159 47.4426H83.8113V49.2801H99.5159V47.4426Z" fill="#E0E0E0"/>
<path d="M118.811 51.6456H83.8113V53.4831H118.811V51.6456Z" fill="#E0E0E0"/>
<path d="M118.811 55.2893H83.8113V57.1268H118.811V55.2893Z" fill="#E0E0E0"/>
<path d="M100.33 2.61368L101.285 28.495H140.424L176.399 16.4555V0.705841L100.33 2.61368Z" fill="#E0E0E0"/>
<path d="M140.619 13.2172L140.936 34.4394H174.195C174.195 34.4394 177.409 49.195 177.424 48.3867C177.439 47.5783 181.487 34.2386 181.487 34.2386L224.407 33.8369V12.2081L140.619 13.2172Z" fill="#F0F0F0"/>
<path d="M215.386 20.4069H149.615V22.4854H215.386V20.4069Z" fill="white"/>
<path d="M215.386 25.2972H149.615V27.3757H215.386V25.2972Z" fill="white"/>
<path d="M227.254 207.078C227.254 207.149 189.654 207.209 143.274 207.209C96.8947 207.209 59.2951 207.149 59.2951 207.078C59.2951 207.008 96.8846 206.948 143.274 206.948C189.664 206.948 227.254 207.003 227.254 207.078Z" fill="#263238"/>
<path d="M100.998 140.218C98.1464 140.674 96.8741 144.169 97.1256 147.036C97.377 149.902 98.5537 152.714 98.2369 155.571C97.8346 159.206 95.0839 162.278 94.7621 165.923C94.3849 170.221 97.4273 174.031 98.3375 178.249C98.78 180.302 98.7196 182.471 99.484 184.424C100.136 186.088 101.345 187.474 102.907 188.348C104.468 189.221 106.284 189.526 108.045 189.213C109.807 188.899 111.405 187.985 112.567 186.626C113.729 185.268 114.384 183.549 114.419 181.763C114.485 178.465 112.443 175.357 112.694 172.063C112.875 169.633 114.304 167.329 113.997 164.904C113.635 162.027 110.98 159.984 110.019 157.237C109.059 154.491 109.979 151.464 109.657 148.577C109.074 143.401 106.197 139.796 100.998 140.213" fill="#97DBC3"/>
<path d="M86.4498 165.276C85.9469 170.071 88.0891 175.714 90.5633 179.836C93.0625 184.005 96.8289 187.27 101.315 189.154C101.818 189.365 102.441 189.541 102.863 189.2C103.014 189.035 103.128 188.84 103.195 188.628C103.263 188.415 103.284 188.191 103.256 187.97C103.293 182.878 101.675 177.912 98.6445 173.816C95.6143 169.721 91.3352 166.717 86.4498 165.256" fill="#10A26F"/>
<path opacity="0.2" d="M86.4498 165.276C85.9469 170.071 88.0891 175.714 90.5633 179.836C93.0625 184.005 96.8289 187.27 101.315 189.154C101.818 189.365 102.441 189.541 102.863 189.2C103.014 189.035 103.128 188.84 103.195 188.628C103.263 188.415 103.284 188.191 103.256 187.97C103.293 182.878 101.675 177.912 98.6445 173.816C95.6143 169.721 91.3352 166.717 86.4498 165.256" fill="#10A26F"/>
<path d="M107.374 199.199C107.32 199.115 107.275 199.026 107.238 198.933C107.148 198.727 107.037 198.466 106.896 198.15C106.61 197.462 106.177 196.478 105.624 195.268C104.193 192.116 102.602 189.039 100.857 186.05C99.1031 183.064 97.1999 180.169 95.1543 177.374C94.3648 176.3 93.7161 175.441 93.2635 174.864L92.7606 174.181C92.645 174.026 92.5846 173.94 92.5947 173.93C92.6695 173.996 92.7385 174.068 92.8009 174.146C92.9467 174.322 93.1328 174.538 93.3591 174.799C93.8619 175.366 94.5157 176.21 95.3202 177.269C97.4201 180.035 99.3529 182.924 101.108 185.919C102.854 188.914 104.422 192.009 105.805 195.188C106.333 196.413 106.735 197.412 106.997 198.109C107.113 198.436 107.213 198.702 107.289 198.913C107.329 199.004 107.358 199.1 107.374 199.199Z" fill="#263238"/>
<path d="M104.296 153.483C104.328 153.635 104.347 153.789 104.352 153.945C104.352 154.271 104.407 154.708 104.447 155.265C104.523 156.435 104.628 158.092 104.759 160.125C105.02 164.227 105.383 169.895 105.825 176.151C106.268 182.407 106.7 188.075 107.017 192.177C107.173 194.185 107.298 195.857 107.389 197.032C107.429 197.584 107.459 198.036 107.48 198.352C107.493 198.506 107.493 198.66 107.48 198.814C107.442 198.664 107.419 198.511 107.409 198.357C107.374 198.031 107.329 197.594 107.268 197.042L106.811 192.192C106.444 188.095 105.976 182.432 105.538 176.171C105.101 169.91 104.764 164.242 104.533 160.135C104.437 158.102 104.362 156.445 104.306 155.27C104.286 154.711 104.271 154.269 104.261 153.945C104.263 153.79 104.275 153.636 104.296 153.483Z" fill="#263238"/>
<path d="M99.8658 192.361H111.894V201.177C111.895 201.935 111.746 202.685 111.456 203.384C111.167 204.084 110.742 204.72 110.205 205.256C109.669 205.792 109.033 206.217 108.332 206.507C107.631 206.797 106.88 206.946 106.122 206.946C104.643 206.947 103.221 206.381 102.147 205.366C101.074 204.35 100.432 202.963 100.354 201.489L99.8658 192.361Z" fill="#263238"/>
<path d="M187.326 70.3655C186.425 70.0944 184.811 74.9192 184.56 73.6841C184.308 72.449 187.215 68.0058 186.265 67.7598C185.028 67.4385 183.438 72.5243 183.272 72.941C183.107 73.3578 182.493 73.1369 182.659 72.7653C182.905 72.2331 185.344 66.5598 184.132 66.2385C183.459 66.0578 183.247 67.2928 183.247 67.2928C183.247 67.2928 181.357 72.7653 180.788 72.5946C180.22 72.4239 181.216 69.1655 181.628 68.0761C182.04 66.9866 181.699 66.3942 181.08 66.6C180.658 66.7456 179.305 69.999 178.923 71.0684C178.54 72.1377 177.53 75.0848 176.841 73.2322C176.152 71.3796 174.915 70.2199 174.362 70.1195C174.233 70.1142 174.106 70.1489 173.997 70.2188C173.889 70.2887 173.805 70.3904 173.757 70.5098C173.709 70.6293 173.7 70.7607 173.729 70.8858C173.759 71.011 173.827 71.1239 173.924 71.2089C174.349 71.7286 174.699 72.3048 174.965 72.921C175.198 73.4064 175.347 73.9274 175.408 74.4623C175.538 75.535 175.564 76.6179 175.483 77.6956V77.9968L169.519 92.7875L162.876 78.2278C160.749 71.1688 151.964 70.8776 151.964 70.8776L143.254 69.9789C140.106 68.7689 136.591 68.9748 134.635 70.0893C133.408 70.8155 132.349 71.7933 131.528 72.9582C130.707 74.1231 130.143 75.4485 129.873 76.8471C127.861 86.6975 120.881 121.972 120.318 137.421C119.962 139.102 119.697 140.802 119.524 142.512C119.353 145.188 119.594 145.208 119.906 145.173C120.756 145.082 120.409 140.473 121.042 141.417C121.676 142.361 120.836 147.111 121.716 146.98C122.903 146.794 122.4 141.975 122.4 141.563C122.4 141.151 122.983 141.126 122.973 141.498C122.973 142.03 122.933 147.643 124.065 147.487C124.688 147.402 124.432 146.292 124.432 146.292C124.432 146.292 124.065 141.041 124.603 140.98C125.141 140.92 125.468 143.993 125.498 145.047C125.528 146.101 126.036 146.483 126.503 146.091C126.805 145.82 126.78 142.617 126.725 141.573C126.669 140.529 126.458 137.707 127.695 139.017C128.932 140.328 130.381 140.875 130.878 140.749C130.988 140.708 131.082 140.633 131.148 140.536C131.214 140.438 131.247 140.323 131.244 140.206C131.242 140.089 131.203 139.975 131.133 139.881C131.063 139.787 130.965 139.717 130.853 139.68C130.313 139.394 129.814 139.036 129.37 138.616C129.012 138.297 128.708 137.922 128.47 137.506C128.394 137.371 128.334 137.245 128.264 137.12C128.455 134.183 130.184 108.949 134.64 91.6579L135.475 89.5041C136.35 93.0185 135.827 100.208 133.966 103.316C130.914 108.467 131.155 121.124 131.155 121.124L159.245 122.193C159.245 122.193 159.029 117.539 158.783 111.595L158.159 94.113L158.23 90.7642L158.36 90.4128C159.718 92.5767 161.418 95.3531 163.515 98.8926C170.5 110.656 176.393 96.6534 176.393 96.6534L182.362 79.7942C183.883 77.6789 185.288 75.4834 186.571 73.2172C187.894 70.5864 187.658 70.4809 187.326 70.3655Z" fill="#E5BAAB"/>
<path d="M144.089 204.933V200.415L135.575 200.359L135.505 207.002L136.033 207.037C138.381 207.182 147.986 207.609 149.56 207.147C151.315 206.605 144.089 204.933 144.089 204.933Z" fill="#CDA1F1"/>
<path d="M149.761 206.711C149.761 206.791 146.573 206.856 142.646 206.856C138.718 206.856 135.535 206.791 135.535 206.711C135.535 206.63 138.718 206.565 142.646 206.565C146.573 206.565 149.761 206.63 149.761 206.711Z" fill="#263238"/>
<path d="M144.24 205.863C144.169 205.823 144.24 205.577 144.416 205.361C144.592 205.145 144.818 205.004 144.873 205.06C144.929 205.115 144.813 205.321 144.647 205.537C144.481 205.752 144.31 205.898 144.24 205.863Z" fill="#263238"/>
<path d="M144.782 206.158C144.707 206.128 144.747 205.857 144.913 205.576C145.079 205.295 145.305 205.124 145.366 205.174C145.426 205.224 145.32 205.46 145.165 205.721C145.009 205.983 144.858 206.188 144.782 206.158Z" fill="#263238"/>
<path d="M138.099 206.681C138.064 206.706 137.938 206.585 137.752 206.384C137.525 206.121 137.273 205.88 136.998 205.666C136.729 205.468 136.414 205.338 136.083 205.29C135.826 205.255 135.66 205.29 135.645 205.25C135.63 205.21 135.786 205.104 136.088 205.084C136.477 205.072 136.859 205.195 137.169 205.431C137.468 205.658 137.722 205.939 137.918 206.259C138.064 206.495 138.13 206.656 138.099 206.681Z" fill="#263238"/>
<path d="M144.265 205.034C144.305 205.1 144.159 205.26 143.918 205.346C143.677 205.431 143.455 205.401 143.445 205.321C143.435 205.24 143.606 205.15 143.817 205.074C144.029 204.999 144.225 204.939 144.265 205.034Z" fill="#263238"/>
<path d="M144.133 204.567C144.133 204.647 143.912 204.717 143.631 204.722C143.349 204.727 143.128 204.662 143.128 204.582C143.128 204.501 143.364 204.431 143.631 204.431C143.897 204.431 144.123 204.486 144.133 204.567Z" fill="#263238"/>
<path d="M153.075 203.328L154.423 198.99L146.307 196.424L144.27 202.745L144.773 202.936C146.975 203.769 156.017 207.013 157.661 207.038C159.477 207.043 153.075 203.328 153.075 203.328Z" fill="#CDA1F1"/>
<path d="M157.957 206.696C157.957 206.776 154.875 205.898 151.123 204.733C147.372 203.568 144.35 202.569 144.375 202.494C144.4 202.418 147.457 203.297 151.209 204.457C154.96 205.616 157.983 206.621 157.957 206.696Z" fill="#263238"/>
<path d="M152.94 204.255C152.885 204.195 153.015 203.984 153.262 203.808C153.508 203.632 153.765 203.587 153.765 203.657C153.765 203.728 153.629 203.888 153.403 204.049C153.176 204.21 152.995 204.31 152.94 204.255Z" fill="#263238"/>
<path d="M153.372 204.704C153.307 204.654 153.427 204.403 153.669 204.202C153.91 204.001 154.172 203.885 154.217 203.951C154.262 204.016 154.091 204.212 153.865 204.418C153.638 204.623 153.432 204.754 153.372 204.704Z" fill="#263238"/>
<path d="M146.834 203.222C146.794 203.222 146.708 203.086 146.588 202.835C146.45 202.519 146.281 202.216 146.085 201.932C145.887 201.66 145.624 201.443 145.321 201.299C145.089 201.189 144.918 201.174 144.918 201.128C144.918 201.083 145.094 201.033 145.391 201.103C145.765 201.211 146.093 201.441 146.321 201.756C146.537 202.06 146.695 202.4 146.789 202.76C146.854 203.026 146.869 203.212 146.834 203.222Z" fill="#263238"/>
<path d="M153.216 203.447C153.216 203.522 153.045 203.633 152.789 203.643C152.532 203.653 152.336 203.557 152.351 203.477C152.366 203.397 152.552 203.362 152.779 203.352C153.005 203.342 153.201 203.367 153.216 203.447Z" fill="#263238"/>
<path d="M153.221 202.991C153.221 203.066 152.964 203.066 152.718 202.991C152.471 202.916 152.215 202.78 152.27 202.705C152.326 202.63 152.537 202.635 152.798 202.705C153.06 202.775 153.236 202.911 153.221 202.991Z" fill="#263238"/>
<path d="M151.798 71.4402C151.667 70.4963 152.175 66.5702 152.175 66.5702C152.175 66.5702 155.791 66.3091 156.123 62.7495C156.455 59.1899 156.5 50.9661 156.5 50.9661L150.058 47.5571L142.666 52.7785L140.73 56.9256L143.184 65.9627V70.6419L151.798 71.4402Z" fill="#E5BAAB"/>
<path d="M156.052 56.4484C156.078 56.4233 156.052 56.3078 155.891 56.1723C155.698 55.9998 155.455 55.8939 155.197 55.8704C154.938 55.8469 154.68 55.907 154.458 56.0417C154.292 56.1472 154.227 56.2526 154.252 56.2827C154.277 56.3128 154.68 56.117 155.167 56.1673C155.23 56.172 155.292 56.1821 155.353 56.1974C155.283 56.2345 155.224 56.2896 155.181 56.3569C155.139 56.4243 155.115 56.5016 155.112 56.5811C155.11 56.6606 155.128 56.7394 155.165 56.8096C155.203 56.8797 155.258 56.9388 155.326 56.9808C155.394 57.0227 155.471 57.0461 155.551 57.0486C155.63 57.051 155.709 57.0325 155.779 56.9947C155.85 56.957 155.908 56.9015 155.95 56.8338C155.992 56.7661 156.015 56.6886 156.017 56.6091C156.027 56.556 156.027 56.5015 156.017 56.4484C156.017 56.4484 156.037 56.4635 156.052 56.4484Z" fill="#263238"/>
<path d="M150.596 56.2787C150.626 56.2536 150.596 56.1331 150.44 56.0025C150.248 55.8286 150.004 55.7212 149.746 55.6963C149.486 55.6737 149.226 55.7335 149.002 55.867C148.841 55.9724 148.776 56.0778 148.801 56.108C148.826 56.1381 149.223 55.9473 149.716 55.9925C149.796 56.0012 149.875 56.0164 149.952 56.0377C149.89 56.0669 149.836 56.1098 149.793 56.1632C149.75 56.2165 149.72 56.2789 149.705 56.3456C149.689 56.4123 149.69 56.4815 149.705 56.5482C149.721 56.6148 149.751 56.6771 149.794 56.7303C149.837 56.7835 149.892 56.8262 149.954 56.8552C150.016 56.8843 150.084 56.8989 150.152 56.8979C150.221 56.897 150.288 56.8805 150.349 56.8498C150.411 56.8191 150.464 56.7748 150.506 56.7205C150.551 56.657 150.578 56.5829 150.586 56.5055C150.594 56.4281 150.582 56.35 150.551 56.2787H150.596Z" fill="#263238"/>
<path d="M152.235 60.48C152.501 60.4228 152.773 60.3975 153.045 60.4046C153.171 60.4046 153.296 60.4046 153.322 60.2992C153.344 60.1628 153.325 60.0228 153.266 59.8976C153.171 59.5762 153.07 59.2298 152.959 58.8934C152.673 58.017 152.452 57.121 152.296 56.2124C152.422 56.4532 152.519 56.7076 152.587 56.9705C152.743 57.4475 152.944 58.1052 153.156 58.8382L153.442 59.8423C153.509 60.0013 153.521 60.1777 153.477 60.3444C153.458 60.388 153.428 60.4262 153.39 60.4558C153.352 60.4855 153.308 60.5058 153.261 60.5151C153.19 60.5273 153.117 60.5273 153.045 60.5151C152.775 60.538 152.503 60.5262 152.235 60.48Z" fill="#263238"/>
<path d="M150.596 60.8975C150.993 61.0431 151.944 61.756 152.949 61.7911C152.762 62.035 152.497 62.208 152.199 62.2819C151.9 62.3558 151.585 62.3261 151.305 62.1978C150.269 61.7208 150.596 60.8975 150.596 60.8975Z" fill="#EFEDE9"/>
<path d="M152.174 66.5712C150.481 66.4463 148.859 65.842 147.498 64.829C147.498 64.829 148.504 67.4799 152.069 67.4447L152.174 66.5712Z" fill="#D78776"/>
<path d="M158.905 45.6546C158.64 45.4057 158.318 45.2266 157.967 45.1337C157.615 45.0408 157.246 45.0369 156.893 45.1224C156.191 45.299 155.505 45.5324 154.842 45.8202C154.172 46.1057 153.423 46.1501 152.724 45.9458C151.794 45.5943 151.281 44.6052 150.482 44.0178C150.129 43.7609 149.724 43.5848 149.295 43.5021C148.866 43.4195 148.425 43.4324 148.002 43.5398C147.578 43.6472 147.184 43.8465 146.847 44.1236C146.51 44.4006 146.238 44.7485 146.051 45.1425C145.649 45.9909 145.548 47.1507 144.724 47.5373C144.045 47.8636 143.255 47.5373 142.536 47.3013C141.874 47.0705 141.156 47.046 140.48 47.231C140.144 47.3329 139.844 47.529 139.617 47.7961C139.389 48.0631 139.244 48.3898 139.197 48.7372C139.157 49.3698 139.539 49.9723 139.519 50.6099C139.489 51.5789 138.574 52.2567 137.739 52.7487C136.904 53.2407 135.964 53.8331 135.798 54.7871C135.769 55.1972 135.839 55.6082 136.004 55.985C136.169 56.3619 136.422 56.6933 136.743 56.9509C137.385 57.4627 137.999 58.0073 138.584 58.5827C139.112 59.2052 139.429 60.124 139.046 60.852C138.85 61.2135 138.498 61.4996 138.418 61.9013C138.277 62.5791 138.921 63.1263 139.539 63.4677C140.149 63.8635 140.834 64.1301 141.551 64.2509C141.837 64.2828 142.126 64.2641 142.406 64.1957C142.908 65.6266 143.195 66.8315 143.195 66.8315C143.793 67.8005 143.793 64.6375 143.793 64.6375C143.793 64.6375 144.085 61.585 143.597 60.4252C143.597 60.4252 141.787 61.1281 141.184 57.8396C140.882 56.2179 143.316 55.2941 144.1 57.2321L145.649 57.2873C145.649 57.2873 145.468 50.9463 149.048 52.0408C155.365 53.9737 158.749 51.9404 159.186 46.8193C159.236 46.6168 159.236 46.4055 159.187 46.2029C159.138 46.0004 159.041 45.8124 158.905 45.6546Z" fill="#263238"/>
<path d="M143.465 59.4353C143.465 59.4353 143.415 59.4755 143.33 59.5257C143.206 59.5866 143.064 59.5974 142.932 59.5558C142.73 59.4431 142.56 59.2786 142.442 59.0793C142.324 58.88 142.26 58.6529 142.259 58.4212C142.234 58.1608 142.268 57.8982 142.359 57.653C142.381 57.5563 142.427 57.4665 142.492 57.3913C142.557 57.3161 142.639 57.2577 142.731 57.2212C142.791 57.2016 142.856 57.2034 142.915 57.2263C142.973 57.2492 143.022 57.2918 143.053 57.3468C143.098 57.4321 143.083 57.4924 143.098 57.4974C143.113 57.5024 143.164 57.4421 143.129 57.3166C143.108 57.2429 143.061 57.1789 142.998 57.1359C142.955 57.1067 142.906 57.0864 142.855 57.076C142.805 57.0657 142.752 57.0656 142.701 57.0756C142.582 57.1104 142.473 57.1746 142.385 57.2623C142.297 57.3501 142.233 57.4586 142.198 57.5777C142.085 57.849 142.038 58.1433 142.062 58.4362C142.065 58.7077 142.147 58.9724 142.299 59.1975C142.451 59.4225 142.666 59.5978 142.917 59.7014C143.004 59.726 143.095 59.7287 143.183 59.7095C143.27 59.6902 143.352 59.6495 143.42 59.591C143.465 59.4905 143.481 59.4353 143.465 59.4353Z" fill="#D78776"/>
<path d="M159.004 115.276L147.835 114.422L130.904 113.052L132.795 203.84L147.493 203.649C147.493 203.649 147.493 202.645 147.458 200.867L156.093 203.217C156.093 203.217 164.49 174.896 167.352 163.273C169.725 153.573 159.004 115.276 159.004 115.276ZM147.302 186.749C147.076 165.793 146.774 132.286 147.081 127.928C147.081 127.928 155.313 157.173 155.389 159.648C155.439 161.154 150.878 175.634 147.302 186.749Z" fill="#263238"/>
<path opacity="0.2" d="M147.302 186.748L147.458 200.861L149.832 201.514L149.258 180.628L147.302 186.748Z" fill="black"/>
<path d="M146.896 127.827C146.85 127.802 147.238 127.21 147.564 126.14C147.96 124.738 148.138 123.283 148.092 121.827C148.092 120.12 147.967 118.559 148.007 117.424C148.012 116.978 148.041 116.532 148.092 116.089C148.098 115.918 148.13 115.748 148.188 115.587C148.233 115.587 148.188 116.285 148.188 117.404C148.188 118.524 148.344 120.075 148.364 121.807C148.411 123.292 148.2 124.773 147.74 126.185C147.592 126.61 147.4 127.019 147.167 127.405C147.101 127.56 147.009 127.703 146.896 127.827Z" fill="#455A64"/>
<path d="M145.341 116.345C145.341 116.345 145.396 116.255 145.557 116.19C145.794 116.1 146.055 116.1 146.292 116.19C146.476 116.248 146.64 116.359 146.763 116.509C146.887 116.659 146.964 116.841 146.986 117.033C147.027 117.273 146.989 117.519 146.876 117.735C146.763 117.951 146.583 118.124 146.362 118.227C146.142 118.33 145.893 118.358 145.655 118.307C145.417 118.255 145.202 118.127 145.044 117.942C144.91 117.801 144.819 117.624 144.783 117.432C144.747 117.24 144.768 117.042 144.843 116.862C144.93 116.627 145.097 116.429 145.316 116.305C145.472 116.225 145.572 116.225 145.578 116.245C145.325 116.404 145.135 116.645 145.039 116.928C144.993 117.07 144.987 117.223 145.022 117.369C145.057 117.515 145.13 117.649 145.236 117.756C145.355 117.906 145.52 118.011 145.707 118.055C145.893 118.099 146.088 118.08 146.262 118C146.436 117.921 146.578 117.785 146.665 117.615C146.753 117.445 146.78 117.251 146.744 117.063C146.729 116.915 146.674 116.774 146.585 116.654C146.497 116.534 146.378 116.439 146.241 116.38C145.954 116.266 145.636 116.254 145.341 116.345Z" fill="#455A64"/>
<path d="M160.075 119.764C159.769 119.991 159.408 120.131 159.029 120.17C158.118 120.337 157.178 120.177 156.375 119.717C155.573 119.257 154.959 118.529 154.644 117.66C154.486 117.316 154.425 116.936 154.468 116.56C154.518 116.56 154.563 116.977 154.835 117.565C155.191 118.35 155.778 119.009 156.519 119.452C157.276 119.872 158.143 120.047 159.003 119.954C159.667 119.894 160.054 119.718 160.075 119.764Z" fill="#455A64"/>
<path d="M137.219 114.311C137.219 114.311 137.3 114.442 137.365 114.698C137.454 115.061 137.493 115.434 137.481 115.807C137.465 117.065 136.959 118.268 136.07 119.159C135.181 120.051 133.979 120.561 132.719 120.582C132.343 120.595 131.968 120.557 131.602 120.472C131.467 120.45 131.337 120.402 131.22 120.331C131.722 120.374 132.226 120.389 132.729 120.376C133.921 120.305 135.045 119.8 135.888 118.956C136.73 118.111 137.233 116.987 137.3 115.797C137.304 115.301 137.277 114.804 137.219 114.311Z" fill="#455A64"/>
<path d="M147.573 200.2C147.573 200.28 144.284 200.346 140.231 200.346C136.178 200.346 132.889 200.28 132.889 200.2C132.889 200.12 136.173 200.055 140.231 200.055C144.289 200.055 147.573 200.12 147.573 200.2Z" fill="#455A64"/>
<path d="M134.817 200.41C134.736 200.41 134.505 182.507 134.314 160.421C134.123 138.335 134.017 120.432 134.098 120.432C134.178 120.432 134.404 138.33 134.6 160.421C134.797 182.512 134.897 200.41 134.817 200.41Z" fill="#455A64"/>
<path d="M147.77 190.297C147.777 190.239 147.791 190.182 147.81 190.127L147.946 189.625C148.082 189.183 148.268 188.555 148.504 187.762C149.007 186.13 149.731 183.801 150.616 180.929C151.501 178.057 152.587 174.613 153.779 170.807C154.378 168.904 155.006 166.906 155.655 164.833L156.661 161.675C156.817 161.143 157.023 160.59 157.164 160.068C157.148 159.515 157.075 158.965 156.947 158.426C156.445 156.182 155.856 154.013 155.278 151.925C154.7 149.836 154.101 147.823 153.533 145.9C152.396 142.069 151.34 138.635 150.455 135.748C149.57 132.861 148.851 130.547 148.343 128.915C148.102 128.122 147.916 127.499 147.78 127.058L147.639 126.556C147.62 126.5 147.606 126.443 147.599 126.385C147.625 126.437 147.647 126.49 147.664 126.546C147.71 126.666 147.765 126.827 147.835 127.023C147.981 127.464 148.187 128.082 148.454 128.865C148.957 130.492 149.726 132.811 150.651 135.673C151.577 138.535 152.663 141.984 153.789 145.805C154.363 147.717 154.961 149.726 155.549 151.829C156.138 153.933 156.746 156.087 157.229 158.356C157.289 158.642 157.345 158.924 157.385 159.21C157.414 159.354 157.432 159.5 157.44 159.646C157.461 159.8 157.461 159.955 157.44 160.108C157.304 160.691 157.108 161.203 156.937 161.745L155.932 164.903C155.273 166.972 154.639 168.97 154.036 170.873L150.812 180.979C149.887 183.841 149.138 186.16 148.615 187.787L148.001 189.635C147.936 189.83 147.881 189.986 147.835 190.112C147.819 190.175 147.797 190.238 147.77 190.297Z" fill="#455A64"/>
<path d="M147.447 196.936C147.907 197.038 148.356 197.181 148.79 197.363L152.154 198.538L155.518 199.708C155.994 199.846 156.455 200.03 156.896 200.255C156.406 200.186 155.924 200.068 155.458 199.904C154.578 199.653 153.376 199.271 152.058 198.814C150.741 198.357 149.544 197.905 148.719 197.559C148.269 197.41 147.841 197.2 147.447 196.936Z" fill="#455A64"/>
<path d="M139.805 155.175C139.868 155.104 139.943 155.044 140.026 154.999C140.256 154.853 140.51 154.747 140.776 154.688C141.202 154.588 141.647 154.598 142.068 154.718C142.631 154.888 143.121 155.242 143.461 155.722C143.854 156.316 144.048 157.019 144.014 157.73C144.014 158.473 143.969 159.236 143.944 160.07C143.94 160.937 143.869 161.804 143.732 162.66C143.651 163.126 143.48 163.571 143.23 163.971C142.948 164.391 142.528 164.7 142.043 164.844C141.566 164.957 141.067 164.944 140.597 164.806C140.126 164.669 139.699 164.412 139.357 164.061C138.748 163.403 138.359 162.571 138.246 161.681C138.057 160.216 138.17 158.728 138.578 157.308C138.71 156.756 138.922 156.225 139.207 155.732C139.43 155.352 139.773 155.055 140.182 154.889C140.44 154.782 140.724 154.756 140.997 154.813C141.091 154.828 141.18 154.864 141.258 154.919C140.916 154.826 140.552 154.852 140.227 154.994C139.852 155.165 139.543 155.454 139.347 155.817C139.088 156.303 138.895 156.821 138.774 157.359C138.409 158.756 138.32 160.21 138.513 161.641C138.624 162.47 138.987 163.245 139.554 163.86C139.861 164.173 140.244 164.402 140.666 164.525C141.088 164.648 141.534 164.661 141.962 164.563C142.376 164.435 142.732 164.167 142.968 163.805C143.215 163.441 143.386 163.031 143.471 162.6C143.604 161.758 143.676 160.907 143.687 160.055C143.722 159.236 143.783 158.448 143.788 157.73C143.828 157.071 143.661 156.417 143.31 155.858C142.999 155.41 142.551 155.075 142.033 154.904C141.64 154.777 141.221 154.751 140.816 154.828C140.463 154.892 140.123 155.009 139.805 155.175Z" fill="#455A64"/>
<path d="M160.909 159.372C160 159.586 159.071 159.706 158.138 159.728C157.212 159.846 156.277 159.866 155.347 159.788C156.256 159.576 157.185 159.459 158.118 159.437C159.043 159.319 159.979 159.297 160.909 159.372Z" fill="#455A64"/>
<path d="M159.95 161.018C158.515 160.809 157.116 160.406 155.791 159.818C156.515 159.879 157.229 160.035 157.913 160.28C158.621 160.435 159.306 160.684 159.95 161.018Z" fill="#455A64"/>
<path d="M166.653 156.464C166.735 156.491 166.812 156.532 166.879 156.585C167.082 156.731 167.245 156.924 167.357 157.147C167.689 157.719 167.769 158.678 167.749 159.803C167.78 161.144 167.538 162.478 167.04 163.724C166.722 164.466 166.247 165.131 165.647 165.672C165.332 165.974 164.952 166.201 164.536 166.335C164.305 166.393 164.063 166.393 163.832 166.335C163.595 166.271 163.383 166.134 163.229 165.943C162.966 165.575 162.801 165.147 162.751 164.698C162.671 164.287 162.616 163.871 162.585 163.453C162.534 162.663 162.568 161.871 162.685 161.088C162.888 159.763 163.342 158.488 164.023 157.333C164.272 156.868 164.649 156.483 165.109 156.223C165.289 156.132 165.487 156.079 165.689 156.069C165.891 156.059 166.092 156.091 166.281 156.163C166.525 156.255 166.726 156.434 166.844 156.665C166.887 156.742 166.911 156.828 166.915 156.916C166.915 156.916 166.879 156.831 166.794 156.695C166.661 156.504 166.468 156.363 166.246 156.294C166.072 156.234 165.888 156.211 165.705 156.228C165.522 156.244 165.345 156.299 165.185 156.389C164.756 156.645 164.407 157.015 164.179 157.458C163.54 158.601 163.117 159.852 162.932 161.149C162.824 161.912 162.797 162.684 162.851 163.453C162.883 163.859 162.937 164.263 163.012 164.663C163.06 165.063 163.205 165.446 163.435 165.778C163.554 165.921 163.714 166.024 163.894 166.074C164.074 166.123 164.265 166.116 164.44 166.054C164.818 165.935 165.162 165.731 165.446 165.456C166.013 164.943 166.464 164.315 166.769 163.614C167.261 162.401 167.513 161.106 167.513 159.798C167.615 158.921 167.517 158.031 167.226 157.197C167.091 156.914 166.895 156.664 166.653 156.464Z" fill="#455A64"/>
<path d="M175.051 64.9943L178.405 79.5189L186.255 77.827L183.509 62.9207L175.051 64.9943Z" fill="#263238"/>
<path d="M175.981 65.7424L178.551 77.3702L185.359 75.6933L182.926 64.0103L175.981 65.7424Z" fill="white"/>
<path d="M182.95 77.5108C182.951 77.6542 182.909 77.7946 182.83 77.9143C182.751 78.034 182.638 78.1274 182.505 78.1827C182.373 78.2381 182.227 78.2528 182.086 78.2251C181.945 78.1974 181.815 78.1284 181.714 78.027C181.612 77.9256 181.543 77.7963 181.515 77.6556C181.488 77.5149 181.502 77.3691 181.558 77.2368C181.613 77.1045 181.707 76.9916 181.827 76.9126C181.947 76.8335 182.087 76.7918 182.231 76.7928C182.422 76.7928 182.605 76.8685 182.739 77.0031C182.874 77.1377 182.95 77.3204 182.95 77.5108Z" fill="#455A64"/>
<path d="M180.858 64.1653L177.746 64.8631L177.756 64.9083L180.869 64.2105L180.858 64.1653Z" fill="#455A64"/>
<path d="M182.56 65.0264L176.56 66.3721L177.635 71.1531L183.636 69.8073L182.56 65.0264Z" fill="#F0F0F0"/>
<path d="M177.801 71.6955L178.259 73.3975L184.148 72.052L183.73 70.1994L177.801 71.6955Z" fill="#E0E0E0"/>
<path d="M178.454 74.0567L178.992 76.6423L184.811 75.1914L184.252 72.7263L178.454 74.0567Z" fill="#EBEBEB"/>
<path d="M135.254 90.6282C135.093 91.5068 134.856 92.8322 134.575 94.3886C138.009 94.5342 142.118 94.715 146.588 94.9208C151.28 95.1417 155.64 95.3526 159.16 95.5333L159.125 91.7327C155.605 91.5871 151.361 91.4014 146.759 91.1855C142.515 90.9897 138.583 90.7989 135.254 90.6282Z" fill="#CDA1F1"/>
<path d="M130.406 74.2373C129.735 75.4565 129.155 76.7234 128.671 78.0279C132.417 78.1584 139.372 78.4496 147.338 78.8212C154.418 79.1475 160.709 79.4638 164.641 79.6797C164.116 78.3301 163.501 77.0169 162.801 75.7485C158.894 75.5979 153.483 75.362 147.509 75.0858C140.544 74.7645 134.354 74.4532 130.406 74.2373Z" fill="#CDA1F1"/>
<path d="M151.833 70.9036C151.579 71.2323 151.289 71.532 150.969 71.7972C153.654 71.9227 156.173 72.0432 158.436 72.1587C156.296 71.4672 154.078 71.0456 151.833 70.9036Z" fill="#CDA1F1"/>
<path d="M140.121 114.618L159.371 117.631V115.457C155.634 115.301 150.822 115.095 145.612 114.849L140.121 114.618Z" fill="#CDA1F1"/>
<path d="M159.904 93.7214L161.368 91.8236L159.145 91.7333L159.904 93.7214Z" fill="#CDA1F1"/>
<path d="M132.246 106.63C131.939 108.011 131.638 109.331 131.386 110.405C135.213 110.556 140.277 110.777 145.839 111.038C150.938 111.274 155.619 111.5 159.316 111.691L159.28 107.885C155.619 107.735 151.013 107.534 146.015 107.303C140.78 107.047 135.977 106.816 132.246 106.63Z" fill="#CDA1F1"/>
<path d="M131.335 110.607C131.003 112.003 130.777 112.926 130.777 112.926L137.817 114.237C140.226 114.342 142.846 114.458 145.587 114.588C150.812 114.829 155.599 115.06 159.335 115.256L159.3 111.912C155.604 111.757 150.917 111.556 145.808 111.315C140.246 111.059 135.162 110.808 131.335 110.607Z" fill="#CDA1F1"/>
<path d="M133.092 102.614C132.855 103.814 132.589 105.124 132.297 106.384C136.028 106.535 140.811 106.746 146.025 106.987C151.024 107.218 155.62 107.444 159.276 107.63L159.241 103.824C155.615 103.673 151.099 103.477 146.201 103.252C141.303 103.026 136.727 102.815 133.092 102.614Z" fill="#CDA1F1"/>
<path d="M127.354 82.1295C126.926 83.691 126.63 85.0415 126.424 86.0456C129.26 86.1209 137.371 86.4523 146.941 86.8991C154.177 87.2305 160.574 87.5518 164.491 87.7727L166.502 85.1319C166.502 85.1319 166.372 84.685 166.14 83.9671C162.495 83.8416 155.334 83.5403 147.097 83.1588C138.286 82.727 130.688 82.3404 127.354 82.1295Z" fill="#CDA1F1"/>
<path d="M126.422 86.1102C126.266 86.9285 126.191 87.4206 126.191 87.4206L135.474 89.5192C135.474 89.5192 135.418 89.8355 135.318 90.3877C138.647 90.5283 142.579 90.699 146.798 90.8898C152.506 91.1559 157.691 91.3919 161.548 91.6128L164.409 87.9025C160.476 87.7569 154.13 87.4858 146.974 87.1545C137.365 86.7177 129.243 86.301 126.422 86.1102Z" fill="#CDA1F1"/>
<path d="M134.533 94.6307C134.322 95.7955 134.096 97.0808 133.859 98.3962C137.38 98.5418 141.724 98.7326 146.401 98.9485C151.193 99.1694 155.619 99.3853 159.199 99.571L159.164 95.7704C155.619 95.6248 151.274 95.429 146.592 95.2131C142.112 95.0073 137.988 94.8065 134.533 94.6307Z" fill="#CDA1F1"/>
<path d="M128.616 78.1674C128.113 79.4878 127.721 80.8032 127.384 82.0182C130.738 82.1186 138.321 82.4349 147.146 82.8466C155.348 83.2232 162.479 83.5847 166.13 83.8005C165.808 82.7964 165.315 81.3656 164.712 79.8543C160.779 79.7087 154.453 79.4376 147.322 79.1113C139.322 78.7398 132.347 78.3883 128.616 78.1674Z" fill="#CDA1F1"/>
<path d="M133.821 98.6265C133.68 99.4097 133.54 100.198 133.404 100.971C133.323 101.423 133.233 101.9 133.137 102.397C136.768 102.548 141.299 102.748 146.212 102.974C151.125 103.2 155.621 103.421 159.241 103.607L159.206 99.8064C155.616 99.6558 151.185 99.4599 146.388 99.239C141.696 99.0232 137.361 98.8123 133.821 98.6265Z" fill="#CDA1F1"/>
<path d="M145.123 71.5261C144.401 71.0411 143.736 70.4751 143.142 69.8392C143.142 69.8392 138.244 67.6954 134.417 69.7689C133.821 70.0991 133.274 70.5115 132.793 70.9939C136.087 71.1245 140.366 71.3052 145.123 71.5261Z" fill="#CDA1F1"/>
<path d="M132.599 71.1899C131.782 72.0554 131.077 73.0203 130.502 74.0617C134.454 74.2123 140.609 74.4734 147.524 74.7947C153.433 75.0658 158.778 75.3319 162.68 75.5378C162.263 74.7571 161.706 74.0594 161.036 73.4793C160.459 73.0581 159.832 72.7091 159.17 72.4401C156.626 72.3346 153.719 72.2091 150.622 72.0685C148.917 73.1982 147.071 72.666 145.638 71.8376C140.574 71.5966 136.033 71.3757 132.599 71.1899Z" fill="#CDA1F1"/>
<path d="M130.501 74.0621C130.466 74.119 130.434 74.1777 130.406 74.2379C134.353 74.4537 140.543 74.765 147.503 75.0863C153.477 75.3625 158.888 75.5884 162.795 75.7491L162.675 75.5382C158.773 75.3324 153.427 75.0663 147.518 74.7951C140.609 74.4989 134.469 74.2128 130.501 74.0621Z" fill="#263238"/>
<path d="M158.435 72.1595C156.173 72.0441 153.653 71.9236 150.968 71.7981C150.847 71.8918 150.726 71.9822 150.606 72.0692C153.719 72.2098 156.64 72.3353 159.155 72.4407C158.928 72.3403 158.682 72.2499 158.435 72.1595Z" fill="#263238"/>
<path d="M132.794 70.9827C132.723 71.043 132.663 71.1133 132.597 71.1785C136.032 71.3643 140.573 71.5852 145.622 71.8262C145.451 71.7258 145.285 71.6203 145.119 71.5149C140.367 71.304 136.087 71.1233 132.794 70.9827Z" fill="#263238"/>
<path d="M128.671 78.0125C128.655 78.0605 128.637 78.1074 128.615 78.153C132.347 78.3739 139.322 78.7254 147.322 79.0969C154.453 79.4232 160.779 79.6943 164.711 79.8399C164.711 79.7847 164.666 79.7245 164.641 79.6642C160.709 79.4483 154.418 79.132 147.337 78.8057C139.372 78.4492 132.417 78.158 128.671 78.0125Z" fill="#263238"/>
<path d="M127.383 82.0285L127.353 82.1389C130.687 82.3498 138.286 82.7364 147.136 83.1431C155.373 83.5246 162.534 83.8259 166.18 83.9514C166.18 83.9062 166.15 83.861 166.13 83.8108C162.479 83.5949 155.348 83.2334 147.146 82.8569C138.321 82.4351 130.738 82.1188 127.383 82.0285Z" fill="#263238"/>
<path d="M126.424 86.0445C126.426 86.0746 126.426 86.1048 126.424 86.1349C129.245 86.3256 137.366 86.7424 146.951 87.1842C154.107 87.5155 160.453 87.7866 164.385 87.9322L164.511 87.7716C160.594 87.5507 154.197 87.2294 146.961 86.898C137.391 86.4261 129.28 86.0947 126.424 86.0445Z" fill="#263238"/>
<path d="M135.293 90.389C135.293 90.4643 135.293 90.5446 135.253 90.63C138.582 90.8007 142.53 90.9915 146.759 91.1873C151.36 91.4031 155.619 91.5889 159.124 91.7345V91.6893V91.7345L161.347 91.8249L161.503 91.619C157.646 91.4182 152.451 91.1622 146.754 90.8961C142.555 90.7003 138.622 90.5296 135.293 90.389Z" fill="#263238"/>
<path d="M134.575 94.39C134.575 94.4704 134.55 94.5507 134.535 94.631C137.974 94.8068 142.113 95.0076 146.573 95.2134C151.275 95.4293 155.625 95.6251 159.145 95.7707V95.5347C155.625 95.354 151.265 95.1431 146.573 94.9222C142.143 94.7164 137.989 94.5356 134.575 94.39Z" fill="#263238"/>
<path d="M133.859 98.3958C133.859 98.4711 133.859 98.5514 133.819 98.6267C137.339 98.8125 141.694 99.0233 146.391 99.2392C151.188 99.4601 155.618 99.6559 159.209 99.8065V99.5706C155.628 99.3848 151.203 99.1689 146.411 98.948C141.724 98.7321 137.394 98.5414 133.859 98.3958Z" fill="#263238"/>
<path d="M133.135 102.397L133.09 102.628C136.726 102.813 141.267 103.034 146.2 103.265C151.133 103.496 155.614 103.687 159.239 103.838V103.617C155.619 103.431 151.108 103.21 146.21 102.984C141.312 102.758 136.766 102.547 133.135 102.397Z" fill="#263238"/>
<path d="M132.296 106.399C132.296 106.469 132.261 106.545 132.246 106.62C135.982 106.816 140.795 107.047 146.015 107.293C151.013 107.524 155.619 107.724 159.28 107.875V107.634C155.624 107.448 151.028 107.222 146.03 106.991C140.81 106.76 136.028 106.55 132.296 106.399Z" fill="#263238"/>
<path d="M131.386 110.395C131.386 110.465 131.35 110.536 131.335 110.606C135.162 110.807 140.246 111.058 145.823 111.314C150.932 111.555 155.619 111.756 159.315 111.911V111.685C155.619 111.494 150.937 111.269 145.838 111.033C140.276 110.766 135.212 110.546 131.386 110.395Z" fill="#263238"/>
<path d="M137.833 114.236L139.814 114.602H140.121L145.592 114.858C150.817 115.104 155.615 115.31 159.351 115.466H159.381V115.24C155.645 115.044 150.832 114.813 145.633 114.572C142.862 114.457 140.242 114.341 137.833 114.236Z" fill="#263238"/>
<path d="M159.27 95.4139C159.189 95.4139 158.842 92.502 158.496 88.8871C158.149 85.2723 157.932 82.3603 157.993 82.3603C158.053 82.3603 158.42 85.2723 158.767 88.8871C159.114 92.502 159.35 95.4039 159.27 95.4139Z" fill="#263238"/>
<path d="M158.944 80.9388C159.01 80.984 158.793 81.4158 158.441 81.9078C158.089 82.3998 157.783 82.7663 157.712 82.7211C157.642 82.676 157.863 82.2191 158.215 81.7471C158.567 81.2752 158.879 80.8936 158.944 80.9388Z" fill="#263238"/>
<path d="M154.364 96.5888C154.404 96.659 150.884 98.597 146.499 100.901C142.114 103.206 138.533 105.023 138.498 104.953C138.463 104.883 141.983 102.945 146.363 100.645C150.743 98.346 154.328 96.5134 154.364 96.5888Z" fill="#263238"/>
<path d="M155.213 100.043C154.664 100.205 154.105 100.326 153.538 100.405L149.515 101.163L145.492 101.981C144.94 102.126 144.376 102.227 143.808 102.282C144.336 102.061 144.885 101.893 145.447 101.78C146.453 101.514 147.891 101.183 149.47 100.872C151.049 100.56 152.487 100.334 153.543 100.194C154.094 100.095 154.653 100.045 155.213 100.043Z" fill="#263238"/>
<path d="M135.932 84.685C135.988 85.115 135.988 85.5504 135.932 85.9803C135.902 86.7786 135.817 87.8781 135.661 89.0881C135.505 90.2981 135.299 91.3876 135.128 92.1708C135.059 92.598 134.941 93.0158 134.776 93.4159C134.776 92.9831 134.827 92.5518 134.927 92.1306C135.047 91.3424 135.213 90.2579 135.369 89.053C135.525 87.848 135.646 86.7535 135.726 85.9653C135.75 85.5326 135.82 85.1036 135.932 84.685Z" fill="#263238"/>
<path d="M151.903 70.703C151.847 70.8303 151.771 70.9473 151.677 71.0495C151.451 71.3467 151.203 71.6254 150.933 71.8829C150.531 72.2859 150.037 72.5857 149.494 72.7565C148.821 72.937 148.111 72.937 147.438 72.7565C146.241 72.4201 145.133 71.8273 144.189 71.0193C143.904 70.7773 143.639 70.5138 143.395 70.2311C143.224 70.0353 143.143 69.9098 143.158 69.8997C143.173 69.8897 143.576 70.3064 144.31 70.8737C145.257 71.6194 146.342 72.1721 147.503 72.5004C148.133 72.6784 148.797 72.6923 149.434 72.5406C149.945 72.3889 150.416 72.1247 150.812 71.7674C151.501 71.1298 151.868 70.6729 151.903 70.703Z" fill="#263238"/>
<path d="M224.728 23.7259L205.807 20.5796C205.463 20.523 205.112 20.523 204.767 20.5796L185.847 23.7259C185.111 23.8488 184.443 24.228 183.961 24.7962C183.479 25.3644 183.214 26.0849 183.213 26.8295V48.8601C183.213 64.5964 205.288 70.8907 205.288 70.8907C205.288 70.8907 227.362 64.5964 227.362 48.8601V26.8295C227.361 26.0849 227.097 25.3644 226.614 24.7962C226.132 24.2281 225.464 23.8491 224.728 23.7267V23.7259ZM202.339 56.6688L190.444 44.7906L194.903 40.3404L201.922 47.3464L215.483 31.1066L220.327 35.1417L202.339 56.668V56.6688Z" fill="#D2D2D2"/>
</svg>
