<svg width="441" height="192" viewBox="0 0 441 192" fill="none" xmlns="http://www.w3.org/2000/svg">
<path opacity="0.7" d="M51.2153 42.6907C53.7211 41.3419 54.8632 42.4614 55.7702 41.3419C56.6771 40.2224 53.2643 37.2214 60.0966 34.2541C60.0966 34.2541 60.5535 27.8474 69.8917 27.6181C79.23 27.3888 76.7241 34.0248 79.2299 35.6231C81.7358 37.2214 82.4211 34.7059 84.927 36.2975C87.4328 37.8891 86.2706 41.0992 88.3465 41.5577C90.4224 42.0163 93.1298 39.4941 95.629 41.0992C98.1281 42.7042 98.1348 44.0665 99.2769 44.0665C100.419 44.0665 102.696 43.156 104.06 44.0665C105.424 44.9769 107.023 46.1301 107.023 46.1301H49.3946C49.3946 46.1301 48.7094 44.0597 51.2153 42.6907Z" fill="#CACBCD"/>
<path opacity="0.7" d="M361.991 28.8805C364.497 27.5318 365.639 28.6512 366.546 27.5318C367.452 26.4123 364.04 23.4112 370.872 20.4439C370.872 20.4439 371.329 14.0372 380.667 13.8079C390.005 13.5786 387.499 20.2146 390.005 21.8129C392.511 23.4112 393.196 20.8958 395.702 22.4873C398.208 24.0789 397.046 27.289 399.122 27.7476C401.198 28.2062 403.905 25.6839 406.404 27.289C408.904 28.894 408.91 30.2563 410.052 30.2563C411.194 30.2563 413.472 29.3459 414.836 30.2563C416.199 31.1667 417.798 32.3199 417.798 32.3199H360.17C360.17 32.3199 359.485 30.2495 361.991 28.8805Z" fill="#CACBCD"/>
<path d="M250.008 64.6798L242.354 68.3534H250.079M250.008 64.6798L257.804 68.3534H250.079M250.008 64.6798L250.079 68.3534" stroke="#FFDDA7" stroke-width="0.662319"/>
<path d="M250.073 68.3527L241.551 72.9716H250.152M250.073 68.3527L258.753 72.9716H250.152M250.073 68.3527L250.152 72.9716" stroke="#FFDDA7" stroke-width="0.662319"/>
<path d="M239.03 86.5299L249.047 34.2545" stroke="#FFDDA7" stroke-width="0.662319"/>
<path d="M261.037 85.2516L251.331 34.2545" stroke="#FFDDA7" stroke-width="0.662319"/>
<path d="M250.096 60.8605L243.1 64.5679H250.16M250.096 60.8605L257.221 64.5679H250.16M250.096 60.8605L250.16 64.5679" stroke="#FFDDA7" stroke-width="0.655447"/>
<path d="M250.119 56.7679L244.848 60.2729H250.168M250.119 56.7679L255.489 60.2729H250.168M250.119 56.7679L250.168 60.2729" stroke="#FFDDA7" stroke-width="0.606358"/>
<path d="M250.091 52.7354L245.44 56.2392H250.134M250.091 52.7354L254.828 56.2392H250.134M250.091 52.7354L250.134 56.2392" stroke="#FFDDA7" stroke-width="0.62295"/>
<path d="M245.408 52.6196H254.827" stroke="#FFDDA7" stroke-width="0.662319"/>
<path d="M248.946 52.4575L246.552 47.3366L246.324 46.8969L248.878 34.0412L249.254 33.1874V32.8411V27.4203H250.717V33.1874L251.251 34.0412L253.822 47.3366L251.251 52.4575H248.946Z" fill="#FFDDA7"/>
<path d="M42.9219 62.982H50.1175H59.0486V59.0791L56.4666 56.5671L55.8317 57.6438H52.8265L52.0222 54.9522V51.7222L52.8265 50.7802V31.5801L52.0222 30.9072V-3.23111L50.8371 -4.39746L49.9059 -3.23111V30.9072L48.8054 31.5801V50.7802L49.9059 51.7222V54.9522L48.8054 57.6438H46.308L45.5038 56.5671L42.9219 59.3484V62.982Z" fill="#FFDDA7"/>
<path d="M265.189 107.173C265.915 111.906 265.662 117.853 267.442 122.27C268.783 118.945 268.372 114.115 268.521 110.528C268.919 101.056 268.353 91.7704 267.733 82.2924C266.652 65.7757 268.641 48.6609 270.801 32.2509C271.669 25.6449 272.251 18.9975 273.164 12.4021C273.372 10.8986 273.137 6.68979 274.315 5.70042C274.913 5.19833 276.077 5.41303 276.787 5.41303H283.462H290.671C291.544 5.41303 292.985 5.13711 293.738 5.70042C294.462 6.24165 294.368 7.394 294.454 8.20864C294.684 10.4426 294.932 12.7015 295.276 14.9181C296.745 24.4229 297.762 34.1279 298.635 43.7129C299.46 52.7962 301.075 62.266 301.075 71.3895C301.075 82.0967 299.092 92.8246 299.22 103.539C299.441 121.955 300.389 174.509 300.389 177.106C300.389 179.702 300.549 181.274 300.549 182.935C300.549 186.854 300.483 191.414 301.35 195.235H301.884L302.151 187.967C302.151 187.021 301.912 179.869 302.236 177.371C302.199 177.447 302.17 177.441 302.151 177.339C301.639 174.653 302.151 153.244 302.151 150.505V133.173C302.151 114.15 302.418 95.1509 302.418 76.1421V52.6589C302.418 50.206 301.532 45.4384 302.578 43.2439C303.289 41.7574 308.882 43.6718 310.161 43.9447C312.139 44.3671 314.318 45.4879 316.035 46.5796C316.86 47.1032 317.928 48.3313 318.972 48.1742C320.149 47.9969 321.356 46.6022 322.443 46.0573C325.083 44.7342 327.644 44.0157 330.452 43.2866C331.421 43.0347 333.923 42.1854 334.794 42.886C335.942 43.8105 335.258 48.1887 335.258 49.5837V69.7122V141V154.978V180.419C335.258 190.456 337.359 188.705 338.112 186.818C338.433 186.013 338.243 185.801 338.112 185.041C337.803 183.235 338.014 184.083 338.014 182.204V176.113C338.014 172.048 337.661 154.419 337.661 154.419V139.323L337.765 74.2227H338.003C338.003 76.6526 340.531 77.6131 342.152 74.704C343.206 72.8131 342.961 69.0661 342.966 66.9165C342.969 66.2406 342.51 63.9671 343.679 64.2791C344.589 64.522 344.231 64.6366 344.392 65.4032C344.923 67.9204 344.38 72.6275 345.24 75.0432C347.515 74.3736 349.909 73.8482 353.18 72.829C356.452 71.8099 369.774 68.8436 369.774 68.8436C369.774 68.8436 370.234 79.5736 370.234 83.9698V131.495V142.678C370.234 143.689 369.839 145.954 370.853 146.559C371.745 147.09 373.347 146.257 374.239 145.993C377.328 145.076 380.462 143.605 383.584 142.917C385.223 142.556 387.618 143.938 389.19 144.433C393.804 145.889 398.447 147.25 403.074 148.667C404.735 149.176 407.832 149.852 408.662 151.649C409.639 153.767 404.137 156.485 402.807 157.398C402.324 157.729 400.967 158.343 401.106 159.123C401.248 159.912 402.751 160.181 403.341 160.382C405.739 161.202 408.227 161.739 410.55 162.784C411.399 163.166 413.516 163.854 412.875 165.234C412.379 166.306 410.64 167.109 409.749 167.802C406.66 170.209 402.914 172.026 400.164 174.875C396.458 178.719 398.268 188.512 398.268 193.558C398.268 195.216 397.731 198.154 398.519 199.633C399.026 200.583 400.343 200.27 401.205 200.267H408.948C411.449 200.267 413.916 200.547 416.424 200.547C425.069 200.547 440.175 197.95 440.72 211.17H106.981H13.8007H-12.3645C-15.0312 211.17 -20.3115 212.247 -22.6912 211.003C-24.397 210.108 -21.9263 205.887 -21.2182 204.939C-18.0714 200.737 -14.1285 200.547 -9.42759 200.547C-2.40465 200.547 4.6837 200.692 11.6647 200.511C17.369 200.362 23.3117 199.747 29.0192 200.315C32.1867 200.628 36.0071 200.821 39.1648 200.427C40.087 200.312 41.7779 200.536 42.3612 199.619C43.1798 198.336 42.6357 195.336 42.6357 193.837V179.3C42.6357 160.945 42.9027 142.596 42.9027 124.227V109.689C42.9027 108.313 43.2719 105.336 42.4269 104.22C41.6067 103.136 39.5237 103.539 38.3638 103.539C39.5469 100.007 45.0151 102.819 45.0151 99.3454C45.0151 97.5445 43.4591 96.9107 42.9646 95.3843C42.5076 93.9728 43.0277 92.4114 42.8736 90.9588C42.7353 89.6541 41.3742 86.7934 40.6058 85.738C39.7146 84.5138 38.119 83.8278 37.0329 82.8001C33.7102 79.6562 32.2241 75.316 36.2279 72.2282C38.3631 69.8985 42.6333 65.1274 42.6333 64.6801C42.9596 63.944 42.6832 62.7089 43.3307 62.1718C44.2689 61.3938 46.3004 62.0083 47.4416 61.717C49.236 61.2593 50.3971 59.9443 51.9804 59.0888L53.8493 60.4866C54.4012 62.3899 56.3409 61.899 57.8542 61.6049L61.9389 70.2115L65.6317 73.3121C66.988 73.6106 67.8533 75.7141 67.471 76.9808C66.6326 79.7568 64.89 82.2963 62.659 83.9952C61.8842 84.5854 60.9673 85.0881 60.4181 85.9388C59.7175 87.024 58.5545 89.3933 58.4173 90.6793C58.2568 92.1825 58.739 93.9912 58.2272 95.4276C57.639 97.079 56.1319 97.604 56.2691 99.6238C56.4872 102.829 61.6337 99.9339 62.6601 103.539L58.8162 104.187L58.3882 109.969V125.904L58.6552 170.913V200.267C61.6033 200.267 64.5319 200.547 67.4659 200.547C68.4535 200.547 70.0159 200.843 70.8198 200.1C72.236 198.788 71.2038 192.96 71.2038 191.042V164.763V89.0019V64.1209C71.2038 60.0941 71.6107 55.8126 71.2038 51.8202C73.6323 53.0869 75.4513 55.4291 77.3446 57.4115C82.0698 62.3591 86.1865 67.8022 89.8932 73.626C101.206 91.4011 106.959 112.315 110.301 133.173C111.687 141.823 113.098 150.948 113.121 159.731H113.388C114.576 143.974 113.655 128.016 113.655 112.206C113.655 97.9378 114.428 86.5581 114.428 72.0209C114.424 70.6342 114.303 66.8645 114.428 65.5187C114.692 62.6809 114.456 59.7036 114.456 56.8523V31.6918C114.456 29.741 114.535 27.769 114.433 25.821C114.399 25.1663 114.128 24.1241 114.843 23.7573C115.503 23.419 116.468 23.7975 117.126 23.9689C118.652 24.3665 120.609 24.8227 121.026 26.6639C121.459 28.5803 120.055 32.7396 122.734 33.0591C127.385 33.6138 132.223 32.6471 136.884 32.9537C138.321 33.0482 141.469 33.7488 142.632 32.6415C144.358 30.9988 142.378 27.4537 143.719 25.6044C144.472 24.5663 148.702 22.7341 149.692 24.0329C150.743 25.412 149.966 29.9594 149.966 31.6918V52.9385C149.966 79.7216 150.5 106.601 150.5 133.452L150.767 187.967C150.314 189.96 149.946 193.736 150.5 195.727C150.856 197.002 152.612 197.072 153.619 196.186C155.398 194.62 154.002 162.599 154.238 160.29V87.6041V65.5187L154.505 54.6158L167.054 57.691C167.054 58.7089 166.764 60.3513 167.328 61.2364C167.947 62.2071 170.432 62.2068 171.051 61.2364C171.503 60.5283 171.362 59.3449 171.592 58.5297L177.726 62.0044L178.267 68.0348L178.534 70.5508L180.913 108.012L184.942 172.591H185.209C186.769 164.171 185.743 154.628 185.743 146.032V96.2705V80.8946C185.278 73.108 186.01 22.4383 186.01 14.6386H231.399L231.666 36.1648L231.399 46.5086C231.429 49.2366 231.489 68.5293 231.666 71.3895C231.775 73.1351 231.567 74.5838 231.655 76.4216C232.25 89.1202 231.666 102.006 231.666 114.722C231.666 119.696 230.344 127.172 232.2 131.775C233.882 126.946 233.807 120.931 234.41 115.84C235.467 106.947 236.965 98.1142 238.362 89.2815C238.922 85.731 240.027 82.0988 240.604 78.5512C240.852 77.027 241.544 73.9056 241.544 73.9056C241.544 73.9056 240.583 79.69 240.175 82.572C240.049 83.4627 239.563 84.7249 239.859 85.6058C240.345 87.0444 245.755 87.0307 246.281 85.6069C246.783 84.2516 244.486 82.9005 243.851 82.002C242.636 80.2885 242.098 78.4789 242.243 76.4216C242.534 72.3056 243.62 71.9487 243.851 71.3895C244.082 70.8304 244.112 70.9026 245.282 69.7122C246.453 68.5217 247.469 69.259 247.685 67.7552L249.554 67.4757C249.554 67.4757 250.458 67.1239 253.025 67.7552C255.592 68.3866 253.046 67.683 256.121 70.2713C259.197 72.8595 258.65 77.1823 257.577 80.3355C257.067 81.83 254.066 84.135 254.536 85.6061C254.979 86.9863 260.354 87.019 261.003 85.8378C261.059 85.7346 261.109 85.6555 261.152 85.5973L261.225 85.1328C261.234 85.2526 261.243 85.3715 261.253 85.4893C261.459 85.3391 261.428 85.9235 261.332 86.4125C262.112 94.9186 263.814 98.206 265.189 107.173Z" fill="#FFDDA7"/>
<path d="M204.576 73.1059C198.628 63.141 193.366 34.5368 191.478 21.4804C191.432 21.1631 192.848 20.6944 193.563 20.4997C206.558 18.0002 222.2 20.0917 224.173 20.4997C225.752 20.8262 225.986 21.5539 225.906 21.877L225.533 23.3563C219.94 60.2746 215.975 65.077 212.506 73.1059C209.73 79.5291 206.063 75.7822 204.576 73.1059Z" fill="#FFF5E5"/>
<rect x="149.923" y="95.8851" width="5.56671" height="15.1009" fill="#4C5869"/>
<path d="M209.926 98.7431H159.487L159.809 99.7244L158.129 100.776L187.617 135.16V192.232H190.667L190.963 192.354H222.959V189.083L219.766 108.49L209.926 98.7431Z" fill="#4C5869"/>
<path d="M135.047 128.752V192.342H191.171V135.897L159.566 98.7431L135.047 128.752Z" fill="#FFB352"/>
<rect x="140.204" y="142.48" width="11.5833" height="11.6277" fill="#FFFEFD"/>
<rect x="140.204" y="158.51" width="11.5833" height="11.6277" fill="#FFFEFD"/>
<rect x="156.08" y="142.48" width="11.5833" height="11.6277" fill="#FFFEFD"/>
<rect x="156.08" y="158.51" width="11.5833" height="11.6277" fill="#FFFEFD"/>
<rect x="171.957" y="142.48" width="11.5833" height="11.6277" fill="#FFFEFD"/>
<rect x="171.957" y="158.51" width="11.5833" height="11.6277" fill="#FFFEFD"/>
<path d="M258.71 29.2632V41.3439H219.598V192.353H238.95V180.272H245.666V192.353H263.223V29.2632H258.71Z" fill="#FCB254"/>
<path d="M263.223 29.2632V192.312H291.805C287.628 185.77 284.81 183.807 278.356 186.791L279.659 125.481C279.659 116.833 271.307 106.295 281.275 103.258V41.3439H266.232V29.2632H263.223Z" fill="#525B6A"/>
<path d="M227.119 54.9347V60.9751H233.136V54.9347H227.119ZM237.649 54.9347V60.9751H243.667V54.9347H237.649ZM248.18 54.9347V60.9751H254.197V54.9347H248.18Z" fill="#FFFEFD"/>
<path d="M227.119 70.0356V76.0759H233.136V70.0356H227.119ZM237.649 70.0356V76.0759H243.667V70.0356H237.649ZM248.18 70.0356V76.0759H254.197V70.0356H248.18Z" fill="#FFFEFD"/>
<path d="M227.119 85.1365V91.1768H233.136V85.1365H227.119ZM237.649 85.1365V91.1768H243.667V85.1365H237.649ZM248.18 85.1365V91.1768H254.197V85.1365H248.18Z" fill="#FFFEFD"/>
<path d="M227.119 100.237V106.278H233.136V100.237H227.119ZM237.649 100.237V106.278H243.667V100.237H237.649ZM248.18 100.237V106.278H254.197V100.237H248.18Z" fill="#FFFEFD"/>
<path d="M227.119 115.338V121.379H233.136V115.338H227.119ZM237.649 115.338V121.379H243.667V115.338H237.649ZM248.18 115.338V121.379H254.197V115.338H248.18Z" fill="#FFFEFD"/>
<path d="M227.119 130.439V136.48H233.136V130.439H227.119ZM237.649 130.439V136.48H243.667V130.439H237.649ZM248.18 130.439V136.48H254.197V130.439H248.18Z" fill="#FFFEFD"/>
<path d="M227.119 145.54V151.58H233.136V145.54H227.119ZM237.649 145.54V151.58H243.667V145.54H237.649ZM248.18 145.54V151.58H254.197V145.54H248.18Z" fill="#FFFEFD"/>
<path d="M227.119 160.641V166.681H233.136V160.641H227.119ZM237.649 160.641V166.681H243.667V160.641H237.649ZM248.18 160.641V166.681H254.197V160.641H248.18Z" fill="#FFFEFD"/>
<path d="M319.887 96.21L320.888 96.7135L319.887 96.21Z" fill="#A1A7B0"/>
<path d="M314.37 97.2172V103.258H275.258V192.353H294.814V180.272H302.336V192.353H318.883V97.2172H314.37Z" fill="#FCB254"/>
<path d="M318.883 97.2172V192.312H336.935V103.161H321.892V97.2172H318.883Z" fill="#525B6A"/>
<path d="M237.649 106.278L239.154 107.788L237.649 106.278ZM243.667 106.278L245.171 107.788L243.667 106.278Z" fill="#FCC987"/>
<path d="M284.284 162.151V168.191H290.301V162.151H284.284ZM294.814 162.151V168.191H300.831V162.151H294.814Z" fill="#FFFEFD"/>
<path d="M350.975 173.729L351.478 174.735L350.975 173.729Z" fill="#A1A7B0"/>
<path d="M238.934 179.6V192.353H245.636V179.6H238.934Z" fill="#FFFEFD"/>
<path d="M294.861 179.558V192.312H302.328V179.558H294.861Z" fill="#FFFEFD"/>
<path d="M284.284 162.151V168.191H290.301V162.151H284.284ZM294.814 162.151V168.191H300.831V162.151H294.814ZM305.344 162.151V168.191H311.362V162.151H305.344Z" fill="#FFFEFD"/>
<path d="M284.284 147.05V153.091H290.301V147.05H284.284ZM294.814 147.05V153.091H300.831V147.05H294.814ZM305.344 147.05V153.091H311.362V147.05H305.344Z" fill="#FFFEFD"/>
<path d="M284.284 131.949V137.99H290.301V131.949H284.284ZM294.814 131.949V137.99H300.831V131.949H294.814ZM305.344 131.949V137.99H311.362V131.949H305.344Z" fill="#FFFEFD"/>
<path d="M284.284 116.848V122.889H290.301V116.848H284.284ZM294.814 116.848V122.889H300.831V116.848H294.814ZM305.344 116.848V122.889H311.362V116.848H305.344Z" fill="#FFFEFD"/>
<ellipse cx="381.605" cy="150.248" rx="15.0432" ry="15.1009" fill="#FFB352"/>
<path d="M388.874 157.686C382.621 163.378 371.083 161.311 367.985 156.715C369.87 162.028 381.913 170.847 391.655 161.833C399.697 154.392 396.286 145.077 393.906 141.56C394.339 144.695 395.207 151.921 388.874 157.686Z" fill="#CC8F42"/>
<path d="M381.308 149.481L380.452 192.082L381.955 192.112L381.308 149.481Z" fill="#4C5869"/>
<line y1="-0.37642" x2="2.89767" y2="-0.37642" transform="matrix(0.876694 -0.481048 0.478234 0.878233 381.631 174.75)" stroke="#4C5869" stroke-width="0.752841"/>
<ellipse cx="352.196" cy="165.122" rx="9.76988" ry="9.80731" fill="#FFB352"/>
<path d="M356.917 169.951C352.857 173.648 345.363 172.306 343.351 169.321C344.576 172.772 352.397 178.499 358.724 172.645C363.947 167.813 361.731 161.763 360.186 159.479C360.467 161.514 361.03 166.207 356.917 169.951Z" fill="#CC8F42"/>
<path d="M352.002 164.625L351.446 192.292L352.422 192.311L352.002 164.625Z" fill="#4C5869"/>
<line y1="-0.244467" x2="1.88112" y2="-0.244467" transform="matrix(0.876695 -0.481047 0.478235 0.878232 352.212 181.035)" stroke="#4C5869" stroke-width="0.488934"/>
<ellipse cx="87.9369" cy="163.895" rx="9.76988" ry="9.80731" fill="#FFB352"/>
<path d="M92.6587 168.725C88.5978 172.422 81.1041 171.08 79.0923 168.095C80.3169 171.545 88.1379 177.273 94.465 171.419C99.6879 166.586 97.4723 160.536 95.9267 158.253C96.2083 160.288 96.7714 164.981 92.6587 168.725Z" fill="#CC8F42"/>
<path d="M87.7437 163.398L87.1639 192.243L88.1401 192.262L87.7437 163.398Z" fill="#4C5869"/>
<line y1="-0.244467" x2="1.88111" y2="-0.244467" transform="matrix(0.876688 -0.481059 0.478223 0.878238 87.9536 179.808)" stroke="#4C5869" stroke-width="0.488934"/>
<path d="M361.342 187.609C356.667 183.329 351.893 188.858 352.1 191.665L352.1 192.217L369.561 192.312L369.303 191.277C368.03 185.96 363.434 186.616 361.342 187.609Z" fill="#4C5869"/>
<path d="M398.191 187.609C393.516 183.329 388.742 188.858 388.949 191.665L388.949 192.217L406.409 192.312L406.152 191.277C404.879 185.96 400.283 186.616 398.191 187.609Z" fill="#4C5869"/>
<path d="M284.621 187.609C279.946 183.329 275.172 188.858 275.38 191.665L275.38 192.217L292.84 192.312L292.582 191.277C291.31 185.961 286.714 186.616 284.621 187.609Z" fill="#4C5869"/>
<path d="M227.457 187.77C222.782 183.49 218.008 189.019 218.215 191.826L218.215 192.378L235.676 192.473L235.418 191.438C234.145 186.121 229.549 186.777 227.457 187.77Z" fill="#4C5869"/>
<path d="M138.702 187.65C134.027 183.37 129.253 188.9 129.46 191.707L129.389 192.354H146.921L146.663 191.318C145.391 186.002 140.794 186.658 138.702 187.65Z" fill="#4C5869"/>
<path d="M113.226 184.546L113.226 192.711" stroke="#4C5869" stroke-width="1.05398"/>
<path d="M98.2668 184.102L98.2669 192.462" stroke="#4C5869" stroke-width="1.05398"/>
<line x1="117.57" y1="178.125" x2="94.388" y2="178.125" stroke="#4C5869" stroke-width="0.752841"/>
<line x1="117.57" y1="180.002" x2="94.388" y2="180.002" stroke="#4C5869" stroke-width="0.752841"/>
<line x1="117.57" y1="181.881" x2="94.388" y2="181.881" stroke="#4C5869" stroke-width="0.752841"/>
<line x1="117.569" y1="184.173" x2="94.3866" y2="184.173" stroke="#4C5869" stroke-width="0.752841"/>
<path d="M123.377 170.423L123.377 192.861" stroke="#4C5869" stroke-width="1.05398"/>
<rect x="120.142" y="165.284" width="6.0173" height="6.04036" fill="#4C5869"/>
<ellipse cx="-1.21399" cy="174.185" rx="3.38441" ry="3.33093" transform="rotate(-90 -1.21399 174.185)" fill="#FFD28F"/>
<ellipse cx="15.1073" cy="174.185" rx="3.38441" ry="3.33093" transform="rotate(-90 15.1073 174.185)" fill="#FFD28F"/>
<ellipse cx="6.94666" cy="165.893" rx="3.38441" ry="3.33093" transform="rotate(-90 6.94666 165.893)" fill="#FFD28F"/>
<ellipse cx="23.2679" cy="165.893" rx="3.38441" ry="3.33093" transform="rotate(-90 23.2679 165.893)" fill="#FFD28F"/>
<ellipse cx="31.8636" cy="174.185" rx="3.38441" ry="3.33093" transform="rotate(-90 31.8636 174.185)" fill="#FFD28F"/>
<ellipse cx="48.1849" cy="174.185" rx="3.38441" ry="3.33093" transform="rotate(-90 48.1849 174.185)" fill="#FFD28F"/>
<ellipse cx="40.0243" cy="165.893" rx="3.38441" ry="3.33093" transform="rotate(-90 40.0243 165.893)" fill="#FFD28F"/>
<ellipse cx="56.3456" cy="165.893" rx="3.38441" ry="3.33093" transform="rotate(-90 56.3456 165.893)" fill="#FFD28F"/>
<ellipse cx="64.9413" cy="174.185" rx="3.38441" ry="3.33093" transform="rotate(-90 64.9413 174.185)" fill="#FFD28F"/>
<ellipse cx="81.2626" cy="174.185" rx="3.38441" ry="3.33093" transform="rotate(-90 81.2626 174.185)" fill="#FFD28F"/>
<ellipse cx="73.1019" cy="165.893" rx="3.38441" ry="3.33093" transform="rotate(-90 73.1019 165.893)" fill="#FFD28F"/>
<ellipse cx="89.4232" cy="165.893" rx="3.38441" ry="3.33093" transform="rotate(-90 89.4232 165.893)" fill="#FFD28F"/>
</svg>
