<svg width="496" height="500" fill="none" xmlns="http://www.w3.org/2000/svg"><path opacity=".7" d="M169.163 55.359c-3.73-2-5.43-.34-6.78-2-1.35-1.66 3.73-6.11-6.44-10.51 0 0-.68-9.5-14.58-9.84-13.9-.34-10.17 9.5-13.9 11.87-3.73 2.37-4.75-1.36-8.48 1-3.73 2.36-2 7.12-5.09 7.8-3.09.68-7.12-3.06-10.84-.68-3.72 2.38-3.73 4.4-5.43 4.4-1.7 0-5.09-1.35-7.12 0-2.03 1.35-4.41 3.06-4.41 3.06h85.78s1.02-3.07-2.71-5.1Z" fill="#C4A1F8"/><path opacity=".7" d="M380.163 22.359c-3.73-2-5.43-.34-6.78-2-1.35-1.66 3.73-6.11-6.44-10.51 0 0-.68-9.5-14.58-9.84-13.9-.34-10.17 9.5-13.9 11.87-3.73 2.37-4.75-1.36-8.48 1-3.73 2.36-2 7.12-5.09 7.8-3.09.68-7.12-3.06-10.84-.68-3.72 2.38-3.73 4.4-5.43 4.4-1.7 0-5.09-1.35-7.12 0-2.03 1.35-4.41 3.06-4.41 3.06h85.78s1.02-3.07-2.71-5.1Z" fill="#E3D0FE"/><g opacity=".8"><path d="m309.84 437.045-10.63.053 10.63-.053Z" fill="#C78D7C"/><path d="M357.512 255.273s-11.178 5.501-24.42 16.986c-15.946 13.833-16.576 22.792-16.576 22.792s21.247 4.748 36.273-7.905c15.026-12.653 4.723-31.873 4.723-31.873Z" fill="#CC7B1B"/><path d="M351.813 334.167c-41.06-60.511-72.816-72.945-107.556-79.078-19.159-3.38-66.352-13.432-70.923-13.648-4.571-.218-6.586-7.03-2.049-10.872 4.539-3.844 22.483 2.32 50.46 2.366 20.304.029 54.973-8.559 84.873-3.267 21.872 3.87 70.47 47.568 94.884 72.554-6.92 6.661-38.936 21.594-49.689 31.945Z" fill="#F9AF9C"/><path d="M217.003 238.804c-6.46-1.24-14.595-1.351-17.975-1.808-9.097-1.227-18.436-6.47-27.816-6.366a7.56 7.56 0 0 0-1.293 1.446c6.701 2.339 15.833 4.989 20.902 6.128 4.25.956 16.178.988 26.182.6Z" fill="#C68B7C"/><path d="M230.005 237.892c-7.913 1.066-32.643 1.784-39.184.312-6.543-1.471-19.855-5.458-25.97-8.043-6.117-2.588-11.349-3.633-15.688-1.64-4.338 1.994.061 7.618.061 7.618s24.274 13.522 33.206 14.324c8.931.797 44.207 2.041 48.541-.385 4.334-2.43 3.743-12.818-.966-12.186Z" fill="#F9AF9C"/><path d="M225.076 239.807c-2.471-.515-5.615-.803-8.997-.968-9.803.35-21.138.292-25.258-.636-.268-.06-.547-.125-.836-.192-8.257-.891-17.438-1.105-24.766-4.272-6.645-2.871-9.705-6.199-15.469-5.306-.211.032-.425.071-.644.115-.717.34-1.188.782-1.477 1.282.745.281 1.5.585 2.267.91 7.132 3.017 22.652 7.66 30.28 9.375 7.424 1.672 34.88.358 44.9-.308Z" fill="#C68B7C"/><path d="M225.86 239.754c-9.284.644-38.056 2.079-45.684.361-7.628-1.715-23.148-6.358-30.28-9.374-7.127-3.017-13.232-4.239-18.289-1.913-5.058 2.324.07 8.882.07 8.882s28.3 15.766 38.714 16.699c10.413.932 51.543 2.381 56.598-.452 5.052-2.832 22.711-15.859-1.129-14.203Z" fill="#F9AF9C"/><path d="M177.441 250.688c1.357-.21 2.8-.542 4.297-.91.877-1.008 1.936-1.962 3.086-2.807-6.215-1.016-12.355-2.287-18.297-4.292-8.951-3.023-18.12-7.537-27.748-7.665-1.263-.017-2.775.094-4.371.341a31.607 31.607 0 0 0-3.738.811c.478.846.923 1.435.997 1.531a16.424 16.424 0 0 1 2.874-.703 20.041 20.041 0 0 1 6.777.132c6.356 1.219 25.215 10.969 30.309 13.21 1.61.709 3.595.696 5.814.352Z" fill="#E09E8B"/><path d="M181.563 242.645c-3.832-.107-7.812.868-11.543 1.806-4.901 1.231-9.377 2.397-12.541.955-5.571-2.536-26.205-13.554-33.15-14.95-6.943-1.396-13.564.907-14.915 3.756-1.353 2.851 30.739 22.076 40.366 27.729 9.626 5.654 9.878 3.377 22.923 5.318 13.044 1.939 30.011 4.912 36.103 6.971 17.309 5.855 26.822 7.174 46.315 4.226 2.125-.32 4.178-.795 6.299-1.279 9.916-2.268 21.309-4.763 48.374 7.131 32.853 14.443.049-59.058-48.267-55.551-3.623.264-8.649 1.33-14.183 2.476-7.524 1.557-15.989 3.26-23.143 3.287-27.646.108-42.638 8.125-42.638 8.125Z" fill="#F9AF9C"/><path d="M243.471 269.179c-6.223-1.687-12.462-3.577-15.628-3.553-5.839.047-11.435-1.685-19.313-2.638-7.875-.953-22.586.18-27.445-4.095-2.393-2.109-2.201-4.794-.663-7.332-5.168 6.762-6.079 13.876 4.251 14.215 21.158.696 41.862 4.018 58.796 3.402a.003.003 0 0 0 .002.001Zm-1.278-24.78c3.043-.471 5-1.826 8.551-3.408 3.471-1.549 9.691-3.984 16.249-5.903a42.68 42.68 0 0 0-3.283.397c-2.817.436-6.149 1.132-9.711 1.865-3.562.732-7.354 1.5-11.09 2.078-3.501.542-6.952.918-10.122.942-6.787.054-12.747.612-17.831 1.399l-.216.033c5.731.062 11.32.514 15.643 1.47 5.832 1.289 9.215 1.529 11.81 1.127Z" fill="#E09E8B"/><path d="M283.672 232.189c-9.9-.251-26.351 5.869-32.928 8.802-6.577 2.931-7.685 5.083-20.361 2.282-12.673-2.804-36.232-1.267-42.3 1.716-6.069 2.982-11.852 9.627-6.997 13.905 4.858 4.274 19.569 3.141 27.444 4.094 7.878.954 13.474 2.685 19.313 2.639 5.838-.046 22.131 6.424 29.49 6.111 7.359-.311 30.368-3.238 39.475-15.289 13.312-17.618 9.709-23.682-13.136-24.26Z" fill="#F9AF9C"/><path d="M196.681 260.502a15.46 15.46 0 0 0 1.167-.222c3.926-.92 3.016-3.957 2.731-7.767-.283-3.806-5.232-3.695-11.072-3.841a9.348 9.348 0 0 0-1.68.103c-3.464.536-5.959 3.092-5.493 7.567.494 4.726 9.758 4.871 14.347 4.16Z" fill="#FBC8BD"/><path d="M357.59 255.212s-1.652 16.997-14.272 26.955c-12.62 9.957-26.757 12.789-26.757 12.789l130.83 156.553L466.093 422l19-32L357.59 255.212Z" fill="#843EDB"/><g opacity=".8"><path d="M354.285 307.407a8.58 8.58 0 0 1-10.833 5.465 8.58 8.58 0 0 1-5.465-10.833c.493-1.497 1.32-2.851 2.48-4.062" stroke="#D0BCF5" stroke-width="1.242" stroke-linecap="round"/><path opacity=".7" d="M352.492 304.94a6.404 6.404 0 1 1-12.796-.5 6.404 6.404 0 0 1 12.796.5Z" fill="#D0BCF5"/></g></g><path d="M202.486 62.03h-35.7v-3.028h35.7v3.028Z" fill="#fff"/><path d="M202.486 62.03h-35.7v-3.028h35.7v3.028Z" fill="#fff"/><path d="M194.037 100.162h-29.431v-3.007h29.431v3.007Z" fill="#36428E"/><path d="M339.999 76.026h-114.85l42.116 37.998v37.72h76.329V76.026h-3.595Z" fill="#947AEB"/><path d="m235.633 85.485-.509-.458.509.458Z" fill="#F7FCFE"/><path d="m235.632 85.485-.508-.458-.205-.185v-8.814h.713v9.457Z" fill="#7992C7"/><path d="m257.301 105.032-.206-.184.206.184Zm-10.826-9.764-.713-.643.713.643Zm-8.932-8.059-.79-.712.79.712Z" fill="#F7FCFE"/><path d="M333.128 151.744h-.714v-10.376h-10.113v10.376h-.712v-10.376h-10.13v10.376h-.712v-10.376h-10.11v10.376h-.714v-10.376h-10.114v10.376h-.711v-10.376h-10.131v10.376h-.711v-10.376h-10.133v10.376h-.712v-10.376h-.145v-.713h.145v-10.113h-.145v-.711h.145v-10.113h-.145v-.712h.145v-10.13h-5.849l-.791-.714h6.64V98.034h-10.11v6.998l-.205-.185-.509-.457v-6.356h-7.043l-.79-.714h7.833V87.207h-10.111v8.06l-.711-.642v-7.418h-8.222l-.79-.712h9.012V76.026h.711v10.47h10.111v-10.47h.714v10.47h10.11v-10.47h.712v10.47h10.133v-10.47h.711v10.47h10.131v-10.47h.711v10.47h10.114v-10.47h.714v10.47h10.11v-10.47h.712v10.47h10.13v-10.47h.712v10.47h10.113v-10.47h.714v10.47h10.467v.71h-10.467V97.32h10.467v.714h-10.467v10.128h10.467v.714h-10.467v10.13h10.467v.712h-10.467v10.113h10.467v.711h-10.467v10.113h10.467v.713h-10.467v10.376Zm-10.827-21.202v10.113h10.113v-10.113h-10.113Zm-10.842 0v10.113h10.13v-10.113h-10.13Zm-10.822 0v10.113h10.11v-10.113h-10.11Zm-10.828 0v10.113h10.114v-10.113h-10.114Zm-10.842 0v10.113h10.131v-10.113h-10.131Zm-10.844 0v10.113h10.133v-10.113h-10.133Zm54.178-10.824v10.113h10.113v-10.113h-10.113Zm-10.842 0v10.113h10.13v-10.113h-10.13Zm-10.822 0v10.113h10.11v-10.113h-10.11Zm-10.828 0v10.113h10.114v-10.113h-10.114Zm-10.842 0v10.113h10.131v-10.113h-10.131Zm-10.844 0v10.113h10.133v-10.113h-10.133Zm54.178-10.842v10.13h10.113v-10.13h-10.113Zm-10.842 0v10.13h10.13v-10.13h-10.13Zm-10.822 0v10.13h10.11v-10.13h-10.11Zm-10.828 0v10.13h10.114v-10.13h-10.114Zm-10.842 0v10.13h10.131v-10.13h-10.131Zm-10.844 0v10.13h10.133v-10.13h-10.133Zm54.178-10.842v10.128h10.113V98.034h-10.113Zm-10.842 0v10.128h10.13V98.034h-10.13Zm-10.822 0v10.128h10.11V98.034h-10.11Zm-10.828 0v10.128h10.114V98.034h-10.114Zm-10.842 0v10.128h10.131V98.034h-10.131Zm-10.844 0v10.128h10.133V98.034h-10.133Zm54.178-10.827V97.32h10.113V87.207h-10.113Zm-10.842 0V97.32h10.13V87.207h-10.13Zm-10.822 0V97.32h10.11V87.207h-10.11Zm-10.828 0V97.32h10.114V87.207h-10.114Zm-10.842 0V97.32h10.131V87.207h-10.131Zm-10.844 0V97.32h10.133V87.207h-10.133Zm-10.822 0V97.32h10.11V87.207h-10.11Z" fill="#DBD3F8"/><path d="m180.113 35.398-87.128 77.76v116.084h174.279V114.024l-87.151-78.626Z" fill="#F2EBFF"/><path d="M161.157 119.484V72.903h36.858v46.581h-36.858Z" fill="#fff"/><path d="M164.282 76.028h30.607v40.331h-30.607v-40.33Z" fill="#947AEB"/><path d="m81.743 123.192-4.162-4.666L180.136 27l101.463 91.539-4.187 4.64-97.3-87.78-98.369 87.793Z" fill="#6D42FF"/><path d="M167.408 113.233V79.154h27.481v-3.126h-30.607v40.331h3.126v-3.126Z" fill="#4E3C8A"/><path d="M267.263 178.112H92.985v51.13h174.278v-51.13Z" fill="#E6D9FF"/><path d="m180.114 35.398-87.129 77.759v5.401l87.129-77.757 87.15 78.623v-5.4l-87.15-78.626Z" fill="#CFC1C1"/><path d="M118.667 198.326v-46.581h36.857v46.581h-36.857Z" fill="#fff"/><path d="M121.792 154.87h30.606v40.33h-30.606v-40.33Z" fill="#947AEB"/><path d="M124.918 192.074v-34.079h27.48v-3.125h-30.606v40.33h3.126v-3.126Z" fill="#4E3C8A"/><path d="M152.398 174.199h-30.606v-3.126h30.606v3.126Z" fill="#4E3C8A"/><path d="M155.524 171.075h-36.857v-3.126h36.857v3.126ZM204.726 198.326v-46.581h36.858v46.581h-36.858Z" fill="#fff"/><path d="M207.852 154.87h30.606v40.33h-30.606v-40.33Z" fill="#947AEB"/><path d="M210.977 192.074v-34.079h27.481v-3.125h-30.606v40.33h3.125v-3.126Z" fill="#4E3C8A"/><path d="M238.458 174.199h-30.606v-3.126h30.606v3.126Z" fill="#4E3C8A"/><path d="M241.584 171.075h-36.858v-3.126h36.858v3.126Z" fill="#fff"/><path d="M305.073 229.242h-37.81v-77.497h37.81v77.497Z" fill="#E6D9FF"/><path d="M334.524 229.241h-6.843v-77.497h6.843v77.497Z" fill="#6D42FF"/><path d="M336.28 195.201h-69.017v3.125h69.017v-3.125ZM270.724 229.242h-3.462v-22.084h3.462v22.084ZM283.835 229.242h-3.458v-22.085h3.458v22.085ZM296.947 229.241h-3.46v-22.085h3.46v22.085ZM310.054 229.242h-3.46v-22.084h3.46v22.084ZM323.169 229.241h-3.459v-22.084h3.459v22.084ZM336.279 229.242h-3.461v-22.085h3.461v22.085Z" fill="#947AEB"/><path d="M269.919 217.286h-1.851v-22.085h1.851v22.085ZM283.033 217.284h-1.851v-22.085h1.851v22.085ZM296.142 217.284h-1.852v-22.085h1.852v22.085ZM309.253 217.285h-1.85v-22.084h1.85v22.084ZM322.337 217.285h-1.85v-22.084h1.85v22.084ZM335.45 217.284h-1.851V195.2h1.851v22.084Z" fill="#947AEB"/><path d="M343.594 155.305h-76.329v-3.562h76.329v3.562ZM57.093 226h300v8h-300v-8Z" fill="#6D42FF"/><path d="m46.095 341.74-7.178-10.8a1.364 1.364 0 0 1-.206-.998l.741-3.846a.8.8 0 0 1 .412-.558l6.443-3.411a.821.821 0 0 0 .257-1.235l-4.16-5.206a.842.842 0 0 1 .26-1.253l5.877-3.09a.835.835 0 0 0 .26-1.253l-4.157-5.176a.839.839 0 0 1 .26-1.253l5.877-3.09a.836.836 0 0 0 .26-1.253l-4.54-5.656a.86.86 0 0 1-.16-.688l.84-4.039c-8.867-7.275-11.612-19.594-6.658-29.859 4.956-10.266 16.338-15.834 27.585-13.495 11.25 2.339 19.467 11.982 19.919 23.373.453 11.389-6.978 21.593-18.008 24.73l-8.452 40.64a1.704 1.704 0 0 1-.508.976l-11.166 7.239a2.73 2.73 0 0 1-3.798-.799Z" fill="#561FBE"/><path d="m95.062 348.65-12.597-7.685a1.559 1.559 0 0 1-.693-.931l-1.085-4.323a.911.911 0 0 1 .155-.774l5.006-6.616a.937.937 0 0 0 .164-.775.936.936 0 0 0-.493-.622l-6.795-3.369a.955.955 0 0 1-.333-1.417l4.574-6.012a.951.951 0 0 0-.334-1.418l-6.776-3.339a.957.957 0 0 1-.335-1.418l4.575-6.012a.95.95 0 0 0-.334-1.418l-7.402-3.649a.986.986 0 0 1-.497-.632l-1.077-4.571c-12.64-3.238-21.396-14.622-21.223-27.592.174-12.97 9.234-24.184 21.96-27.182 12.726-2.997 25.838 2.996 31.782 14.525 5.944 11.53 3.188 25.625-6.68 34.166l10.828 45.976c.121.412.102.852-.054 1.253l-8.034 12.834a3.099 3.099 0 0 1-1.942 1.398 3.104 3.104 0 0 1-2.36-.395v-.002Z" fill="#561FBE"/><path d="m49.013 338.762-7.038-10.588a1.337 1.337 0 0 1-.202-.979l.726-3.771a.788.788 0 0 1 .403-.548l6.319-3.345a.803.803 0 0 0 .252-1.21l-4.08-5.104a.825.825 0 0 1 .255-1.229l5.762-3.029a.82.82 0 0 0 .257-1.229l-4.077-5.075a.822.822 0 0 1 .254-1.229l5.763-3.029a.82.82 0 0 0 .256-1.23l-4.452-5.545a.846.846 0 0 1-.159-.674l.825-3.961c-8.694-7.132-11.386-19.211-6.527-29.276 4.859-10.066 16.018-15.524 27.046-13.23 11.03 2.293 19.087 11.748 19.53 22.916.444 11.167-6.841 21.171-17.657 24.247l-8.287 39.847c-.056.365-.23.702-.498.958l-10.947 7.098a2.677 2.677 0 0 1-3.724-.785Z" fill="#6A43B5"/><g opacity=".7" filter="url(#a)"><path d="M71.556 292.023c-12.396-3.176-20.98-14.338-20.811-27.055.171-12.717 5.3-16.438 17.778-19.376 8.32-1.959 9.33 13.517 3.034 46.43l-.001.001Z" fill="#814DE5"/></g><path d="m97.024 345.538-12.35-7.536a1.523 1.523 0 0 1-.68-.913l-1.065-4.238a.898.898 0 0 1 .154-.759l4.907-6.488a.914.914 0 0 0-.322-1.368l-6.662-3.304a.935.935 0 0 1-.327-1.39l4.484-5.894a.931.931 0 0 0-.326-1.391l-6.645-3.274a.933.933 0 0 1-.327-1.39l4.484-5.895a.929.929 0 0 0-.327-1.39l-7.257-3.578a.959.959 0 0 1-.488-.62l-1.055-4.48c-12.395-3.175-20.981-14.338-20.811-27.055.17-12.717 9.054-23.713 21.531-26.652 12.478-2.938 25.335 2.938 31.162 14.242 5.829 11.305 3.126 25.125-6.548 33.499l10.616 45.079c.118.404.1.835-.053 1.228l-7.878 12.585a3.037 3.037 0 0 1-1.904 1.37 3.037 3.037 0 0 1-2.313-.389v.001Z" fill="#A884ED"/><mask id="b" style="mask-type:alpha" maskUnits="userSpaceOnUse" x="70" y="246" width="16" height="16"><path d="M70.508 255.779c.935 3.963 4.932 6.413 8.929 5.474 2.927-.69 5.155-3.059 5.643-6.006a7.328 7.328 0 0 0-3.411-7.453 7.479 7.479 0 0 0-8.255.302 7.373 7.373 0 0 0-2.906 7.683Z" fill="#fff"/></mask><g mask="url(#b)"><path d="M70.508 255.779c.935 3.963 4.932 6.413 8.929 5.474 2.927-.69 5.155-3.059 5.643-6.006a7.328 7.328 0 0 0-3.411-7.453 7.479 7.479 0 0 0-8.255.302 7.373 7.373 0 0 0-2.906 7.683Z" fill="#BEA3F2"/><path fill-rule="evenodd" clip-rule="evenodd" d="M66.62 256.695c.935 3.963 4.932 6.413 8.929 5.473 2.928-.689 5.156-3.059 5.644-6.006a7.329 7.329 0 0 0-3.412-7.453 7.48 7.48 0 0 0-8.254.302 7.375 7.375 0 0 0-2.907 7.684Z" fill="#814DE5"/></g><path d="M98.987 325.469a1.513 1.513 0 0 1 2.081-.5c.707.438.924 1.372.481 2.085a1.513 1.513 0 0 1-2.08.5 1.514 1.514 0 0 1-.483-2.085Zm-7.111-38.274a1.506 1.506 0 0 1 1.232 1.14l7.607 32.3a1.505 1.505 0 0 1-.429 1.462c-.398.376-.968.51-1.492.351a1.502 1.502 0 0 1-1.036-1.116l-7.607-32.301a1.497 1.497 0 0 1 .188-1.139 1.53 1.53 0 0 1 1.538-.697h-.001Z" fill="#C0A9ED"/><path d="M68.065 223.358c6.464-1.523 13.234 3.737 15.12 11.748 1.887 8.011-1.824 15.739-8.288 17.262-6.464 1.522-13.234-3.738-15.12-11.749-1.887-8.011 1.824-15.739 8.288-17.261Z" stroke="#44260B" stroke-width="2"/><path d="M70.646 256.657c-.72-3.054-.347-5.271 1.988-8.465 5.126-7.013 11.07-12.568 1.346-10.278-12.477 2.939-21.36 13.935-21.53 26.652-.172 12.718 21.092 4.388 18.196-7.909Z" fill="#A884ED"/><path d="M53.196 226h20v8h-20v-8Z" fill="#6D42FF"/><defs><filter id="a" x="40.22" y="234.905" width="45.928" height="67.639" filterUnits="userSpaceOnUse" color-interpolation-filters="sRGB"><feFlood flood-opacity="0" result="BackgroundImageFix"/><feBlend in="SourceGraphic" in2="BackgroundImageFix" result="shape"/><feGaussianBlur stdDeviation="5.261" result="effect1_foregroundBlur_3376_25784"/></filter></defs></svg>