<svg xmlns="http://www.w3.org/2000/svg" width="182" height="153" viewBox="0 0 182 153" fill="none">
<path d="M0.25 152.751C0.25 152.702 40.8834 152.66 90.9958 152.66C141.108 152.66 181.75 152.702 181.75 152.751C181.75 152.8 141.138 152.842 90.9958 152.842C40.8541 152.842 0.25 152.8 0.25 152.751Z" fill="white"/>
<path d="M141.829 0.0957031H69.843C67.8953 0.0957031 66.3164 1.67612 66.3164 3.62566V110.1C66.3164 112.049 67.8953 113.63 69.843 113.63H141.829C143.777 113.63 145.356 112.049 145.356 110.1V3.62566C145.356 1.67612 143.777 0.0957031 141.829 0.0957031Z" fill="#263238"/>
<path d="M141.828 113.631H142.072C142.174 113.625 142.275 113.612 142.376 113.593C142.516 113.572 142.654 113.542 142.79 113.502C143.175 113.388 143.537 113.211 143.864 112.979C144.315 112.655 144.684 112.23 144.94 111.737C145.099 111.441 145.217 111.124 145.289 110.795C145.346 110.429 145.367 110.059 145.352 109.689C145.352 108.912 145.352 108.057 145.352 107.136C145.352 105.287 145.352 103.156 145.352 100.76C145.352 91.1607 145.352 77.278 145.327 60.1236C145.327 51.5429 145.327 42.1459 145.327 32.0619C145.327 27.0181 145.327 21.8069 145.327 16.4282C145.327 13.7377 145.327 11.0124 145.327 8.25212V4.0664C145.343 3.71661 145.324 3.36613 145.271 3.01998C145.215 2.67954 145.105 2.35003 144.947 2.04331C144.627 1.42528 144.131 0.915691 143.522 0.578309C143.214 0.418999 142.886 0.301688 142.546 0.2295C142.201 0.174244 141.851 0.152053 141.501 0.163226H69.8529C69.0477 0.159493 68.2668 0.438933 67.6464 0.95277C67.0261 1.46661 66.6057 2.1822 66.4587 2.97463C66.3973 3.37144 66.3762 3.77347 66.396 4.17454V17.4642C66.396 23.8404 66.396 30.119 66.396 36.2999C66.396 48.6478 66.396 60.5526 66.396 71.8994C66.396 83.2462 66.396 94.0209 66.396 104.108V107.858C66.396 108.479 66.396 109.096 66.396 109.71C66.3871 110.013 66.401 110.316 66.4378 110.617C66.4814 110.913 66.5622 111.203 66.6782 111.479C66.9154 112.024 67.288 112.5 67.7607 112.861C68.2334 113.222 68.7905 113.456 69.379 113.54C69.6717 113.573 69.9663 113.585 70.2606 113.575H86.364L126.959 113.6H137.995H140.867H141.846H140.867H137.995H126.959L86.364 113.624H72.9091H70.2606C69.9604 113.634 69.6599 113.621 69.3616 113.586C68.5938 113.481 67.881 113.129 67.3309 112.582C66.7808 112.036 66.4233 111.326 66.3123 110.558C66.2724 110.252 66.2584 109.942 66.2705 109.634C66.2705 109.02 66.2705 108.402 66.2705 107.781V104.101C66.2705 94.0139 66.2705 83.2357 66.2705 71.8924C66.2705 60.5491 66.2705 48.6408 66.2705 36.2929C66.2705 30.1236 66.2705 23.8451 66.2705 17.4572V4.18849C66.2529 3.77688 66.275 3.36452 66.3367 2.95719C66.4828 2.13145 66.9086 1.38129 67.5425 0.83294C68.1954 0.300431 69.0107 0.00749364 69.8529 0.00277305H141.452C141.812 -0.00854823 142.173 0.0148134 142.529 0.0725352C142.883 0.141243 143.225 0.258627 143.547 0.421345C144.181 0.772387 144.698 1.30408 145.031 1.94913C145.199 2.26854 145.317 2.61214 145.38 2.96765C145.433 3.31374 145.453 3.66418 145.439 4.01408V8.1998C145.439 10.9624 145.439 13.6877 145.439 16.3759C145.439 21.7476 145.439 26.9588 145.439 32.0095C145.439 42.0936 145.439 51.4906 145.439 60.0713C145.439 77.2257 145.421 91.1153 145.414 100.708C145.414 103.104 145.414 105.242 145.414 107.084C145.414 108.005 145.414 108.859 145.414 109.637C145.427 110.009 145.404 110.382 145.345 110.75C145.271 111.08 145.154 111.399 144.996 111.699C144.734 112.193 144.36 112.621 143.905 112.947C143.575 113.179 143.207 113.354 142.818 113.464C142.682 113.503 142.544 113.534 142.403 113.554C142.302 113.571 142.2 113.582 142.097 113.586L141.828 113.631Z" fill="#263238"/>
<path d="M142.572 8.19531H68.5156V103.009H142.572V8.19531Z" fill="white"/>
<path d="M142.572 103.012C142.572 102.385 142.54 64.4829 142.499 8.19546L142.572 8.26871L68.5262 8.27569L68.6063 8.19546C68.6063 43.3555 68.6063 76.0005 68.6063 103.012L68.5401 102.946L142.596 103.012L68.5262 103.079H68.46V103.012C68.46 76.0005 68.46 43.3659 68.46 8.19546V8.11523H68.5262H142.575H142.645V8.185C142.6 64.4829 142.572 102.385 142.572 103.012Z" fill="#263238"/>
<path d="M108.867 107.918C108.867 108.519 108.689 109.107 108.356 109.606C108.022 110.106 107.548 110.495 106.993 110.725C106.438 110.955 105.828 111.015 105.239 110.898C104.65 110.78 104.109 110.49 103.685 110.065C103.26 109.64 102.971 109.098 102.855 108.509C102.738 107.919 102.799 107.308 103.029 106.753C103.259 106.198 103.649 105.724 104.148 105.39C104.648 105.057 105.235 104.879 105.836 104.88C106.64 104.881 107.411 105.201 107.98 105.771C108.548 106.341 108.867 107.113 108.867 107.918Z" fill="#455A64"/>
<path d="M113.616 4.97206H97.4703C97.1718 4.97206 96.8855 4.85336 96.6744 4.64207C96.4633 4.43078 96.3447 4.14421 96.3447 3.8454C96.3447 3.5466 96.4633 3.26003 96.6744 3.04874C96.8855 2.83745 97.1718 2.71875 97.4703 2.71875H113.616C113.914 2.71875 114.2 2.83745 114.411 3.04874C114.623 3.26003 114.741 3.5466 114.741 3.8454C114.741 4.14421 114.623 4.43078 114.411 4.64207C114.2 4.85336 113.914 4.97206 113.616 4.97206Z" fill="#455A64"/>
<path d="M141.774 15.4255C141.774 15.4569 125.423 15.4849 105.26 15.4849C85.0965 15.4849 68.7422 15.4569 68.7422 15.4255C68.7422 15.3941 85.0895 15.3662 105.26 15.3662C125.43 15.3662 141.774 15.3941 141.774 15.4255Z" fill="#263238"/>
<path d="M118.927 12.2537C118.927 12.2851 113.351 12.313 106.472 12.313C99.5929 12.313 94.0137 12.2851 94.0137 12.2537C94.0137 12.2223 99.5894 12.1943 106.472 12.1943C113.354 12.1943 118.927 12.2223 118.927 12.2537Z" fill="#455A64"/>
<path d="M72.2789 11.8357C72.2789 11.9848 72.2347 12.1305 72.152 12.2545C72.0693 12.3784 71.9518 12.475 71.8142 12.5321C71.6767 12.5891 71.5253 12.604 71.3793 12.575C71.2333 12.5459 71.0992 12.4741 70.9939 12.3687C70.8886 12.2633 70.8169 12.129 70.7879 11.9828C70.7589 11.8366 70.7738 11.685 70.8307 11.5473C70.8877 11.4096 70.9842 11.2919 71.108 11.2091C71.2318 11.1262 71.3773 11.082 71.5262 11.082C71.7258 11.082 71.9173 11.1614 72.0584 11.3028C72.1996 11.4441 72.2789 11.6358 72.2789 11.8357Z" fill="#E0E0E0"/>
<path d="M74.8219 11.8357C74.8219 11.9848 74.7777 12.1305 74.695 12.2545C74.6123 12.3784 74.4947 12.475 74.3572 12.5321C74.2196 12.5891 74.0683 12.604 73.9223 12.575C73.7763 12.5459 73.6421 12.4741 73.5369 12.3687C73.4316 12.2633 73.3599 12.129 73.3309 11.9828C73.3018 11.8366 73.3167 11.685 73.3737 11.5473C73.4307 11.4096 73.5272 11.2919 73.6509 11.2091C73.7747 11.1262 73.9203 11.082 74.0691 11.082C74.2688 11.082 74.4602 11.1614 74.6014 11.3028C74.7425 11.4441 74.8219 11.6358 74.8219 11.8357Z" fill="#E0E0E0"/>
<path d="M77.3677 11.8357C77.3677 11.9848 77.3236 12.1305 77.2409 12.2545C77.1582 12.3784 77.0406 12.475 76.9031 12.5321C76.7655 12.5891 76.6142 12.604 76.4682 12.575C76.3222 12.5459 76.188 12.4741 76.0828 12.3687C75.9775 12.2633 75.9058 12.129 75.8768 11.9828C75.8477 11.8366 75.8626 11.685 75.9196 11.5473C75.9766 11.4096 76.0731 11.2919 76.1968 11.2091C76.3206 11.1262 76.4662 11.082 76.615 11.082C76.8147 11.082 77.0061 11.1614 77.1473 11.3028C77.2884 11.4441 77.3677 11.6358 77.3677 11.8357Z" fill="#E0E0E0"/>
<path d="M91.8952 24.5525C91.8952 24.5839 88.0306 24.6118 83.2633 24.6118C78.4961 24.6118 74.6279 24.5839 74.6279 24.5525C74.6279 24.5211 78.4926 24.4932 83.2633 24.4932C88.034 24.4932 91.8952 24.5281 91.8952 24.5525Z" fill="#263238"/>
<path d="M137.811 24.5525C137.811 24.5839 133.751 24.6118 128.75 24.6118C123.749 24.6118 119.689 24.5839 119.689 24.5525C119.689 24.5211 123.746 24.4932 128.75 24.4932C133.754 24.4932 137.811 24.5281 137.811 24.5525Z" fill="#263238"/>
<path d="M104.785 35.0924C104.785 35.1482 98.0039 35.1901 89.6403 35.1901C81.2767 35.1901 74.4883 35.1482 74.4883 35.0924C74.4883 35.0366 81.2697 34.9912 89.6403 34.9912C98.0108 34.9912 104.785 35.0366 104.785 35.0924Z" fill="#263238"/>
<path d="M115.145 34.7926C115.145 34.8484 113.305 34.8903 111.04 34.8903C108.775 34.8903 106.935 34.8484 106.935 34.7926C106.935 34.7368 108.771 34.6914 111.04 34.6914C113.308 34.6914 115.145 34.7368 115.145 34.7926Z" fill="#263238"/>
<path d="M135.231 34.6197C135.231 34.6721 131.436 34.7174 126.76 34.7174C122.083 34.7174 118.288 34.6721 118.288 34.6197C118.288 34.5674 122.08 34.5186 126.76 34.5186C131.44 34.5186 135.231 34.5639 135.231 34.6197Z" fill="#263238"/>
<path d="M135.058 41.4346C135.058 41.4904 130.64 41.5358 125.189 41.5358C119.739 41.5358 115.32 41.4904 115.32 41.4346C115.32 41.3788 119.739 41.3369 125.189 41.3369C130.64 41.3369 135.058 41.3823 135.058 41.4346Z" fill="#263238"/>
<path d="M104.419 73.2432C104.419 73.299 97.6338 73.3444 89.2702 73.3444C80.9066 73.3444 74.1182 73.299 74.1182 73.2432C74.1182 73.1874 80.8996 73.1455 89.2702 73.1455C97.6407 73.1455 104.419 73.1909 104.419 73.2432Z" fill="#263238"/>
<path d="M114.762 72.9434C114.762 72.9992 112.926 73.0446 110.657 73.0446C108.388 73.0446 106.552 72.9992 106.552 72.9434C106.552 72.8876 108.392 72.8457 110.657 72.8457C112.922 72.8457 114.762 72.8911 114.762 72.9434Z" fill="#263238"/>
<path d="M134.848 72.7678C134.848 72.8236 131.053 72.8689 126.376 72.8689C121.699 72.8689 117.904 72.8236 117.904 72.7678C117.904 72.7119 121.696 72.6875 126.372 72.6875C131.049 72.6875 134.848 72.7119 134.848 72.7678Z" fill="#263238"/>
<path d="M134.675 76.2662C134.675 76.3186 121.067 76.3639 104.284 76.3639C87.5008 76.3639 73.8926 76.3186 73.8926 76.2662C73.8926 76.2139 87.4834 76.165 104.284 76.165C121.084 76.165 134.675 76.2104 134.675 76.2662Z" fill="#263238"/>
<path d="M102.185 79.9375C102.185 79.9934 95.8919 80.0387 88.1277 80.0387C80.3635 80.0387 74.0664 79.9934 74.0664 79.9375C74.0664 79.8817 80.36 79.8398 88.1277 79.8398C95.8953 79.8398 102.185 79.8817 102.185 79.9375Z" fill="#263238"/>
<path d="M112.49 79.9346C111.215 80.0354 109.935 80.0692 108.657 80.0358C107.378 80.0691 106.098 80.0353 104.823 79.9346C106.098 79.8362 107.378 79.8036 108.657 79.8369C109.935 79.8035 111.215 79.8361 112.49 79.9346Z" fill="#263238"/>
<path d="M134.674 79.5856C134.674 79.6414 130.255 79.6833 124.805 79.6833C119.354 79.6833 114.936 79.6414 114.936 79.5856C114.936 79.5297 119.354 79.4844 124.805 79.4844C130.255 79.4844 134.674 79.5297 134.674 79.5856Z" fill="#263238"/>
<path d="M135.059 45.4805C135.059 45.5363 130.389 45.5817 124.629 45.5817C118.868 45.5817 114.202 45.5363 114.202 45.4805C114.202 45.4247 118.868 45.3828 124.629 45.3828C130.389 45.3828 135.059 45.4072 135.059 45.4805Z" fill="#263238"/>
<path d="M135.059 49.1617C135.059 49.2176 130.389 49.2594 124.629 49.2594C118.868 49.2594 114.202 49.2176 114.202 49.1617C114.202 49.1059 118.868 49.0605 124.629 49.0605C130.389 49.0605 135.059 49.1059 135.059 49.1617Z" fill="#263238"/>
<path d="M134.309 65.2676C134.309 65.3235 129.639 65.3688 123.882 65.3688C118.125 65.3688 113.452 65.3235 113.452 65.2676C113.452 65.2118 118.122 65.1699 123.882 65.1699C129.643 65.1699 134.309 65.2153 134.309 65.2676Z" fill="#263238"/>
<path d="M134.309 69.4449C134.309 69.4973 129.639 69.5426 123.882 69.5426C118.125 69.5426 113.452 69.4973 113.452 69.4449C113.452 69.3926 118.122 69.3438 123.882 69.3438C129.643 69.3438 134.309 69.3891 134.309 69.4449Z" fill="#263238"/>
<path d="M128.246 52.8649C128.246 52.9172 125.11 52.9626 121.224 52.9626C117.338 52.9626 114.202 52.9172 114.202 52.8649C114.202 52.8125 117.338 52.7637 121.224 52.7637C125.11 52.7637 128.246 52.8055 128.246 52.8649Z" fill="#263238"/>
<path d="M135.212 52.8056C134.342 52.9066 133.466 52.9404 132.591 52.9068C131.716 52.9403 130.84 52.9065 129.971 52.8056C130.841 52.7092 131.717 52.6765 132.591 52.7079C133.466 52.6764 134.342 52.709 135.212 52.8056Z" fill="#263238"/>
<path d="M135.212 56.9235C135.212 56.9793 132.075 57.0212 128.218 57.0212C124.36 57.0212 121.224 56.9793 121.224 56.9235C121.224 56.8676 124.36 56.8223 128.218 56.8223C132.075 56.8223 135.212 56.8676 135.212 56.9235Z" fill="#263238"/>
<path d="M128.246 61.067C128.246 61.1228 125.11 61.1647 121.224 61.1647C117.338 61.1647 114.202 61.1228 114.202 61.067C114.202 61.0112 117.338 60.9658 121.224 60.9658C125.11 60.9658 128.246 61.0112 128.246 61.067Z" fill="#263238"/>
<path d="M135.212 61.0229C134.342 61.1195 133.466 61.1522 132.591 61.1206C131.717 61.152 130.841 61.1194 129.971 61.0229C130.84 60.9221 131.716 60.8882 132.591 60.9217C133.466 60.8881 134.342 60.922 135.212 61.0229Z" fill="#263238"/>
<path d="M118.445 56.8285C117.806 56.9248 117.16 56.9576 116.515 56.9262C115.869 56.9576 115.223 56.9248 114.584 56.8285C115.222 56.7278 115.869 56.6939 116.515 56.7273C117.16 56.6939 117.807 56.7278 118.445 56.8285Z" fill="#263238"/>
<path d="M100.456 95.5504C100.516 95.5415 100.576 95.5357 100.637 95.533L100.864 95.5156L101.17 95.4667C101.849 95.3359 102.485 95.0387 103.021 94.6017C103.438 94.2535 103.782 93.8256 104.033 93.3429C104.284 92.8602 104.436 92.3324 104.481 91.7903C104.502 91.4763 104.481 91.145 104.481 90.8031C104.481 90.6322 104.481 90.4543 104.481 90.2834C104.481 90.1962 104.481 90.109 104.481 90.0183L104.442 89.7567C104.414 89.5774 104.373 89.4003 104.32 89.2265C104.26 89.0496 104.191 88.876 104.111 88.7068C103.948 88.3541 103.732 88.0283 103.47 87.7406C102.913 87.1176 102.176 86.6836 101.362 86.4988C100.926 86.4119 100.481 86.3779 100.038 86.3977H98.6437H92.5905H78.7209C77.8282 86.3969 76.961 86.6953 76.2574 87.2453C75.5538 87.7953 75.0544 88.5652 74.8388 89.4323C74.7235 90.0001 74.6813 90.5804 74.7134 91.1589C74.6901 91.7245 74.7753 92.2893 74.9643 92.8228C75.1559 93.3428 75.4525 93.8177 75.8355 94.218C76.2055 94.607 76.6503 94.917 77.1432 95.1292C77.6362 95.3414 78.1669 95.4515 78.7035 95.4528L90.0327 95.4737L97.6679 95.5016L99.7588 95.5191H100.299H100.484H100.299H99.7588H97.6679L90.0327 95.547L78.7035 95.5679C78.1442 95.567 77.5908 95.4532 77.0764 95.2333C76.562 95.0133 76.0973 94.6917 75.71 94.2878C75.3188 93.8952 75.0085 93.4294 74.797 92.9169C74.5994 92.3648 74.5095 91.7799 74.5322 91.1938C74.4992 90.6012 74.5425 90.0069 74.6611 89.4253C74.8866 88.5192 75.4083 87.7145 76.1434 87.1393C76.8784 86.5641 77.7845 86.2515 78.7174 86.2512H92.5871H98.6402H100.034C100.489 86.2338 100.944 86.2713 101.39 86.3628C102.232 86.5567 102.992 87.0092 103.564 87.6569C103.83 87.9554 104.051 88.2916 104.219 88.6545C104.301 88.8288 104.371 89.0082 104.428 89.1917C104.48 89.3707 104.522 89.5523 104.554 89.7358C104.554 89.8265 104.578 89.9172 104.592 90.0079V90.2799C104.592 90.4578 104.592 90.6287 104.592 90.8031C104.592 91.152 104.592 91.4729 104.571 91.8007C104.523 92.3543 104.364 92.8925 104.103 93.3828C103.842 93.8732 103.484 94.3056 103.052 94.654C102.508 95.0954 101.858 95.3875 101.167 95.5016L100.857 95.5435H100.627L100.456 95.5504Z" fill="#263238"/>
<path d="M133.948 86.1309H112.199C109.938 86.1309 108.104 87.9658 108.104 90.2294V91.2584C108.104 93.5219 109.938 95.3569 112.199 95.3569H133.948C136.209 95.3569 138.043 93.5219 138.043 91.2584V90.2294C138.043 87.9658 136.209 86.1309 133.948 86.1309Z" fill="#6F10A2"/>
<path d="M118.979 91.791L119.178 91.3515C119.421 91.5218 119.711 91.6143 120.008 91.6166C120.356 91.6166 120.495 91.5015 120.495 91.3445C120.495 90.8736 119.032 91.198 119.032 90.2597C119.032 89.8342 119.38 89.4749 120.077 89.4749C120.384 89.4691 120.686 89.5462 120.952 89.6981L120.799 90.1272C120.587 90.0039 120.347 89.9366 120.102 89.9319C119.753 89.9319 119.624 90.0609 119.624 90.2179C119.624 90.6818 121.088 90.3644 121.088 91.2887C121.088 91.7108 120.739 92.0701 120.018 92.0701C119.651 92.0861 119.289 91.9887 118.979 91.791Z" fill="white"/>
<path d="M123.785 89.5234V92.0453H123.203V90.9989H122.057V92.0453H121.475V89.5234H122.057V90.5175H123.203V89.5234H123.785Z" fill="white"/>
<path d="M126.024 91.5047H124.857L124.634 92.0453H124.034L125.156 89.5234H125.735L126.86 92.0453H126.247L126.024 91.5047ZM125.843 91.0617L125.442 90.0955L125.041 91.0617H125.843Z" fill="white"/>
<path d="M128.743 92.0443L128.259 91.3467H127.722V92.0443H127.137V89.5225H128.227C128.9 89.5225 129.322 89.8713 129.322 90.4363C129.33 90.6063 129.284 90.7744 129.192 90.9171C129.099 91.0597 128.964 91.1698 128.806 91.2316L129.37 92.0443H128.743ZM128.196 89.9968H127.722V90.8758H128.196C128.545 90.8758 128.733 90.7119 128.733 90.4363C128.733 90.1608 128.552 89.9968 128.196 89.9968Z" fill="white"/>
<path d="M131.733 91.5744V92.0453H129.781V89.5234H131.687V89.9908H130.363V90.5385H131.531V90.9919H130.363V91.5744H131.733Z" fill="white"/>
<path d="M117.453 92.2201H114.763C114.717 92.2201 114.673 92.2017 114.64 92.169C114.607 92.1363 114.589 92.092 114.589 92.0457V89.9947C114.589 89.9485 114.607 89.9041 114.64 89.8714C114.673 89.8387 114.717 89.8203 114.763 89.8203H115.359C115.405 89.8203 115.45 89.8387 115.482 89.8714C115.515 89.9041 115.533 89.9485 115.533 89.9947C115.533 90.041 115.515 90.0853 115.482 90.118C115.45 90.1507 115.405 90.1691 115.359 90.1691H114.937V91.8713H117.279V90.1691H116.847C116.801 90.1691 116.757 90.1507 116.724 90.118C116.691 90.0853 116.673 90.041 116.673 89.9947C116.673 89.9485 116.691 89.9041 116.724 89.8714C116.757 89.8387 116.801 89.8203 116.847 89.8203H117.453C117.5 89.8203 117.544 89.8387 117.577 89.8714C117.609 89.9041 117.628 89.9485 117.628 89.9947V92.0457C117.627 92.0917 117.608 92.1355 117.576 92.168C117.543 92.2006 117.499 92.2192 117.453 92.2201Z" fill="white"/>
<path d="M116.107 91.3778C116.061 91.3778 116.016 91.3594 115.984 91.3267C115.951 91.294 115.933 91.2497 115.933 91.2034V88.692C115.933 88.6457 115.951 88.6014 115.984 88.5687C116.016 88.536 116.061 88.5176 116.107 88.5176C116.153 88.5176 116.198 88.536 116.23 88.5687C116.263 88.6014 116.282 88.6457 116.282 88.692V91.2034C116.282 91.2497 116.263 91.294 116.23 91.3267C116.198 91.3594 116.153 91.3778 116.107 91.3778Z" fill="white"/>
<path d="M116.615 89.54C116.589 89.5404 116.563 89.5346 116.539 89.5231C116.516 89.5116 116.495 89.4946 116.479 89.4737L116.089 88.9677L115.65 89.4807C115.619 89.5153 115.576 89.5365 115.53 89.5397C115.483 89.543 115.438 89.5281 115.402 89.4981C115.385 89.4834 115.371 89.4653 115.36 89.445C115.35 89.4246 115.344 89.4024 115.342 89.3797C115.341 89.3569 115.344 89.334 115.351 89.3124C115.358 89.2908 115.37 89.2709 115.385 89.2538L115.963 88.5769C115.981 88.558 116.002 88.5429 116.025 88.5327C116.048 88.5225 116.074 88.5173 116.099 88.5176C116.125 88.5175 116.15 88.5234 116.173 88.5349C116.196 88.5464 116.216 88.5632 116.232 88.5839L116.754 89.2608C116.775 89.2864 116.788 89.3174 116.792 89.3502C116.796 89.383 116.79 89.4161 116.775 89.4456C116.76 89.4751 116.737 89.4997 116.709 89.5165C116.681 89.5332 116.648 89.5414 116.615 89.54Z" fill="white"/>
<path d="M82.7236 90.747C82.7384 90.502 82.8248 90.2668 82.9721 90.0705C83.1193 89.8743 83.3209 89.7257 83.5519 89.6432C83.7828 89.5607 84.0329 89.5479 84.271 89.6065C84.5091 89.6651 84.7248 89.7924 84.8912 89.9726L84.5427 90.2866C84.4735 90.2022 84.3862 90.1345 84.2872 90.0886C84.1883 90.0427 84.0802 90.0198 83.9712 90.0215C83.8716 90.0146 83.7715 90.0283 83.6774 90.0617C83.5833 90.0951 83.497 90.1475 83.424 90.2157C83.3509 90.284 83.2927 90.3665 83.2529 90.4582C83.2131 90.5499 83.1925 90.6488 83.1925 90.7488C83.1925 90.8487 83.2131 90.9476 83.2529 91.0393C83.2927 91.131 83.3509 91.2135 83.424 91.2818C83.497 91.35 83.5833 91.4024 83.6774 91.4358C83.7715 91.4693 83.8716 91.4829 83.9712 91.476C84.0806 91.4778 84.189 91.4545 84.288 91.408C84.3871 91.3614 84.4742 91.2928 84.5427 91.2074L84.8912 91.5179C84.7257 91.6996 84.5103 91.8284 84.272 91.888C84.0336 91.9477 83.783 91.9356 83.5515 91.8533C83.32 91.771 83.118 91.6221 82.9707 91.4253C82.8234 91.2285 82.7375 90.9925 82.7236 90.747Z" fill="#263238"/>
<path d="M86.698 91.4017H85.6526L85.4504 91.89H84.9033L85.9174 89.6123H86.4366L87.4542 91.89H86.9001L86.698 91.4017ZM86.5307 91.0006L86.1823 90.1285L85.8338 91.0006H86.5307Z" fill="#263238"/>
<path d="M89.7833 89.6123V91.89H89.3512L88.2151 90.4948V91.89H87.6924V89.6123H88.128L89.2571 91.0075V89.6123H89.7833Z" fill="#263238"/>
<path d="M90.1699 90.7457C90.1856 90.5007 90.2727 90.2658 90.4203 90.0698C90.568 89.8739 90.7698 89.7256 91.0008 89.6432C91.2318 89.5608 91.4818 89.548 91.72 89.6063C91.9582 89.6646 92.1741 89.7915 92.341 89.9713L91.9925 90.2852C91.9228 90.2014 91.8354 90.1342 91.7365 90.0883C91.6377 90.0425 91.5299 90.0192 91.421 90.0202C91.3213 90.0132 91.2213 90.0269 91.1272 90.0603C91.033 90.0938 90.9468 90.1462 90.8737 90.2144C90.8007 90.2826 90.7425 90.3651 90.7027 90.4568C90.6628 90.5485 90.6423 90.6474 90.6423 90.7474C90.6423 90.8474 90.6628 90.9463 90.7027 91.038C90.7425 91.1297 90.8007 91.2122 90.8737 91.2804C90.9468 91.3486 91.033 91.4011 91.1272 91.4345C91.2213 91.4679 91.3213 91.4816 91.421 91.4747C91.5303 91.4757 91.6384 91.4521 91.7373 91.4056C91.8363 91.3591 91.9235 91.2909 91.9925 91.2061L92.341 91.5165C92.175 91.6978 91.9593 91.8262 91.721 91.8856C91.4826 91.945 91.232 91.9328 91.0005 91.8506C90.7689 91.7684 90.5667 91.6198 90.419 91.4233C90.2713 91.2268 90.1847 90.9911 90.1699 90.7457Z" fill="#263238"/>
<path d="M94.4553 91.468V91.89H92.7129V89.6123H94.4309V90.0344H93.2356V90.5297H94.2811V90.9378H93.2356V91.468H94.4553Z" fill="#263238"/>
<path d="M94.875 89.6123H95.4012V91.461H96.5442V91.89H94.875V89.6123Z" fill="#263238"/>
<path d="M134.23 92.2539L135.098 97.3988L136.269 96.5896L137.572 98.2604L138.97 97.2558L137.677 95.6199L138.789 94.7514L134.23 92.2539Z" fill="#263238"/>
<path d="M103.689 48.2305H79.2725V68.6192H103.689V48.2305Z" fill="#F5F5F5"/>
<path d="M79.2723 68.6174C79.2723 68.0433 79.2723 60.4574 79.2471 48.2286V48.2002H103.724V48.2317C103.724 55.6157 103.724 62.5834 103.724 68.6205V68.6489H103.695L79.2755 68.6205L103.695 68.5921L103.664 68.6205C103.664 62.5834 103.664 55.6157 103.664 48.2317L103.698 48.2664H79.2818L79.3102 48.238C79.2849 60.4574 79.2755 68.0433 79.2723 68.6174Z" fill="#263238"/>
<path d="M79.2725 57.151C79.2725 57.151 84.7229 57.1731 91.4508 57.1731C98.1788 57.1731 103.629 57.1731 103.629 57.151C103.629 57.1289 98.1756 57.1289 91.4508 57.1289C84.7261 57.1289 79.2725 57.1384 79.2725 57.151Z" fill="#E0E0E0"/>
<path d="M79.2725 57.8707C79.2725 57.8707 84.7229 57.8928 91.4508 57.8928C98.1788 57.8928 103.629 57.8928 103.629 57.8707C103.629 57.8486 98.1756 57.8486 91.4508 57.8486C84.7261 57.8486 79.2725 57.8581 79.2725 57.8707Z" fill="#E0E0E0"/>
<path d="M79.2725 58.5943C79.2725 58.5943 84.7229 58.6164 91.4508 58.6164C98.1788 58.6164 103.629 58.6164 103.629 58.5943C103.629 58.5723 98.1756 58.5723 91.4508 58.5723C84.7261 58.5723 79.2725 58.5817 79.2725 58.5943Z" fill="#E0E0E0"/>
<path d="M79.2725 59.3179C79.2725 59.3179 84.7229 59.34 91.4508 59.34C98.1788 59.34 103.629 59.34 103.629 59.3179C103.629 59.2958 98.1756 59.299 91.4508 59.299C84.7261 59.299 79.2725 59.299 79.2725 59.3179Z" fill="#E0E0E0"/>
<path d="M79.2725 60.0397C79.2725 60.0397 84.7229 60.0617 91.4508 60.0617C98.1788 60.0617 103.629 60.0617 103.629 60.0397C103.629 60.0176 98.1756 60.0176 91.4508 60.0176C84.7261 60.0176 79.2725 60.027 79.2725 60.0397Z" fill="#E0E0E0"/>
<path d="M79.2725 60.7604C79.2725 60.7604 84.7229 60.7824 91.4508 60.7824C98.1788 60.7824 103.629 60.7824 103.629 60.7604C103.629 60.7383 98.1756 60.7383 91.4508 60.7383C84.7261 60.7383 79.2725 60.7477 79.2725 60.7604Z" fill="#E0E0E0"/>
<path d="M92.1509 54.6885H94.0371V50.9949H92.1509V54.6885Z" fill="white"/>
<path d="M92.151 54.6858C92.1522 54.6795 92.1522 54.6731 92.151 54.6668V54.6132C92.151 54.5627 92.151 54.4965 92.151 54.4082C92.151 54.2252 92.151 53.9666 92.151 53.6417C92.151 52.9856 92.151 52.0646 92.151 50.9922L92.1289 51.0143H94.0214C94.0214 51.0143 93.9773 50.9733 93.9993 50.9922V53.0014C93.9993 53.6322 93.9993 54.1937 93.9993 54.6794H94.0183H92.6462H92.2614H92.6336H94.0183V54.6605C94.0183 54.1748 94.0183 53.607 94.0183 52.9825V50.9733L93.9962 50.9512H92.0879V50.9733C92.0879 52.052 92.0879 52.9793 92.0879 53.6354V54.3987V54.6668L92.151 54.6858Z" fill="#263238"/>
<path d="M93.0885 54.6832C93.0885 54.6832 93.1106 53.8536 93.1106 52.8285C93.1106 51.8034 93.1106 50.9707 93.0885 50.9707C93.0664 50.9707 93.0664 51.8034 93.0664 52.8285C93.0664 53.8536 93.0759 54.6832 93.0885 54.6832Z" fill="#263238"/>
<path d="M92.1719 52.9693C92.1719 52.9693 92.5977 52.9914 93.1181 52.9914C93.6386 52.9914 94.0644 52.9914 94.0644 52.9693C94.0644 52.9473 93.6386 52.9473 93.1181 52.9473C92.5977 52.9473 92.1719 52.9567 92.1719 52.9693Z" fill="#263238"/>
<path d="M81.3912 66.5527C81.3912 66.5527 81.3912 66.5527 81.3912 66.5338V66.4802C81.3912 66.4297 81.3912 66.3634 81.3912 66.2751C81.3912 66.0922 81.3912 65.8335 81.3912 65.5087C81.3912 64.8526 81.3912 63.9316 81.3912 62.8591L81.3691 62.8812H83.2617L83.2396 62.8591V64.8684C83.2396 65.4992 83.2396 66.0606 83.2396 66.5464H81.8675H81.5205H81.8927H83.2774H83.2932V66.5527C83.2932 66.067 83.2932 65.4992 83.2932 64.8747V62.8654C83.3153 62.8844 83.268 62.837 83.2711 62.8434H81.3786V62.8654C81.3786 63.9442 81.3786 64.8715 81.3786 65.5276V66.2909V66.5527H81.3912Z" fill="#263238"/>
<path d="M82.3287 66.5487C82.3287 66.5487 82.3508 65.716 82.3508 64.6908C82.3508 63.6657 82.3508 62.833 82.3287 62.833C82.3066 62.833 82.3066 63.6657 82.3066 64.6908C82.3066 65.716 82.3161 66.5487 82.3287 66.5487Z" fill="#263238"/>
<path d="M81.4141 64.817C81.4141 64.817 81.8399 64.8391 82.3603 64.8391C82.8808 64.8391 83.3066 64.8391 83.3066 64.817C83.3066 64.7949 82.8808 64.7949 82.3603 64.7949C81.8399 64.7949 81.4141 64.8044 81.4141 64.817Z" fill="#263238"/>
<path d="M94.8159 55.8785C94.8171 55.8617 94.8171 55.8448 94.8159 55.828V55.6861C94.8159 55.5599 94.8159 55.3864 94.8159 55.1751V55.1909H96.7084L96.6863 55.1688V55.869L96.7084 55.8469H95.3584H94.961H95.3521C95.6896 55.8469 96.1659 55.8469 96.7179 55.8469H96.7399V55.194C96.7399 55.194 96.6989 55.1499 96.7179 55.1688C95.9672 55.1688 95.2922 55.1688 94.8253 55.1688H94.8096V55.1845C94.8096 55.399 94.8096 55.5757 94.8096 55.705V55.8249C94.8097 55.8429 94.8118 55.8609 94.8159 55.8785Z" fill="#E0E0E0"/>
<path d="M82.9576 50.2628C82.9588 50.2471 82.9588 50.2313 82.9576 50.2155C82.9576 50.1777 82.9576 50.1366 82.9576 50.083C82.9576 49.9632 82.9576 49.8055 82.9576 49.6099V49.6257H84.3234L84.3013 49.6036V49.919C84.3013 50.0263 84.3013 50.1335 84.3013 50.2344L84.3202 50.2124C83.9259 50.2124 83.5884 50.2124 83.3456 50.2124H83.0617H82.9544C82.987 50.2154 83.0197 50.2154 83.0522 50.2124H83.3329H84.3202H84.3612V49.5468C84.3612 49.5468 84.317 49.5027 84.336 49.5247H82.9702H82.9513C82.9513 49.7235 82.9513 49.8875 82.9513 50.0073C82.9513 50.0578 82.9513 50.102 82.9513 50.1367C82.9389 50.1782 82.9411 50.2227 82.9576 50.2628Z" fill="#E0E0E0"/>
<path d="M93.6049 56.5479H95.4375V55.8792H93.6049V56.5479Z" fill="#E0E0E0"/>
<path d="M91.353 50.4854H93.1855V49.8167H91.353V50.4854Z" fill="#E0E0E0"/>
<path d="M82.4985 55.9414H84.3311V55.2727H82.4985V55.9414Z" fill="#E0E0E0"/>
<path d="M79.3535 53.4688H80.7949V52.8001H79.3535V53.4688Z" fill="#E0E0E0"/>
<path d="M83.4133 41.4541L100.2 41.574L105.606 48.2293H78.0732L83.4133 41.4541Z" fill="#C198D9"/>
<path d="M83.4135 41.4531C83.4135 41.4531 83.2905 41.6171 83.0508 41.9263L81.9941 43.2731L78.0924 48.2567L78.0735 48.2189H100.207H105.607L105.581 48.2725C103.654 45.8974 101.837 43.6548 100.178 41.614H100.2L88.0628 41.5131L84.6342 41.4815H83.4135C83.4135 41.4815 83.8362 41.4815 84.6279 41.4815H88.0534L100.2 41.5541L105.61 48.2094L105.654 48.2599H100.207H78.0735H78.0293L78.0577 48.2252L81.9815 43.2605L83.0445 41.9231L83.4135 41.4531Z" fill="#263238"/>
<path d="M91.8416 44.3737L90.5515 46.5217H84.7383V44.3737L87.2743 39.7686L90.5515 44.3358L91.8416 44.3737Z" fill="#F5F5F5"/>
<path d="M87.508 44.5131C88.0324 44.5131 88.4574 44.088 88.4574 43.5637C88.4574 43.0393 88.0324 42.6143 87.508 42.6143C86.9837 42.6143 86.5586 43.0393 86.5586 43.5637C86.5586 44.088 86.9837 44.5131 87.508 44.5131Z" fill="white"/>
<path d="M86.5678 43.5645C86.5615 43.4862 86.5679 43.4074 86.5867 43.3311C86.6359 43.118 86.7574 42.9285 86.9305 42.7949C87.059 42.6944 87.2109 42.628 87.3719 42.6021C87.533 42.5762 87.698 42.5915 87.8516 42.6467C88.0405 42.715 88.2039 42.84 88.3193 43.0045C88.4347 43.169 88.4966 43.3651 88.4966 43.5661C88.4966 43.7671 88.4347 43.9632 88.3193 44.1277C88.2039 44.2922 88.0405 44.4172 87.8516 44.4855C87.698 44.5407 87.533 44.556 87.3719 44.5301C87.2109 44.5042 87.059 44.4378 86.9305 44.3373C86.7574 44.2037 86.6359 44.0142 86.5867 43.8011C86.5679 43.7237 86.5615 43.6439 86.5678 43.5645C86.5678 43.5645 86.5678 43.6497 86.612 43.7948C86.6452 43.9195 86.7041 44.0359 86.785 44.1365C86.8658 44.2372 86.9667 44.3198 87.0814 44.3792C87.196 44.4386 87.3217 44.4734 87.4505 44.4814C87.5793 44.4894 87.7084 44.4704 87.8295 44.4256C87.9536 44.3798 88.0664 44.3078 88.1603 44.2145C88.2541 44.1212 88.3267 44.0087 88.3731 43.8848C88.4196 43.7609 88.4388 43.6285 88.4294 43.4965C88.4201 43.3645 88.3824 43.236 88.319 43.1199C88.2555 43.0038 88.1678 42.9027 88.0618 42.8235C87.9557 42.7444 87.8339 42.689 87.7045 42.6611C87.5752 42.6333 87.4413 42.6336 87.3121 42.6622C87.1829 42.6907 87.0614 42.7467 86.9558 42.8264C86.788 42.9529 86.667 43.1315 86.612 43.3343C86.5678 43.4825 86.5678 43.5677 86.5678 43.5645Z" fill="#263238"/>
<path d="M84.0878 55.8906H90.1943V49.557H84.0878V55.8906Z" fill="white"/>
<path d="M84.0925 55.8952V55.7754C84.0925 55.6965 84.0925 55.583 84.0925 55.4347C84.0925 55.1351 84.0925 54.6966 84.0925 54.1446C84.0925 53.0344 84.0925 51.4541 84.0925 49.5616L84.0735 49.5805H90.1801L90.158 49.5584C90.158 51.8799 90.158 54.0563 90.158 55.8921L90.1769 55.87H85.761H84.4994H85.739H90.1738H90.1927V55.8511C90.1927 54.0153 90.1927 51.8389 90.1927 49.5174V49.4922H84.042V49.5143C84.042 51.4068 84.042 52.9839 84.042 54.1099C84.042 54.6619 84.042 55.0972 84.042 55.3937C84.042 55.542 84.042 55.6555 84.042 55.7312V55.8195C84.0436 55.8353 84.0491 55.8504 84.0579 55.8636C84.0667 55.8768 84.0785 55.8876 84.0925 55.8952Z" fill="#263238"/>
<path d="M87.0279 55.8061C87.0279 55.8061 87.05 54.4183 87.05 52.7024C87.05 50.9865 87.05 49.5986 87.0279 49.5986C87.0059 49.5986 87.0059 50.9896 87.0059 52.7024C87.0059 54.4151 87.0153 55.8061 87.0279 55.8061Z" fill="#263238"/>
<path d="M84.1582 52.9303C84.1582 52.9303 85.4956 52.9524 87.1452 52.9524C88.7949 52.9524 90.1323 52.9524 90.1323 52.9303C90.1323 52.9082 88.7949 52.9082 87.1452 52.9082C85.4956 52.9082 84.1582 52.9177 84.1582 52.9303Z" fill="#263238"/>
<path d="M80.5845 54.6113H82.4707V50.9178H80.5845V54.6113Z" fill="#FAFAFA"/>
<path d="M80.5755 54.6111C80.5748 54.6048 80.5748 54.5985 80.5755 54.5922V54.3335V53.5671C80.5755 52.911 80.5755 51.99 80.5755 50.9175L80.5534 50.9396H82.4459L82.4239 50.9175V52.9268C82.4239 53.5576 82.4239 54.119 82.4239 54.6048H82.4428H81.0675H80.6859H81.0581H82.4428H82.4586V54.5859C82.4586 54.1001 82.4586 53.5324 82.4586 52.9078C82.4586 52.5924 82.4586 52.277 82.4586 51.9332V50.8986C82.4775 50.9207 82.4302 50.8702 82.4365 50.8765H80.5439V50.8986C80.5439 51.9773 80.5439 52.9047 80.5439 53.5608C80.5439 53.8762 80.5439 54.1443 80.5439 54.3241C80.5439 54.4092 80.5439 54.4755 80.5439 54.5259V54.5922L80.5755 54.6111Z" fill="#263238"/>
<path d="M81.5211 54.6121C81.5211 54.6121 81.5432 53.7794 81.5432 52.7543C81.5432 51.7292 81.5432 50.8965 81.5211 50.8965C81.499 50.8965 81.499 51.7292 81.499 52.7543C81.499 53.7794 81.5211 54.6121 81.5211 54.6121Z" fill="#263238"/>
<path d="M80.6064 52.8912C80.6064 52.8912 81.0323 52.9133 81.5527 52.9133C82.0732 52.9133 82.499 52.9133 82.499 52.8912C82.499 52.8691 82.07 52.8691 81.5527 52.8691C81.0354 52.8691 80.6064 52.8786 80.6064 52.8912Z" fill="#263238"/>
<path d="M76.9121 68.6182C76.9121 68.6182 76.9121 68.574 76.9121 68.4794C76.9121 68.3848 76.9121 68.2334 76.9121 68.0693C76.9121 67.6877 76.9121 67.1736 76.9121 66.5459C76.9121 65.2211 76.9121 63.42 76.9121 61.395V61.3604H77.8741C77.9404 61.4266 77.8741 61.3824 77.9057 61.395V63.6692C77.9057 64.3884 77.9057 65.0665 77.9057 65.6942C77.9057 66.9149 77.9057 67.9211 77.8899 68.615H77.1928H76.9594H77.2023H77.8899L77.8741 68.6308C77.8741 67.9369 77.8741 66.9307 77.8741 65.71C77.8741 65.0792 77.8741 64.4042 77.8741 63.685C77.8741 63.3223 77.8741 62.9501 77.8741 62.5716V61.4108C77.8899 61.4108 77.8426 61.3761 77.9088 61.4424H76.9626L76.9941 61.4108C76.9941 63.4295 76.9941 65.2211 76.9941 66.5364C76.9941 67.1672 76.9941 67.6877 76.9941 68.0693C76.9941 68.2365 76.9941 68.3848 76.9941 68.4857C76.9941 68.5866 76.9121 68.6182 76.9121 68.6182Z" fill="#263238"/>
<path d="M95.7971 61.4299H75.6953L80.067 57.8184H90.9459L95.7971 61.4299Z" fill="#C198D9"/>
<g opacity="0.3">
<path d="M95.7961 61.4299H75.6943L80.0661 57.8184H90.9449L95.7961 61.4299Z" fill="black"/>
</g>
<path d="M90.9478 57.8184L87.1406 61.4299H95.8273L90.9478 57.8184Z" fill="#C198D9"/>
<path d="M84.7395 44.3749H84.0361L86.9538 39.3408L87.2755 39.7698L84.7395 44.3749Z" fill="#C198D9"/>
<path d="M84.7391 44.3778H84.0451L86.9659 39.3311L87.2814 39.76L84.7391 44.3778ZM84.042 44.3778H84.7359L87.2593 39.7758L86.9439 39.3531L84.042 44.3778Z" fill="#263238"/>
<g opacity="0.3">
<path d="M84.7395 44.3779H84.0361L86.9538 39.3438L87.2755 39.7727L84.7395 44.3779Z" fill="black"/>
</g>
<path d="M90.5518 46.5265V44.3438H91.8608L90.5518 46.5265Z" fill="#EBEBEB"/>
<path d="M91.8412 44.3755H92.8915L89.2516 39.3193L86.9521 39.3414L90.5511 44.3377L91.8412 44.3755Z" fill="#C198D9"/>
<path d="M91.8433 44.3758H91.5058L90.5596 44.3537L86.9449 39.3669L86.9102 39.3164H86.9732H88.0394H89.2727H89.2884L92.9158 44.3852L92.9347 44.4105H92.9031H92.1209H91.8528H92.1209H92.9031V44.4357L89.2474 39.389H89.2758H88.0457H86.9764L87.0016 39.3353L90.5911 44.3379L91.5374 44.3758H91.8433Z" fill="#263238"/>
<path d="M97.8755 48.2598C97.8913 48.2598 97.9071 52.8207 97.9071 58.4447C97.9071 64.0686 97.9071 68.6296 97.8755 68.6296C97.844 68.6296 97.8408 64.0718 97.8408 58.4447C97.8408 52.8176 97.8566 48.2598 97.8755 48.2598Z" fill="#263238"/>
<path d="M91.5005 66.6484H93.3867V62.9549H91.5005V66.6484Z" fill="#FAFAFA"/>
<path d="M91.5044 66.6491V66.3684C91.5044 66.1886 91.5044 65.9268 91.5044 65.6019C91.5044 64.949 91.5044 64.0248 91.5044 62.9524L91.4823 62.9744H93.3749L93.3528 62.9524V63.9838C93.3528 64.3213 93.3528 64.6493 93.3528 64.9616C93.3528 65.5924 93.3528 66.1507 93.3528 66.6396L93.3686 66.6207H91.9965H91.5202C91.4981 66.6207 91.4855 66.6207 91.4855 66.6207H91.987H93.3686H93.3875C93.3875 66.1318 93.3875 65.564 93.3875 64.9427V63.9649C93.3875 63.7977 93.3875 63.6274 93.3875 63.4539V62.9334L93.3622 62.9082H91.4697V62.9271C91.4697 64.009 91.4697 64.9332 91.4697 65.5924C91.4697 65.9079 91.4697 66.1728 91.4697 66.3526V66.6049C91.4858 66.6155 91.498 66.631 91.5044 66.6491Z" fill="#263238"/>
<path d="M92.4403 66.6412C92.4403 66.6412 92.4624 65.8085 92.4624 64.7834C92.4624 63.7583 92.4624 62.9287 92.4403 62.9287C92.4182 62.9287 92.415 63.7583 92.415 64.7834C92.415 65.8085 92.4277 66.6412 92.4403 66.6412Z" fill="#263238"/>
<path d="M91.5264 64.9273C91.5264 64.9273 91.9522 64.9494 92.4726 64.9494C92.9931 64.9494 93.4189 64.9494 93.4189 64.9273C92.7885 64.894 92.1568 64.894 91.5264 64.9273Z" fill="#263238"/>
<path d="M96.1795 24.5378L96.8591 25.5557H97.2918L96.5695 24.5378H96.1795ZM95.7406 23.4224V25.5557H96.1002V23.4224H95.7406ZM95.954 23.7333H96.3837C96.4649 23.7333 96.536 23.7475 96.597 23.7759C96.66 23.8044 96.7087 23.845 96.7433 23.8978C96.7778 23.9507 96.7951 24.0157 96.7951 24.0929C96.7951 24.168 96.7778 24.2331 96.7433 24.2879C96.7087 24.3407 96.66 24.3814 96.597 24.4098C96.536 24.4383 96.4649 24.4525 96.3837 24.4525H95.954V24.7481H96.3989C96.5533 24.7481 96.6874 24.7207 96.8012 24.6658C96.917 24.6109 97.0064 24.5337 97.0693 24.4342C97.1323 24.3346 97.1638 24.2178 97.1638 24.0837C97.1638 23.9496 97.1323 23.8338 97.0693 23.7363C97.0064 23.6368 96.917 23.5596 96.8012 23.5047C96.6874 23.4499 96.5533 23.4224 96.3989 23.4224H95.954V23.7333ZM97.7755 25.5557H98.8513V25.2387H97.7755V25.5557ZM97.7755 23.7394H98.8513V23.4224H97.7755V23.7394ZM97.7755 24.5683H98.7903V24.2574H97.7755V24.5683ZM97.5531 23.4224V25.5557H97.9066V23.4224H97.5531ZM99.5531 24.489C99.5531 24.3428 99.5846 24.2127 99.6476 24.099C99.7105 23.9832 99.7969 23.8928 99.9066 23.8277C100.016 23.7627 100.141 23.7302 100.281 23.7302C100.432 23.7302 100.562 23.7648 100.672 23.8338C100.783 23.9029 100.871 23.9964 100.934 24.1142C100.997 24.232 101.028 24.3641 101.028 24.5104C101.028 24.6567 100.997 24.7867 100.934 24.9005C100.871 25.0142 100.784 25.1036 100.675 25.1686C100.565 25.2316 100.439 25.2631 100.297 25.2631C100.156 25.2631 100.03 25.2306 99.9157 25.1656C99.804 25.0985 99.7156 25.0071 99.6506 24.8913C99.5856 24.7755 99.5531 24.6414 99.5531 24.489ZM99.1722 24.489C99.1722 24.6475 99.1996 24.7948 99.2544 24.9309C99.3093 25.0671 99.3865 25.1849 99.486 25.2844C99.5856 25.384 99.7034 25.4622 99.8395 25.5191C99.9757 25.5739 100.123 25.6014 100.281 25.6014C100.444 25.6014 100.592 25.5739 100.726 25.5191C100.86 25.4622 100.976 25.384 101.074 25.2844C101.173 25.1849 101.251 25.0671 101.305 24.9309C101.36 24.7948 101.388 24.6475 101.388 24.489C101.388 24.3285 101.36 24.1812 101.305 24.0472C101.251 23.9131 101.173 23.7973 101.074 23.6997C100.974 23.6002 100.857 23.523 100.723 23.4681C100.589 23.4133 100.442 23.3859 100.281 23.3859C100.125 23.3859 99.9787 23.4133 99.8426 23.4681C99.7085 23.523 99.5907 23.6002 99.4891 23.6997C99.3895 23.7973 99.3113 23.9131 99.2544 24.0472C99.1996 24.1812 99.1722 24.3285 99.1722 24.489ZM100.184 24.6414L101.135 25.5709H101.558L100.598 24.6414H100.184ZM101.776 23.4224V24.8547C101.776 24.9726 101.794 25.0782 101.831 25.1717C101.867 25.2631 101.92 25.3413 101.989 25.4063C102.06 25.4714 102.143 25.5211 102.239 25.5557C102.334 25.5902 102.439 25.6075 102.553 25.6075C102.667 25.6075 102.771 25.5902 102.867 25.5557C102.962 25.5211 103.044 25.4714 103.114 25.4063C103.183 25.3413 103.235 25.2631 103.272 25.1717C103.311 25.0782 103.33 24.9726 103.33 24.8547V23.4224H102.97V24.8395C102.97 24.9716 102.935 25.0782 102.864 25.1595C102.793 25.2387 102.689 25.2783 102.553 25.2783C102.415 25.2783 102.31 25.2387 102.239 25.1595C102.17 25.0782 102.135 24.9716 102.135 24.8395V23.4224H101.776ZM103.791 23.4224V25.5557H104.154V23.4224H103.791ZM105.069 24.5378L105.749 25.5557H106.181L105.459 24.5378H105.069ZM104.63 23.4224V25.5557H104.99V23.4224H104.63ZM104.843 23.7333H105.273C105.354 23.7333 105.426 23.7475 105.486 23.7759C105.549 23.8044 105.598 23.845 105.633 23.8978C105.667 23.9507 105.685 24.0157 105.685 24.0929C105.685 24.168 105.667 24.2331 105.633 24.2879C105.598 24.3407 105.549 24.3814 105.486 24.4098C105.426 24.4383 105.354 24.4525 105.273 24.4525H104.843V24.7481H105.288C105.443 24.7481 105.577 24.7207 105.691 24.6658C105.806 24.6109 105.896 24.5337 105.959 24.4342C106.022 24.3346 106.053 24.2178 106.053 24.0837C106.053 23.9496 106.022 23.8338 105.959 23.7363C105.896 23.6368 105.806 23.5596 105.691 23.5047C105.577 23.4499 105.443 23.4224 105.288 23.4224H104.843V23.7333ZM106.665 25.5557H107.741V25.2387H106.665V25.5557ZM106.665 23.7394H107.741V23.4224H106.665V23.7394ZM106.665 24.5683H107.68V24.2574H106.665V24.5683ZM106.443 23.4224V25.5557H106.796V23.4224H106.443ZM108.58 24.2574L109.229 25.3576L109.878 24.2574L110.027 25.5557H110.399L110.107 23.3158L109.229 24.7633L108.354 23.3158L108.062 25.5557H108.433L108.58 24.2574ZM110.971 25.5557H112.047V25.2387H110.971V25.5557ZM110.971 23.7394H112.047V23.4224H110.971V23.7394ZM110.971 24.5683H111.986V24.2574H110.971V24.5683ZM110.749 23.4224V25.5557H111.102V23.4224H110.749ZM114.047 23.4224V24.8547L112.49 23.3158V25.5557H112.843V24.1233L114.401 25.6623V23.4224H114.047ZM114.66 23.7546H115.221V25.5557H115.584V23.7546H116.148V23.4224H114.66V23.7546Z" fill="black"/>
<path d="M33.4597 55.3859C33.4597 48.8077 36.3966 47.2762 36.3966 47.2762L40.5819 46.9928V46.5859L42.3269 46.8744L42.5026 46.8628L42.4989 46.9034L44.7593 47.2769C44.7593 47.2769 47.6962 48.8085 47.6962 55.3866C47.6962 61.5267 50.3557 63.7434 50.4283 64.7322C50.4936 65.6252 42.4017 65.4864 40.8193 65.4515L40.8164 65.4806C40.8164 65.4806 30.6542 65.7218 30.7268 64.7322C30.7994 63.7427 33.4582 61.526 33.4582 55.3866L33.4597 55.3859Z" fill="#BFBFBF"/>
<path d="M39.3091 97.3694L43.8922 117.523C42.1523 124.245 40.5278 131.204 38.9803 137.973C38.6739 139.593 37.8653 142.357 37.7267 143.98C37.5561 145.885 39.3962 147.485 41.2602 146.991C43.2259 146.545 43.5547 144.414 43.959 142.76L44.8075 139.359C45.8949 134.968 47.0534 130.148 48.0783 125.724C48.5828 123.127 49.4589 120.56 49.6766 117.924L50.118 96.3363C50.1797 93.316 47.7836 90.8167 44.7654 90.7549C41.29 90.638 38.5455 93.9837 39.3098 97.3694H39.3091Z" fill="#F69D85"/>
<path d="M37.4106 146.63C37.452 146.786 37.5209 146.93 37.6124 147.057C37.8389 147.373 38.2018 147.579 38.6134 147.581L48.0279 147.585C48.4968 147.586 48.8525 147.315 49.0303 146.954C49.0855 146.844 49.1232 146.725 49.1428 146.602C49.2016 146.234 49.0949 145.835 48.7712 145.542L44.1416 142.025C41.7673 143.292 38.0182 142.189 38.0182 142.189L37.7735 143.107C37.5551 144.135 37.42 145.177 37.3692 146.226C37.3627 146.367 37.3772 146.502 37.4113 146.63H37.4106Z" fill="#30313C"/>
<path d="M37.4113 146.629C37.5543 147.174 38.0363 147.579 38.6141 147.581L48.0286 147.585C48.6398 147.585 49.0601 147.126 49.1436 146.602L37.4121 146.629H37.4113Z" fill="#1D1D1B"/>
<path d="M26.0708 97.3694L30.6539 117.523C28.914 124.245 27.2895 131.204 25.742 137.973C25.4357 139.593 24.627 142.357 24.4884 143.98C24.3178 145.885 26.1579 147.485 28.0219 146.991C29.9876 146.545 30.3164 144.414 30.7207 142.76L31.5692 139.359C32.6566 134.968 33.8151 130.148 34.84 125.724C35.3445 123.127 36.2206 120.56 36.4384 117.924L36.8797 96.3363C36.9414 93.316 34.5453 90.8167 31.5271 90.7549C28.0517 90.638 25.3072 93.9837 26.0715 97.3694H26.0708Z" fill="#F69D85"/>
<path d="M24.1733 146.631C24.2147 146.787 24.2836 146.931 24.3751 147.058C24.6016 147.374 24.9645 147.58 25.3761 147.582L34.7906 147.586C35.2595 147.587 35.6152 147.316 35.793 146.955C35.8482 146.845 35.8859 146.726 35.9055 146.603C35.9643 146.235 35.8576 145.836 35.5339 145.543L30.9043 142.026C28.1024 143.213 24.8157 142.026 24.8157 142.026L24.5362 143.108C24.3178 144.136 24.1827 145.178 24.1319 146.227C24.1254 146.368 24.1399 146.503 24.174 146.631H24.1733Z" fill="#30313C"/>
<path d="M24.174 146.629C24.317 147.174 24.799 147.579 25.3768 147.581L34.7913 147.585C35.4025 147.585 35.8228 147.126 35.9062 146.602L24.1748 146.629H24.174Z" fill="#1D1D1B"/>
<path d="M69.4951 68.2378C69.4951 68.2378 68.4034 65.3164 64.1121 63.6533C64.1121 63.6533 63.9807 69.3313 69.4951 68.2378Z" fill="#818496"/>
<path d="M41.8053 61.6865C42.7852 60.3119 44.692 59.9922 46.0654 60.973L59.3052 70.4254L67.093 62.4189C67.7579 61.7345 68.8402 61.616 69.6423 62.1856C70.53 62.8148 70.7398 64.0456 70.1112 64.9335L62.0054 76.3882L62.0004 76.3955C61.0966 77.6633 59.3371 77.9583 58.0705 77.0538L57.8847 76.9208L42.5188 65.9506C41.1454 64.9698 40.8261 63.0611 41.806 61.6865H41.8053Z" fill="#F69D85"/>
<path d="M37.5378 52.4878L42.4014 52.6484L42.1414 60.533L37.2779 60.3724L37.5378 52.4878Z" fill="#F69D85"/>
<path d="M42.2025 58.7625C50.2879 58.3847 58.7319 69.2997 58.7319 69.2997C58.7319 69.2997 63.0813 64.7573 64.1121 63.6522C64.1121 63.6522 65.3366 66.8011 69.4951 68.2367C69.4951 68.2367 65.0673 78.1294 59.9536 79.1066C53.7554 80.2916 45.4638 72.8242 45.4638 72.8242L42.2025 58.7618V58.7625Z" fill="#F1F3F2"/>
<path d="M38.3164 56.4609C40.3285 57.602 42.2448 57.4457 42.2448 57.4457L42.2949 55.918L38.3164 56.4609Z" fill="#D1836B"/>
<path d="M41.0294 57.0207C43.8523 56.7737 45.9776 54.2162 45.7758 51.3086L45.5864 48.5753C45.3846 45.6676 42.9333 43.5105 40.1097 43.7575C37.2868 44.0046 35.1614 46.562 35.3632 49.4697L35.5527 52.203C35.7545 55.1106 38.2065 57.2677 41.0294 57.0207Z" fill="#F69D85"/>
<path d="M37.3457 52.7685L38.1565 52.2468C38.4795 52.0819 38.8337 51.9758 39.1959 51.9714C39.4035 51.9685 39.6119 51.994 39.8137 52.0499C40.9068 52.3514 41.9238 52.273 42.5066 52.1792C42.5103 52.1792 42.5139 52.1778 42.5175 52.1778C43.0046 52.1022 43.5032 52.2018 43.9424 52.4263L44.5398 52.8266C44.9209 52.015 44.8998 51.2369 45.0239 50.6571C45.1495 50.0701 45.5219 48.7695 45.5219 48.7695C45.5219 48.7695 46.1316 51.8901 45.3041 54.1213C44.1021 57.3603 40.0568 57.8122 37.8661 56.4855C34.6694 54.5485 35.375 49.2076 35.375 49.2076C35.375 49.2076 35.9941 50.203 36.2315 50.9252C36.781 52.5977 37.3464 52.7685 37.3464 52.7685H37.3457ZM38.4737 53.0525C38.4229 53.5626 39.2838 54.797 40.9271 54.7854C42.6721 54.773 43.2107 54.0479 43.3581 53.3889C43.3842 53.2727 43.3762 53.1652 43.3486 53.0693C43.2535 52.7358 42.9015 52.5476 42.5596 52.6043C42.0275 52.6922 40.9213 52.783 39.4289 52.4161C39.2584 52.3739 39.0776 52.3907 38.9237 52.4749C38.7299 52.581 38.502 52.7648 38.4737 53.0525Z" fill="#31364C"/>
<path d="M38.6538 88.0428L38.9492 88.0522C43.4416 88.2004 47.2074 84.5546 47.3606 79.9091L47.7852 67.0295C47.9384 62.384 44.4208 58.4976 39.9284 58.3494L39.633 58.34C35.8817 58.2165 31.3748 61.8376 31.2216 66.4832L30.797 79.3627C30.6438 84.0083 34.1614 87.8946 38.6538 88.0428Z" fill="#F69D85"/>
<path d="M39.77 49.9922C39.7969 50.3854 39.6612 50.7176 39.4674 50.7343C39.2728 50.751 39.0935 50.4465 39.0667 50.0533C39.0398 49.6601 39.1756 49.3279 39.3694 49.3112C39.5639 49.2945 39.7432 49.599 39.77 49.9922Z" fill="#4E484A"/>
<path d="M42.856 49.7247C42.8828 50.1179 42.7471 50.45 42.5533 50.4667C42.3588 50.4834 42.1795 50.1789 42.1526 49.7857C42.1258 49.3925 42.2615 49.0603 42.4553 49.0436C42.6498 49.0269 42.8291 49.3314 42.856 49.7247Z" fill="#4E484A"/>
<path d="M41.1806 52.1433H41.1821C41.2532 52.1179 41.8731 51.8854 41.8099 51.5418C41.7562 51.2497 41.1871 49.9804 41.1625 49.9266C41.1443 49.886 41.095 49.8678 41.0558 49.886C41.0151 49.9041 40.997 49.9521 41.0151 49.9928C41.2176 50.4432 41.6103 51.3521 41.651 51.5708C41.6815 51.735 41.3113 51.9246 41.1276 51.9908C41.0855 52.006 41.0638 52.0525 41.079 52.0947C41.0935 52.1361 41.1392 52.1579 41.1806 52.1441V52.1433Z" fill="#BC6B55"/>
<path d="M39.8256 53.4381C39.9098 53.5958 40.0564 53.7579 40.2706 53.8829C40.7446 54.1598 41.657 54.13 42.0584 53.864C42.1535 53.8008 42.2333 53.7223 42.2957 53.6387C42.372 53.534 42.4242 53.4199 42.4474 53.3138C42.4489 53.3109 42.4489 53.3072 42.4503 53.3043C42.4823 53.1379 42.4431 52.9933 42.3175 52.9417C42.046 52.829 41.3216 53.0732 40.8222 52.9373C40.2851 52.7919 39.9033 52.7331 39.7806 52.946C39.7668 52.9707 39.7559 52.9984 39.7494 53.0289C39.74 53.0667 39.7378 53.1081 39.7407 53.1532C39.7458 53.2411 39.7741 53.3392 39.8263 53.4381H39.8256Z" fill="#D1836B"/>
<path d="M43.5063 48.7685C43.5405 48.7685 43.5738 48.7547 43.5992 48.7278C43.6464 48.6769 43.6435 48.597 43.5927 48.5498C43.56 48.5192 42.7848 47.8128 41.7396 48.2452C41.675 48.2721 41.6445 48.3455 41.6713 48.4102C41.6982 48.4749 41.7722 48.5054 41.8361 48.4785C42.7282 48.1093 43.3931 48.7089 43.4207 48.7344C43.4446 48.7569 43.4758 48.7678 43.5063 48.7678V48.7685Z" fill="#31364C"/>
<path d="M38.3274 48.9296C38.3572 48.9296 38.3869 48.9194 38.4109 48.8983C39.2471 48.1628 40.1094 48.5444 40.1457 48.5611C40.2089 48.5902 40.2836 48.5625 40.3127 48.4993C40.3417 48.4361 40.3141 48.3612 40.251 48.3321C40.2089 48.3125 39.2057 47.8626 38.2439 48.7094C38.1917 48.7552 38.1866 48.8351 38.2323 48.8874C38.257 48.9158 38.2919 48.9303 38.3274 48.9303V48.9296Z" fill="#31364C"/>
<path d="M39.7494 53.0289L39.8445 53.2716C41.236 53.739 42.3451 53.3785 42.3451 53.3785L42.4474 53.3138C42.4474 53.3138 42.4489 53.3072 42.4503 53.3043C42.4823 53.1379 42.4431 52.9933 42.3175 52.9417C42.046 52.829 41.3216 53.0732 40.8222 52.9373C40.2851 52.7919 39.9033 52.7331 39.7806 52.946C39.7668 52.9707 39.7559 52.9984 39.7494 53.0289Z" fill="white"/>
<path d="M39.9071 52.7519C39.82 52.7795 39.7547 52.8289 39.7104 52.9067C39.6697 52.9764 39.6523 53.0644 39.6588 53.1603C39.6654 53.2614 39.698 53.3711 39.7539 53.4772C39.8236 53.6088 39.9623 53.7977 40.2294 53.954C40.7143 54.2375 41.6593 54.2266 42.1028 53.9329C42.2016 53.8668 42.2879 53.7847 42.3605 53.6887C42.4455 53.5724 42.5035 53.446 42.5289 53.3217C42.571 53.1051 42.5013 52.9314 42.3482 52.8674C42.203 52.8071 41.9729 52.8325 41.7065 52.8616C41.4205 52.8929 41.0968 52.9285 40.8442 52.8602C40.421 52.7453 40.1082 52.6886 39.9078 52.7519H39.9071ZM41.7566 53.9148C41.316 54.0536 40.6656 54.0216 40.3107 53.8137C40.0769 53.6764 39.9564 53.5136 39.8969 53.4009C39.8519 53.3151 39.8251 53.2279 39.82 53.1487C39.8156 53.0847 39.8258 53.0288 39.8497 52.9866C39.9492 52.8129 40.3651 52.8979 40.7999 53.0157C41.0823 53.092 41.422 53.0549 41.7225 53.0222C41.9569 52.9968 42.1783 52.9721 42.285 53.0164C42.4026 53.0651 42.3794 53.2374 42.3692 53.289C42.3489 53.3878 42.2996 53.4954 42.2299 53.5906C42.1689 53.6713 42.0963 53.7411 42.0128 53.7963C41.9417 53.8435 41.8539 53.8828 41.7566 53.9133V53.9148Z" fill="#BC6B55"/>
<path d="M26.8787 75.3449C27.5784 69.029 29.8409 59.4298 37.3362 58.6016C37.3362 58.6016 41.2356 60.9345 42.2003 58.7621C42.2003 58.7621 46.6738 60.0285 48.6772 65.4202L50.1181 64.7642C50.1181 64.7642 51.3346 75.2483 52.1084 100.499C52.4133 110.458 52.8916 140.475 52.8916 140.475C52.8916 140.475 37.0655 142.824 22.1939 140.287C22.1939 140.287 24.476 90.957 26.8787 75.3456V75.3449Z" fill="#F1F3F2"/>
<path d="M66.368 63.8845C66.368 63.8845 67.5526 62.1182 69.2352 61.6184C70.9177 61.1185 71.6922 61.3038 72.3027 61.7324C72.9124 62.1611 70.8009 64.5391 69.7048 64.943C68.6088 65.347 67.1875 65.3644 66.368 63.8852V63.8845Z" fill="#F69D85"/>
<path d="M70.0226 61.7795C70.9706 61.5208 71.8576 61.0362 72.6408 60.4419C73.0756 60.2268 73.4879 59.3259 74.0185 59.7735C74.6558 60.5705 71.3509 62.979 70.6156 63.2442C68.7988 64.3304 68.2181 61.6029 70.0226 61.7802V61.7795Z" fill="#F69D85"/>
<path d="M70.3816 62.3255C71.3477 62.2355 72.2964 61.8838 73.1239 61.3774C73.5812 61.2096 74.0552 60.3384 74.5502 60.8245C74.9792 61.4246 73.4643 62.3786 73.0535 62.7397C72.4917 63.1378 71.8761 63.459 71.2294 63.7031C70.8802 63.8506 70.3322 63.953 69.9562 64.0271C68.0377 64.2015 68.7723 61.2691 70.3808 62.3255H70.3816Z" fill="#F69D85"/>
<path d="M69.38 63.6136C71.0807 63.4828 72.8025 62.9604 74.1744 61.9243C74.5809 61.6199 75.081 62.2309 74.705 62.5695C74.451 62.8173 74.1621 63.0774 73.8819 63.291C72.5898 64.2456 71.0699 64.8901 69.4962 65.1996C68.3725 65.3653 68.2412 63.6143 69.38 63.6143V63.6136Z" fill="#F69D85"/>
<path d="M69.2697 61.5877C70.1807 61.2375 71.0205 60.681 71.7268 60.006C72.1362 59.7437 72.4178 58.8007 73.0014 59.1727C73.6612 59.8026 71.4459 61.9081 70.9167 62.3397C68.5025 64.5847 67.7926 61.7933 69.2705 61.5877H69.2697Z" fill="#F69D85"/>
<path d="M71.3514 61.6532C71.3332 61.6481 71.3173 61.6365 71.3064 61.6198C71.2831 61.5834 71.294 61.5355 71.3303 61.5122C71.9604 61.1132 72.6325 60.3566 72.6398 60.3486C72.6681 60.3166 72.7175 60.313 72.7494 60.342C72.7813 60.3704 72.7842 60.4198 72.7559 60.4518C72.7276 60.4838 72.062 61.2324 71.4131 61.6438C71.3935 61.6561 71.371 61.659 71.3506 61.6532H71.3514Z" fill="#BC6B55"/>
<path d="M71.8281 62.2934C71.8056 62.2876 71.7867 62.2716 71.7773 62.2483C71.7606 62.2084 71.7795 62.1633 71.8194 62.1466C72.501 61.8617 73.1303 61.2562 73.1361 61.2504C73.1666 61.2206 73.2159 61.2213 73.2457 61.2519C73.2755 61.2824 73.2747 61.3318 73.2443 61.3616C73.2181 61.3871 72.5881 61.9932 71.8789 62.2898C71.8622 62.297 71.8448 62.2978 71.8281 62.2927V62.2934Z" fill="#BC6B55"/>
<path d="M72.0122 63.0931C71.981 63.0844 71.9578 63.0568 71.9556 63.0226C71.9527 62.9797 71.9854 62.9427 72.0282 62.9405C72.6488 62.902 73.546 62.25 73.5547 62.2435C73.5895 62.218 73.6382 62.226 73.6636 62.2602C73.689 62.2951 73.6817 62.3438 73.6469 62.3692C73.6084 62.3968 72.7033 63.0546 72.0376 63.0953C72.0289 63.0953 72.0202 63.0953 72.0122 63.0924V63.0931Z" fill="#BC6B55"/>
<path d="M70.1963 63.288C70.1868 63.2851 70.1774 63.2807 70.1694 63.2742C69.9226 63.0816 69.4225 62.9944 69.4174 62.9929C69.392 62.9886 69.3702 62.9718 69.3601 62.9486C69.3492 62.9253 69.3514 62.8977 69.3644 62.8759C69.6279 62.4456 69.6192 61.963 69.6192 61.9579C69.6185 61.915 69.6519 61.8794 69.6947 61.878C69.7375 61.8765 69.7731 61.9107 69.7745 61.9536C69.7745 61.9739 69.784 62.4195 69.5517 62.8614C69.7237 62.8999 70.0613 62.9915 70.266 63.1514C70.3001 63.1775 70.3059 63.2269 70.279 63.2604C70.2594 63.2858 70.226 63.296 70.197 63.2873L70.1963 63.288Z" fill="#BC6B55"/>
<path d="M66.3471 63.3854C67.0679 62.2091 68.0333 61.1657 69.1903 60.4101C69.3275 60.3135 69.5532 60.1951 69.6984 60.1101C70.1913 59.8194 70.6558 60.5772 70.1797 60.8882C70.1085 60.9441 69.9496 61.072 69.8821 61.1251C68.9653 61.9257 68.2452 62.9603 67.7712 64.0792C67.4018 65.2889 65.6401 64.4367 66.3471 63.3854Z" fill="#F69D85"/>
<path d="M24.114 86.4808C24.114 86.4808 26.0056 87.5707 27.7796 87.2299C29.5537 86.8892 30.1815 86.3413 30.5466 85.6446C30.9125 84.9471 27.89 83.7294 26.6995 83.8776C25.5091 84.0258 24.1946 84.6943 24.114 86.4808Z" fill="#F69D85"/>
<path d="M27.8038 87.1939C28.7445 87.1299 29.699 87.2592 30.6129 87.4946C31.0898 87.5361 31.8236 88.1616 32.1176 87.5295C32.4544 86.6431 28.653 85.6775 27.9576 85.6296C26.1038 85.222 26.2555 87.6937 27.8038 87.1939Z" fill="#F69D85"/>
<path d="M28.4934 86.6796C29.3724 86.4303 30.3269 86.4441 31.2314 86.5917C31.7148 86.5888 32.5016 87.1746 32.7448 86.5103C32.9277 85.8038 30.973 85.4172 30.4547 85.242C29.7041 85.0748 28.9188 84.9811 28.1457 85.0661C27.0939 85.2987 27.438 86.9028 28.4934 86.6796Z" fill="#F69D85"/>
<path d="M28.4384 85.8942C29.7675 85.424 31.2751 85.4022 32.6107 85.8775C33.1014 86.0512 33.4142 85.3062 32.9504 85.0766C32.4024 84.7727 31.7985 84.5394 31.1858 84.3933C30.1203 84.1557 28.9981 84.1034 27.923 84.3228C26.7689 84.6056 27.3395 86.3521 28.4377 85.895L28.4384 85.8942Z" fill="#F69D85"/>
<path d="M26.6823 84.9435C28.0774 84.4437 29.6068 84.1908 31.0818 84.3805C31.5695 84.4466 32.0457 84.5759 32.4972 84.7714C32.7208 84.876 32.9893 84.775 33.0852 84.5468C33.4002 83.5718 30.279 83.0923 29.5974 83.0705C28.4251 83.0087 27.2477 83.1061 26.1088 83.3924C24.9779 83.7229 25.6058 85.4303 26.6823 84.9443V84.9435Z" fill="#F69D85"/>
<path d="M31.1293 86.6166C31.1467 86.613 31.1627 86.6021 31.1707 86.5846C31.1837 86.5563 31.1707 86.5221 31.1431 86.509C31.1351 86.5054 30.3076 86.1282 29.1484 86.046C29.1172 86.0439 29.0896 86.0671 29.0874 86.0991C29.0853 86.1304 29.1092 86.158 29.1404 86.1602C30.2779 86.2408 31.0872 86.6093 31.0952 86.613C31.1061 86.618 31.1184 86.6195 31.1293 86.6173V86.6166Z" fill="#BC6B55"/>
<path d="M31.685 85.6824C31.7039 85.6788 31.7198 85.6657 31.7278 85.6468C31.7387 85.6177 31.7242 85.5843 31.6952 85.5734C31.6857 85.5697 30.7515 85.2136 29.4798 85.0668C29.4486 85.0632 29.4203 85.0857 29.4167 85.1169C29.413 85.1482 29.4355 85.1765 29.4668 85.1802C30.7232 85.3248 31.6451 85.6759 31.6545 85.6795C31.6647 85.6831 31.6756 85.6846 31.6857 85.6824H31.685Z" fill="#BC6B55"/>
<path d="M31.7214 84.5893C31.7425 84.5857 31.7599 84.5697 31.7657 84.5479C31.7737 84.5174 31.7555 84.4861 31.725 84.4781C31.7142 84.4752 30.6399 84.1932 29.689 84.1126C29.6578 84.1096 29.6302 84.1329 29.6273 84.1642C29.6244 84.1954 29.6476 84.223 29.6796 84.2259C30.6203 84.3066 31.6851 84.5857 31.696 84.5886C31.7047 84.5908 31.7134 84.5908 31.7214 84.5893Z" fill="#BC6B55"/>
<path d="M26.1709 80.4863C26.1709 80.4863 24.3657 83.6896 20.4692 84.268C20.4692 84.268 21.3185 79.8796 26.1709 80.4863Z" fill="#818496"/>
<path d="M13.2979 68.8126L13.4649 68.721L30.6752 59.2701C32.1538 58.4578 34.0106 58.9998 34.8221 60.4798C35.6336 61.9597 35.0921 63.8183 33.6135 64.6305L19.3175 72.4809L26.8121 83.7279C27.3544 84.5395 27.2223 85.6474 26.4674 86.3057C25.6478 87.0199 24.4052 86.9342 23.6916 86.1139L12.5067 73.2561C12.3775 73.1057 12.2512 72.9277 12.1518 72.7468C11.3824 71.3431 11.8955 69.5813 13.2979 68.8118V68.8126Z" fill="#F69D85"/>
<path d="M37.3369 58.6018C37.3369 58.6018 33.1806 57.5251 28.477 59.1235C24.0455 60.6303 11.803 65.4626 10.9777 70.2557C10.082 75.4607 20.4692 84.2664 20.4692 84.2664C20.4692 84.2664 22.1263 80.8175 26.1709 80.4847C26.1709 80.4847 23.295 75.7222 21.934 73.6566C21.934 73.6566 30.4985 70.2557 33.5682 67.5958C36.6379 64.9359 37.3369 58.6011 37.3369 58.6011V58.6018Z" fill="#F1F3F2"/>
<path d="M43.7314 58.8203C43.7314 58.8203 43.4912 61.0341 41.1684 61.4795C41.1684 61.4795 37.9252 61.4577 36.4016 60.4049C34.878 59.3521 36.4016 58.4258 36.4016 58.4258C36.4016 58.4258 38.0218 58.5558 39.2906 59.4618C39.2906 59.4618 40.8686 59.9356 41.4108 59.5476C41.4108 59.5476 42.0336 59.2853 42.2006 58.7629C42.2006 58.7629 43.4128 58.6067 43.7314 58.8203Z" fill="#CED0CF"/>
<path d="M51.0662 76.9623C51.1163 76.9623 51.157 76.9208 51.1562 76.8707C51.1562 76.7988 51.067 69.5791 47.9472 64.1655C47.9225 64.1219 47.8666 64.1074 47.8231 64.1321C47.7795 64.1576 47.765 64.2128 47.7897 64.2564C50.8855 69.6285 50.974 76.801 50.9748 76.8722C50.9748 76.9223 51.0154 76.9623 51.0655 76.9623H51.0662Z" fill="#CED0CF"/>
<path d="M27.5326 71.2726C27.5449 71.2726 27.5572 71.2697 27.5696 71.2646C27.6255 71.2399 33.1805 68.7151 35.4278 64.7133C35.4525 64.6697 35.4365 64.6145 35.393 64.5898C35.3494 64.5651 35.2943 64.5811 35.2696 64.6246C33.0513 68.5749 27.5507 71.0742 27.4955 71.0989C27.4498 71.1193 27.4295 71.173 27.4498 71.2188C27.465 71.2522 27.4977 71.2726 27.5326 71.2726Z" fill="#CED0CF"/>
<path d="M39.4489 60.0084C39.4489 60.0084 41.3072 71.198 40.7758 75.6845H41.6904C41.6904 75.6845 41.6578 60.9115 40.7758 60.1937C39.8939 59.4759 39.4489 60.0084 39.4489 60.0084Z" fill="#CED0CF"/>
<path d="M36.6609 44.7145C37.0478 44.2778 39.2893 43.0361 40.6525 43.0361C42.0156 43.0361 44.2564 44.2771 44.6426 44.7145C45.0215 45.1424 45.5049 46.3826 45.5049 47.8154C45.5049 47.8154 42.5397 47.5291 40.863 47.479C37.9029 47.3896 36.221 47.681 36.221 47.681C36.221 46.2489 36.2827 45.1424 36.6609 44.7152V44.7145Z" fill="#EFEFEF"/>
<path d="M36.3633 46.6511C36.3975 46.6511 36.433 46.6474 36.4671 46.6394C39.2443 46.0013 42.1783 46.0013 44.954 46.6394C45.1943 46.6954 45.4367 46.55 45.4926 46.3167C45.5499 46.0834 45.4011 45.8494 45.1609 45.7942C42.2501 45.1233 39.1725 45.1233 36.261 45.7942C36.0207 45.8494 35.8719 46.0834 35.9285 46.3167C35.9772 46.5166 36.1608 46.6511 36.3633 46.6511Z" fill="#151515"/>
<path d="M36.3629 45.8244C36.397 45.8244 36.4325 45.8207 36.4667 45.8127C39.2431 45.1746 42.1778 45.1746 44.9535 45.8127C45.1945 45.868 45.4362 45.7233 45.4928 45.49C45.5494 45.2567 45.4014 45.0227 45.1604 44.9674C42.2496 44.2973 39.1712 44.2973 36.2605 44.9674C36.0195 45.0227 35.8714 45.2567 35.9281 45.49C35.9767 45.6899 36.1603 45.8244 36.3629 45.8244Z" fill="#151515"/>
<path d="M32.6604 56.5814C32.9493 48.4382 34.2014 45.6338 40.5484 45.6309H40.5578C46.9048 45.6338 48.157 48.4382 48.4458 56.5814C48.538 59.1658 50.209 61.7101 50.209 61.7101C49.8903 61.6157 47.9341 62.3524 47.7229 61.9906C46.6021 60.0718 46.0222 57.6189 46.1681 56.0903C46.8185 49.2527 45.2687 48.375 44.9203 48.1382C43.8794 47.4312 42.1526 47.8185 40.5535 47.8185C38.9544 47.8185 37.2276 47.4305 36.1867 48.1382C35.8382 48.375 34.2878 49.2527 34.9389 56.0903C35.0848 57.6182 34.5048 60.0718 33.3841 61.9906C33.1729 62.3524 31.2159 61.6157 30.898 61.7101C30.898 61.7101 32.5689 59.1658 32.6611 56.5814H32.6604Z" fill="#EFEFEF"/>
</svg>