<svg width="129" height="43" viewBox="0 0 129 43" fill="none" xmlns="http://www.w3.org/2000/svg">
<g clip-path="url(#clip0_311_2584)">
<path d="M118.159 0.000139471H10.2292C9.8358 0.000139471 9.44711 0.000139471 9.05473 0.00228518C8.72628 0.0044309 8.40044 0.0106642 8.06883 0.0159105C7.34842 0.024388 6.62971 0.0877664 5.91893 0.205495C5.20916 0.325786 4.52162 0.55257 3.87956 0.878176C3.23829 1.20654 2.65235 1.63321 2.14298 2.14271C1.63094 2.65078 1.20412 3.23804 0.878923 3.88191C0.552828 4.52449 0.326713 5.21308 0.208388 5.9239C0.0889368 6.63381 0.0246592 7.35191 0.0161317 8.07176C0.0061756 8.40069 0.0051242 8.73072 -0.00012207 9.05971V33.858C0.0051242 34.1911 0.0061756 34.5138 0.0161317 34.8471C0.0246618 35.5669 0.0889394 36.2849 0.208388 36.9948C0.326387 37.706 0.552515 38.395 0.878923 39.0379C1.20397 39.6796 1.63086 40.2645 2.14298 40.7698C2.65042 41.2815 3.23674 41.7085 3.87956 42.0343C4.52161 42.3608 5.20908 42.589 5.91893 42.7111C6.62983 42.8279 7.34847 42.8913 8.06883 42.9008C8.40044 42.9081 8.72628 42.9123 9.05473 42.9123C9.4471 42.9144 9.83583 42.9144 10.2292 42.9144H118.159C118.544 42.9144 118.936 42.9144 119.322 42.9123C119.649 42.9123 119.984 42.9081 120.311 42.9008C121.03 42.8918 121.747 42.8284 122.456 42.7111C123.169 42.5881 123.859 42.36 124.504 42.0343C125.146 41.7083 125.732 41.2814 126.239 40.7698C126.749 40.2625 127.177 39.6781 127.506 39.0379C127.83 38.3946 128.054 37.7056 128.171 36.9948C128.29 36.2848 128.357 35.5669 128.37 34.8471C128.374 34.5138 128.374 34.1911 128.374 33.858C128.382 33.4682 128.382 33.0806 128.382 32.6845V10.231C128.382 9.83815 128.382 9.4484 128.374 9.05971C128.374 8.73072 128.374 8.40069 128.37 8.07171C128.357 7.35181 128.29 6.63387 128.171 5.92385C128.054 5.21345 127.83 4.52492 127.506 3.88186C126.844 2.5913 125.794 1.54079 124.504 0.87808C123.858 0.553269 123.169 0.326546 122.456 0.205398C121.747 0.0871511 121.03 0.0237506 120.311 0.0157603C119.984 0.0105247 119.649 0.00423778 119.322 0.00214571C118.936 0 118.544 0 118.159 0V0.000139471Z" fill="#4A4C4F"/>
<path d="M9.0589 41.9757C8.73202 41.9757 8.41304 41.9715 8.08873 41.9642C7.41688 41.9555 6.74661 41.897 6.08341 41.7893C5.465 41.6828 4.86593 41.4846 4.30596 41.2014C3.75113 40.9206 3.24507 40.5523 2.80718 40.1108C2.36296 39.6744 1.99312 39.1683 1.71232 38.6125C1.42843 38.0531 1.23197 37.4535 1.12976 36.8346C1.01939 36.1695 0.959676 35.4971 0.951131 34.823C0.94433 34.5967 0.935425 33.8434 0.935425 33.8434V9.05978C0.935425 9.05978 0.944909 8.318 0.951185 8.10007C0.959367 7.42704 1.01873 6.75562 1.12878 6.0916C1.23117 5.47098 1.42779 4.86964 1.71183 4.30841C1.99159 3.75301 2.35938 3.24653 2.80093 2.80861C3.24198 2.36653 3.74966 1.99638 4.30544 1.71165C4.86412 1.42936 5.46206 1.23264 6.07921 1.12808C6.74459 1.01925 7.41719 0.960418 8.09136 0.952064L9.05942 0.938965H119.315L120.295 0.95259C120.963 0.960528 121.629 1.01884 122.289 1.12703C122.912 1.2329 123.516 1.43099 124.081 1.71479C125.195 2.2886 126.101 3.19643 126.672 4.31103C126.952 4.86838 127.145 5.46482 127.246 6.08008C127.358 6.74955 127.42 7.42625 127.433 8.10479C127.436 8.40862 127.436 8.73498 127.436 9.05978C127.445 9.4621 127.445 9.84504 127.445 10.2311V32.6846C127.445 33.0743 127.445 33.4547 127.436 33.8381C127.436 34.187 127.436 34.5066 127.432 34.8355C127.419 35.502 127.358 36.1666 127.249 36.8241C127.148 37.4475 126.953 38.0518 126.669 38.6157C126.386 39.1655 126.019 39.6672 125.58 40.1024C125.141 40.5463 124.634 40.9168 124.078 41.1994C123.515 41.4848 122.911 41.6836 122.289 41.7893C121.626 41.8976 120.955 41.9561 120.283 41.9642C119.969 41.9715 119.64 41.9757 119.321 41.9757L118.158 41.9779L9.0589 41.9757Z" fill="white"/>
<path d="M45.3842 29.1168H40.3059L39.0864 32.7178H36.9354L41.7455 19.395H43.9802L48.7903 32.7178H46.6027L45.3842 29.1168ZM40.8319 27.4551H44.8572L42.8728 21.611H42.8173L40.8319 27.4551Z" fill="#4A4C4F"/>
<path d="M59.1769 27.8615C59.1769 30.88 57.5613 32.8193 55.1233 32.8193C54.5057 32.8516 53.8915 32.7093 53.351 32.4088C52.8105 32.1082 52.3656 31.6615 52.0671 31.1199H52.021V35.931H50.0272V23.0043H51.9571V24.6199H51.9938C52.3059 24.0808 52.7584 23.6364 53.303 23.3341C53.8476 23.0317 54.464 22.8826 55.0866 22.9027C57.5519 22.9027 59.1769 24.8514 59.1769 27.8615ZM57.1276 27.8615C57.1276 25.895 56.1113 24.6021 54.5607 24.6021C53.0373 24.6021 52.0127 25.9222 52.0127 27.8615C52.0127 29.8186 53.0373 31.1293 54.5607 31.1293C56.1113 31.1293 57.1275 29.8459 57.1275 27.8615H57.1276Z" fill="#4A4C4F"/>
<path d="M69.8708 27.8615C69.8708 30.88 68.2547 32.8193 65.8167 32.8193C65.1991 32.8516 64.5849 32.7093 64.0444 32.4088C63.5039 32.1082 63.0589 31.6615 62.7605 31.1199H62.7144V35.931H60.7206V23.0043H62.6505V24.6199H62.6871C62.9993 24.0808 63.4517 23.6364 63.9964 23.3341C64.541 23.0317 65.1574 22.8826 65.78 22.9027C68.2453 22.9027 69.8708 24.8514 69.8708 27.8615ZM67.821 27.8615C67.821 25.895 66.8047 24.6021 65.2541 24.6021C63.7307 24.6021 62.706 25.9222 62.706 27.8615C62.706 29.8186 63.7307 31.1293 65.2541 31.1293C66.8047 31.1293 67.821 29.8459 67.821 27.8615Z" fill="#4A4C4F"/>
<path d="M76.9334 29.0057C77.0812 30.3268 78.3646 31.1943 80.1185 31.1943C81.799 31.1943 83.0081 30.3268 83.0081 29.1355C83.0081 28.1015 82.2789 27.4823 80.5523 27.0579L78.8256 26.642C76.3792 26.0511 75.2435 24.907 75.2435 23.0504C75.2435 20.7518 77.2467 19.1729 80.0902 19.1729C82.9065 19.1729 84.8363 20.7518 84.9013 23.0504H82.8886C82.7681 21.7209 81.6691 20.9183 80.063 20.9183C78.4568 20.9183 77.3578 21.7303 77.3578 22.9121C77.3578 23.854 78.0597 24.4083 79.7769 24.8326L81.2448 25.193C83.9782 25.8394 85.1129 26.9374 85.1129 28.8862C85.1129 31.3787 83.1285 32.9397 79.9707 32.9397C77.0162 32.9397 75.0213 31.4153 74.8925 29.0056L76.9334 29.0057Z" fill="#4A4C4F"/>
<path d="M89.4193 20.7056V23.0042H91.2664V24.5831H89.4193V29.938C89.4193 30.7699 89.7892 31.1575 90.6011 31.1575C90.8204 31.1537 91.0393 31.1383 91.257 31.1114V32.6809C90.8919 32.7491 90.5209 32.78 90.1496 32.7731C88.183 32.7731 87.4161 32.0344 87.4161 30.1507V24.5831H86.0038V23.0042H87.4161V20.7056H89.4193Z" fill="#4A4C4F"/>
<path d="M92.3358 27.8614C92.3358 24.8052 94.1358 22.8848 96.9426 22.8848C99.7588 22.8848 101.55 24.8052 101.55 27.8614C101.55 30.926 99.7683 32.838 96.9426 32.838C94.118 32.838 92.3358 30.9259 92.3358 27.8614ZM99.5189 27.8614C99.5189 25.7649 98.5582 24.5276 96.9426 24.5276C95.327 24.5276 94.3663 25.7744 94.3663 27.8614C94.3663 29.9662 95.327 31.1942 96.9426 31.1942C98.5582 31.1942 99.5189 29.9662 99.5189 27.8614H99.5189Z" fill="#4A4C4F"/>
<path d="M103.193 23.0042H105.095V24.6575H105.141C105.27 24.1411 105.572 23.6848 105.998 23.3652C106.423 23.0456 106.946 22.8823 107.477 22.9026C107.707 22.9018 107.936 22.9267 108.16 22.977V24.8419C107.87 24.7532 107.568 24.7126 107.265 24.7214C106.975 24.7097 106.686 24.7607 106.418 24.8711C106.15 24.9815 105.909 25.1486 105.712 25.3609C105.514 25.5732 105.365 25.8257 105.275 26.1011C105.184 26.3764 105.154 26.6681 105.187 26.9562V32.7175H103.193L103.193 23.0042Z" fill="#4A4C4F"/>
<path d="M117.356 29.8651C117.087 31.6284 115.37 32.8385 113.173 32.8385C110.347 32.8385 108.594 30.9453 108.594 27.908C108.594 24.8612 110.357 22.8853 113.089 22.8853C115.777 22.8853 117.467 24.7313 117.467 27.6764V28.3595H110.606V28.48C110.575 28.8375 110.619 29.1976 110.738 29.5365C110.856 29.8753 111.045 30.1852 111.292 30.4454C111.539 30.7056 111.839 30.9103 112.171 31.0458C112.503 31.1813 112.861 31.2445 113.219 31.2313C113.69 31.2755 114.163 31.1663 114.567 30.9202C114.972 30.674 115.285 30.304 115.462 29.8651L117.356 29.8651ZM110.616 26.9661H115.472C115.49 26.6447 115.441 26.323 115.329 26.0213C115.216 25.7196 115.043 25.4444 114.819 25.2129C114.596 24.9814 114.326 24.7987 114.029 24.6761C113.731 24.5536 113.411 24.4939 113.089 24.5008C112.765 24.4989 112.443 24.5613 112.142 24.6844C111.842 24.8075 111.569 24.9889 111.339 25.2181C111.109 25.4473 110.927 25.7197 110.802 26.0198C110.678 26.3198 110.615 26.6414 110.616 26.9661V26.9661Z" fill="#4A4C4F"/>
<path d="M40.5817 9.36664C40.9997 9.33664 41.4192 9.39979 41.8098 9.55153C42.2004 9.70327 42.5525 9.93981 42.8407 10.2441C43.1288 10.5484 43.3459 10.9128 43.4761 11.3112C43.6064 11.7095 43.6466 12.1317 43.5939 12.5475C43.5939 14.5926 42.4886 15.7682 40.5817 15.7682H38.2694V9.36664H40.5817ZM39.2637 14.8629H40.4706C40.7693 14.8807 41.0682 14.8318 41.3456 14.7195C41.623 14.6073 41.8719 14.4346 42.0741 14.2141C42.2763 13.9935 42.4268 13.7307 42.5146 13.4446C42.6025 13.1586 42.6254 12.8566 42.5818 12.5605C42.6222 12.2657 42.597 11.9655 42.5078 11.6816C42.4186 11.3976 42.2678 11.1369 42.066 10.9181C41.8642 10.6993 41.6166 10.5279 41.3407 10.4161C41.0649 10.3042 40.7678 10.2548 40.4706 10.2713H39.2637V14.8629Z" fill="#4A4C4F"/>
<path d="M44.7177 13.3503C44.6873 13.0329 44.7236 12.7126 44.8243 12.4099C44.925 12.1073 45.0878 11.8291 45.3023 11.5931C45.5168 11.3571 45.7783 11.1685 46.0699 11.0394C46.3616 10.9104 46.677 10.8438 46.9959 10.8438C47.3149 10.8438 47.6303 10.9104 47.9219 11.0394C48.2136 11.1685 48.4751 11.3571 48.6896 11.5931C48.9041 11.8291 49.0669 12.1073 49.1676 12.4099C49.2682 12.7126 49.3046 13.0329 49.2742 13.3503C49.3051 13.6682 49.2692 13.9889 49.1688 14.292C49.0684 14.5951 48.9057 14.8739 48.6911 15.1104C48.4766 15.3468 48.2149 15.5358 47.923 15.6651C47.631 15.7944 47.3152 15.8612 46.9959 15.8612C46.6766 15.8612 46.3609 15.7944 46.0689 15.6651C45.777 15.5358 45.5153 15.3468 45.3007 15.1104C45.0862 14.8739 44.9234 14.5951 44.823 14.292C44.7226 13.9889 44.6867 13.6682 44.7177 13.3503ZM48.2935 13.3503C48.2935 12.3032 47.8231 11.6908 46.9975 11.6908C46.1688 11.6908 45.7026 12.3032 45.7026 13.3504C45.7026 14.4059 46.1688 15.0136 46.9975 15.0136C47.8231 15.0136 48.2935 14.4017 48.2935 13.3503H48.2935Z" fill="#4A4C4F"/>
<path d="M55.3293 15.768H54.3402L53.3418 12.21H53.2664L52.2721 15.768H51.2925L49.9608 10.937H50.9279L51.7933 14.6233H51.8645L52.8577 10.937H53.7724L54.7656 14.6233H54.8411L55.7023 10.937H56.6557L55.3293 15.768Z" fill="#4A4C4F"/>
<path d="M57.7754 10.9369H58.6932V11.7043H58.7644C58.8853 11.4287 59.0891 11.1976 59.3476 11.0433C59.606 10.8891 59.9061 10.8192 60.2061 10.8436C60.4411 10.8259 60.6772 10.8614 60.8967 10.9473C61.1162 11.0333 61.3135 11.1675 61.4741 11.34C61.6347 11.5126 61.7544 11.7191 61.8244 11.9442C61.8943 12.1693 61.9127 12.4073 61.8782 12.6404V15.7678H60.9248V12.8799C60.9248 12.1035 60.5874 11.7174 59.8823 11.7174C59.7227 11.71 59.5634 11.7372 59.4153 11.797C59.2672 11.8569 59.1338 11.9482 59.0242 12.0644C58.9147 12.1807 58.8315 12.3193 58.7805 12.4707C58.7295 12.6221 58.7119 12.7828 58.7288 12.9417V15.7679H57.7754L57.7754 10.9369Z" fill="#4A4C4F"/>
<path d="M63.3983 9.05127H64.3517V15.7681H63.3983V9.05127Z" fill="#4A4C4F"/>
<path d="M65.6786 13.3504C65.6482 13.0329 65.6846 12.7126 65.7853 12.41C65.886 12.1073 66.0488 11.8291 66.2634 11.5931C66.4779 11.3571 66.7394 11.1685 67.0311 11.0394C67.3227 10.9104 67.6382 10.8438 67.9571 10.8438C68.2761 10.8438 68.5915 10.9104 68.8832 11.0394C69.1748 11.1685 69.4363 11.3571 69.6509 11.5931C69.8654 11.8291 70.0282 12.1073 70.1289 12.41C70.2296 12.7126 70.266 13.0329 70.2356 13.3504C70.2665 13.6683 70.2306 13.989 70.1302 14.2921C70.0297 14.5952 69.867 14.874 69.6524 15.1104C69.4378 15.3469 69.1761 15.5359 68.8842 15.6652C68.5922 15.7945 68.2764 15.8613 67.9571 15.8613C67.6378 15.8613 67.322 15.7945 67.03 15.6652C66.7381 15.5359 66.4764 15.3469 66.2618 15.1104C66.0472 14.874 65.8845 14.5952 65.7841 14.2921C65.6836 13.989 65.6477 13.6683 65.6786 13.3504ZM69.2544 13.3504C69.2544 12.3033 68.784 11.6909 67.9584 11.6909C67.1297 11.6909 66.6635 12.3033 66.6635 13.3505C66.6635 14.406 67.1297 15.0137 67.9584 15.0137C68.784 15.0137 69.2544 14.4018 69.2544 13.3504H69.2544Z" fill="#4A4C4F"/>
<path d="M71.2382 14.4018C71.2382 13.5322 71.8856 13.0308 73.035 12.9596L74.3436 12.8842V12.4672C74.3436 11.9569 74.0062 11.6688 73.3545 11.6688C72.8223 11.6688 72.4535 11.8642 72.3477 12.2058H71.4247C71.5221 11.376 72.3026 10.8438 73.3985 10.8438C74.6097 10.8438 75.2928 11.4467 75.2928 12.4672V15.768H74.375V15.0891H74.2996C74.1465 15.3326 73.9315 15.5311 73.6765 15.6644C73.4216 15.7977 73.1358 15.8609 72.8485 15.8476C72.6457 15.8687 72.4407 15.847 72.2468 15.7841C72.0528 15.7211 71.8743 15.6182 71.7225 15.482C71.5708 15.3457 71.4493 15.1792 71.3659 14.9932C71.2825 14.8071 71.239 14.6057 71.2382 14.4018ZM74.3436 13.989V13.5851L73.1639 13.6605C72.4986 13.705 72.1968 13.9313 72.1968 14.3572C72.1968 14.792 72.574 15.0451 73.0926 15.0451C73.2446 15.0604 73.3981 15.0451 73.544 14.9999C73.6899 14.9548 73.8253 14.8807 73.942 14.7822C74.0587 14.6837 74.1544 14.5627 74.2234 14.4264C74.2924 14.2901 74.3333 14.1414 74.3436 13.989Z" fill="#4A4C4F"/>
<path d="M76.5448 13.3506C76.5448 11.8241 77.3295 10.857 78.5501 10.857C78.852 10.8431 79.1517 10.9154 79.414 11.0655C79.6764 11.2156 79.8906 11.4373 80.0316 11.7046H80.1028V9.05127H81.0562V15.7681H80.1426V15.0049H80.0672C79.9153 15.2704 79.6936 15.4893 79.4262 15.6379C79.1588 15.7864 78.8558 15.859 78.5501 15.8478C77.3212 15.8478 76.5448 14.8808 76.5448 13.3506ZM77.5297 13.3506C77.5297 14.3752 78.0127 14.9918 78.8205 14.9918C79.624 14.9918 80.1207 14.3663 80.1207 13.3548C80.1207 12.3479 79.6188 11.7135 78.8205 11.7135C78.0179 11.7135 77.5296 12.3343 77.5296 13.3506H77.5297Z" fill="#4A4C4F"/>
<path d="M85.0028 13.3503C84.9725 13.0329 85.0088 12.7126 85.1095 12.4099C85.2101 12.1073 85.373 11.8291 85.5875 11.5931C85.802 11.3571 86.0634 11.1685 86.3551 11.0394C86.6467 10.9104 86.9622 10.8438 87.2811 10.8438C87.6 10.8438 87.9154 10.9104 88.2071 11.0394C88.4987 11.1685 88.7602 11.3571 88.9747 11.5931C89.1892 11.8291 89.352 12.1073 89.4527 12.4099C89.5534 12.7126 89.5897 13.0329 89.5593 13.3503C89.5903 13.6682 89.5544 13.9889 89.454 14.292C89.3536 14.5951 89.1909 14.8739 88.9763 15.1104C88.7617 15.3468 88.5001 15.5358 88.2081 15.6651C87.9162 15.7944 87.6004 15.8612 87.2811 15.8612C86.9618 15.8612 86.646 15.7944 86.3541 15.6651C86.0621 15.5358 85.8004 15.3468 85.5859 15.1104C85.3713 14.8739 85.2086 14.5951 85.1082 14.292C85.0078 13.9889 84.9719 13.6682 85.0028 13.3503ZM88.5787 13.3503C88.5787 12.3032 88.1082 11.6908 87.2827 11.6908C86.4539 11.6908 85.9877 12.3032 85.9877 13.3504C85.9877 14.4059 86.454 15.0136 87.2827 15.0136C88.1083 15.0136 88.5787 14.4017 88.5787 13.3503Z" fill="#4A4C4F"/>
<path d="M90.8378 10.9369H91.7556V11.7043H91.8268C91.9477 11.4287 92.1515 11.1976 92.4099 11.0433C92.6684 10.8891 92.9685 10.8192 93.2685 10.8436C93.5035 10.8259 93.7396 10.8614 93.9591 10.9473C94.1786 11.0333 94.3759 11.1675 94.5365 11.34C94.6971 11.5126 94.8168 11.7191 94.8868 11.9442C94.9567 12.1693 94.9751 12.4073 94.9406 12.6404V15.7678H93.9872V12.8799C93.9872 12.1035 93.6498 11.7174 92.9447 11.7174C92.7851 11.71 92.6258 11.7372 92.4777 11.797C92.3296 11.8569 92.1962 11.9482 92.0866 12.0644C91.977 12.1807 91.8939 12.3193 91.8429 12.4707C91.7919 12.6221 91.7743 12.7828 91.7912 12.9417V15.7679H90.8378V10.9369Z" fill="#4A4C4F"/>
<path d="M100.327 9.73438V10.9591H101.373V11.7622H100.327V14.2463C100.327 14.7524 100.535 14.974 101.01 14.974C101.131 14.9736 101.253 14.9662 101.373 14.952V15.7461C101.202 15.7768 101.029 15.7931 100.855 15.7949C99.7945 15.7949 99.3723 15.4219 99.3723 14.4905V11.7622H98.6053V10.9591H99.3723V9.73438H100.327Z" fill="#4A4C4F"/>
<path d="M102.678 9.05127H103.623V11.7135H103.698C103.825 11.4353 104.034 11.2029 104.298 11.0481C104.561 10.8932 104.866 10.8234 105.171 10.8481C105.405 10.8354 105.639 10.8744 105.856 10.9624C106.073 11.0505 106.268 11.1853 106.427 11.3573C106.585 11.5293 106.704 11.7343 106.775 11.9576C106.846 12.1809 106.866 12.417 106.835 12.6491V15.7682H105.881V12.8843C105.881 12.1127 105.521 11.7219 104.847 11.7219C104.684 11.7084 104.519 11.731 104.365 11.7879C104.21 11.8448 104.07 11.9347 103.954 12.0514C103.839 12.1681 103.75 12.3086 103.694 12.4633C103.638 12.6179 103.617 12.7829 103.631 12.9467V15.7681H102.678L102.678 9.05127Z" fill="#4A4C4F"/>
<path d="M112.394 14.4637C112.265 14.9052 111.984 15.2871 111.601 15.5426C111.219 15.7981 110.758 15.9109 110.301 15.8613C109.983 15.8697 109.666 15.8088 109.374 15.6827C109.082 15.5566 108.82 15.3684 108.608 15.1311C108.396 14.8939 108.237 14.6133 108.144 14.3088C108.051 14.0043 108.026 13.6832 108.069 13.3678C108.027 13.0514 108.053 12.7296 108.146 12.4242C108.239 12.1188 108.396 11.8369 108.607 11.5976C108.818 11.3582 109.079 11.1671 109.37 11.037C109.662 10.907 109.978 10.8411 110.297 10.8438C111.641 10.8438 112.452 11.7622 112.452 13.2792V13.6119H109.041V13.6653C109.026 13.8426 109.048 14.0211 109.106 14.1892C109.164 14.3574 109.257 14.5116 109.378 14.6419C109.499 14.7722 109.646 14.8757 109.809 14.9459C109.973 15.0161 110.149 15.0513 110.327 15.0493C110.555 15.0767 110.786 15.0356 110.991 14.9313C111.196 14.827 111.365 14.6642 111.476 14.4636L112.394 14.4637ZM109.041 12.9068H111.481C111.493 12.7446 111.471 12.5818 111.416 12.4287C111.361 12.2755 111.275 12.1356 111.163 12.0177C111.051 11.8998 110.916 11.8067 110.766 11.7443C110.616 11.6819 110.454 11.6516 110.291 11.6553C110.127 11.6532 109.963 11.6842 109.81 11.7463C109.657 11.8085 109.519 11.9006 109.402 12.0173C109.286 12.1339 109.193 12.2727 109.131 12.4255C109.069 12.5782 109.038 12.7419 109.041 12.9068H109.041Z" fill="#4A4C4F"/>
<path d="M22.2622 21.1229C22.2713 20.4194 22.4582 19.7295 22.8055 19.1176C23.1528 18.5056 23.6492 17.9915 24.2487 17.623C23.8679 17.0791 23.3655 16.6316 22.7815 16.3159C22.1975 16.0001 21.5479 15.8249 20.8843 15.8042C19.4688 15.6556 18.0966 16.6512 17.3752 16.6512C16.64 16.6512 15.5294 15.8189 14.3335 15.8435C13.5599 15.8685 12.8061 16.0935 12.1453 16.4964C11.4845 16.8994 10.9394 17.4667 10.5631 18.143C8.93286 20.9655 10.1489 25.1137 11.7105 27.3952C12.4918 28.5124 13.4049 29.7603 14.5998 29.7161C15.769 29.6676 16.2057 28.9705 17.617 28.9705C19.0152 28.9705 19.4249 29.7161 20.644 29.6879C21.8986 29.6676 22.6891 28.5658 23.443 27.438C24.0044 26.642 24.4364 25.7622 24.723 24.8312C23.9941 24.5229 23.372 24.0069 22.9344 23.3474C22.4969 22.688 22.2631 21.9143 22.2622 21.1229Z" fill="#4A4C4F"/>
<path d="M19.9597 14.3037C20.6437 13.4825 20.9808 12.427 20.8992 11.3613C19.8541 11.4711 18.8887 11.9706 18.1954 12.7603C17.8564 13.1461 17.5967 13.5949 17.4313 14.0811C17.2659 14.5673 17.1979 15.0813 17.2313 15.5937C17.754 15.5991 18.2712 15.4858 18.7438 15.2624C19.2164 15.0389 19.6321 14.7111 19.9597 14.3037Z" fill="#4A4C4F"/>
</g>
<defs>
<clipPath id="clip0_311_2584">
<rect width="128.382" height="42.9143" fill="white"/>
</clipPath>
</defs>
</svg>
