<svg width="143" height="43" viewBox="0 0 143 43" fill="none" xmlns="http://www.w3.org/2000/svg">
<g clip-path="url(#clip0_311_2613)">
<rect x="0.0588379" width="142.941" height="42.353" rx="6" fill="white"/>
<path d="M137.706 42.353H5.3519C2.44013 42.353 0.0588379 39.9706 0.0588379 37.0588V5.29412C0.0588379 2.38235 2.44013 0 5.3519 0H137.706C140.618 0 143 2.38235 143 5.29412V37.0588C143 39.9706 140.618 42.353 137.706 42.353Z" fill="white"/>
<path d="M137.706 0H5.3519C2.44013 0 0.0588379 2.38235 0.0588379 5.29412V37.0588C0.0588379 39.9706 2.44013 42.353 5.3519 42.353H137.706C140.618 42.353 143 39.9706 143 37.0588V5.29412C143 2.38235 140.618 0 137.706 0ZM137.706 0.847059C140.158 0.847059 142.153 2.84188 142.153 5.29412V37.0588C142.153 39.5111 140.158 41.507 137.706 41.507H5.3519C2.89966 41.507 0.905897 39.5111 0.905897 37.0588V5.29412C0.905897 2.84188 2.89966 0.847059 5.3519 0.847059H137.706Z" fill="#4A4C4F"/>
<path d="M11.0491 8.048C10.741 8.37411 10.5588 8.88023 10.5588 9.53564V32.9526C10.5588 33.6091 10.741 34.1141 11.0491 34.4402L11.1274 34.5165L24.2452 21.3987V21.2441V21.0895L11.1274 7.9707L11.0491 8.048Z" fill="url(#paint0_linear_311_2613)"/>
<path d="M28.6181 25.7736L24.2462 21.3996V21.2451V21.0905L28.6192 16.7175L28.7176 16.7736L33.8985 19.7172C35.3787 20.5579 35.3787 21.9333 33.8985 22.7751L28.7176 25.7186L28.6181 25.7736Z" fill="url(#paint1_linear_311_2613)"/>
<path d="M28.7177 25.7166L24.2463 21.2441L11.0491 34.4403C11.5372 34.957 12.3419 35.0205 13.2493 34.5049L28.7177 25.7166Z" fill="url(#paint2_linear_311_2613)"/>
<path d="M28.7177 16.7716L13.2504 7.9834C12.343 7.46775 11.5383 7.53234 11.0502 8.04798L24.2463 21.2441L28.7177 16.7716Z" fill="url(#paint3_linear_311_2613)"/>
<path opacity="0.2" d="M28.6192 25.6182L13.2504 34.3503C12.3906 34.8384 11.6219 34.8066 11.1285 34.3619L11.0491 34.4413L11.1274 34.5176C11.6208 34.9623 12.3895 34.9951 13.2493 34.5059L28.7166 25.7177L28.6192 25.6182Z" fill="black"/>
<path opacity="0.12" d="M11.0491 34.2857C10.741 33.9596 10.5588 33.4535 10.5588 32.7981V32.9527C10.5588 33.6081 10.741 34.1142 11.0491 34.4403L11.1285 34.3609L11.0491 34.2857Z" fill="black"/>
<path opacity="0.12" d="M33.8984 22.6184L28.6191 25.6181L28.7176 25.7165L33.8984 22.773C34.6386 22.3526 35.0081 21.7989 35.0081 21.2451C34.9456 21.7459 34.5687 22.2372 33.8984 22.6184Z" fill="black"/>
<path opacity="0.25" d="M13.2493 8.13802L33.8974 19.8698C34.5687 20.251 34.9446 20.7423 35.0071 21.2441C35.0071 20.6904 34.6376 20.1355 33.8974 19.7152L13.2493 7.98343C11.7691 7.14272 10.5588 7.84049 10.5588 9.53566V9.69131C10.5588 7.99613 11.7701 7.29731 13.2493 8.13802Z" fill="white"/>
<path d="M72.1587 22.9818C69.6684 22.9818 67.6386 24.8749 67.6386 27.4849C67.6386 30.078 69.6684 31.9881 72.1587 31.9881C74.6491 31.9881 76.6788 30.078 76.6788 27.4849C76.6788 24.8749 74.6491 22.9818 72.1587 22.9818ZM72.1587 30.2146C70.7939 30.2146 69.6165 29.0891 69.6165 27.4849C69.6165 25.8639 70.7939 24.7553 72.1587 24.7553C73.5236 24.7553 74.6999 25.8639 74.6999 27.4849C74.6999 29.088 73.5236 30.2146 72.1587 30.2146ZM62.2968 22.9818C59.8065 22.9818 57.7767 24.8749 57.7767 27.4849C57.7767 30.078 59.8065 31.9881 62.2968 31.9881C64.7872 31.9881 66.817 30.078 66.817 27.4849C66.818 24.8749 64.7872 22.9818 62.2968 22.9818ZM62.2968 30.2146C60.932 30.2146 59.7557 29.0891 59.7557 27.4849C59.7557 25.8639 60.9331 24.7553 62.2968 24.7553C63.6617 24.7553 64.838 25.8639 64.838 27.4849C64.8391 29.088 63.6617 30.2146 62.2968 30.2146ZM50.5672 24.3635V26.2736H55.1392C55.0026 27.3484 54.6447 28.1329 54.0984 28.6793C53.4334 29.3442 52.3926 30.078 50.5672 30.078C47.7528 30.078 45.5526 27.8089 45.5526 24.9946C45.5526 22.1802 47.7528 19.9112 50.5672 19.9112C52.0855 19.9112 53.1941 20.5084 54.0126 21.276L55.3605 19.9281C54.218 18.8365 52.6997 18 50.5672 18C46.712 18 43.4709 21.1384 43.4709 24.9935C43.4709 28.8487 46.712 31.9871 50.5672 31.9871C52.6478 31.9871 54.218 31.3052 55.4462 30.0251C56.7084 28.7629 57.1012 26.9884 57.1012 25.5558C57.1012 25.1121 57.0673 24.7024 56.9985 24.3614H50.5672V24.3635ZM98.5404 25.8469C98.1656 24.84 97.022 22.9807 94.6852 22.9807C92.3653 22.9807 90.4383 24.8061 90.4383 27.4839C90.4383 30.0081 92.3484 31.9871 94.9076 31.9871C96.9712 31.9871 98.1656 30.7249 98.66 29.9912L97.1247 28.9673C96.6133 29.718 95.9134 30.2125 94.9076 30.2125C93.9006 30.2125 93.1848 29.7519 92.7243 28.8476L98.7458 26.3573L98.5404 25.8469ZM92.3992 27.3484C92.3484 25.6087 93.7471 24.7214 94.753 24.7214C95.5376 24.7214 96.2025 25.1132 96.4249 25.6765L92.3992 27.3484ZM87.5032 31.7149H89.4821V18.4786H87.5032V31.7149ZM84.2621 23.9876H84.1944C83.7507 23.4593 82.8984 22.9807 81.8237 22.9807C79.5715 22.9807 77.5079 24.9596 77.5079 27.5008C77.5079 30.0251 79.5715 31.9871 81.8237 31.9871C82.8984 31.9871 83.7507 31.5095 84.1944 30.9632H84.2621V31.6112C84.2621 33.3339 83.341 34.2551 81.8565 34.2551C80.6452 34.2551 79.8945 33.3847 79.5874 32.652L77.8647 33.3688C78.3592 34.5632 79.6732 36.0296 81.8565 36.0296C84.1764 36.0296 86.1384 34.6648 86.1384 31.3391V23.2539H84.2621V23.9876ZM81.9941 30.2146C80.6293 30.2146 79.4868 29.0721 79.4868 27.5019C79.4868 25.9158 80.6293 24.7553 81.9941 24.7553C83.342 24.7553 84.3987 25.9147 84.3987 27.5019C84.3987 29.0711 83.342 30.2146 81.9941 30.2146ZM107.809 18.4786H103.075V31.7149H105.05V26.7004H107.808C109.998 26.7004 112.151 25.1153 112.151 22.59C112.151 20.0647 109.999 18.4786 107.809 18.4786ZM107.86 24.858H105.05V20.3209H107.86C109.337 20.3209 110.176 21.5439 110.176 22.59C110.176 23.6149 109.337 24.858 107.86 24.858ZM120.071 22.9574C118.64 22.9574 117.159 23.5874 116.546 24.984L118.3 25.7167C118.675 24.984 119.373 24.7458 120.105 24.7458C121.127 24.7458 122.166 25.3588 122.183 26.4484V26.5849C121.825 26.3806 121.058 26.0735 120.122 26.0735C118.232 26.0735 116.307 27.1122 116.307 29.0541C116.307 30.8255 117.858 31.9659 119.594 31.9659C120.923 31.9659 121.655 31.3698 122.114 30.672H122.182V31.6938H124.089V26.6188C124.089 24.2682 122.335 22.9574 120.071 22.9574ZM119.831 30.2114C119.184 30.2114 118.281 29.8874 118.281 29.088C118.281 28.0662 119.406 27.6745 120.375 27.6745C121.244 27.6745 121.652 27.8619 122.181 28.1171C122.028 29.3432 120.973 30.2114 119.831 30.2114ZM131.037 23.2465L128.772 28.9853H128.704L126.355 23.2465H124.226L127.751 31.2671L125.742 35.7289H127.802L133.235 23.2465H131.037ZM113.241 31.7149H115.217V18.4786H113.241V31.7149Z" fill="#4A4C4F"/>
<path fill-rule="evenodd" clip-rule="evenodd" d="M77.9965 12.9429C77.3718 13.5856 76.5957 13.9053 75.6671 13.9053C74.7385 13.9053 73.9624 13.5845 73.3388 12.9429C72.714 12.3012 72.4027 11.5156 72.4027 10.587C72.4027 9.6584 72.714 8.87276 73.3388 8.23111C73.9624 7.5884 74.7385 7.26758 75.6671 7.26758C76.5904 7.26758 77.3655 7.59052 77.9923 8.23534C78.6191 8.88017 78.9325 9.6637 78.9325 10.587C78.9325 11.5166 78.6202 12.3023 77.9965 12.9429ZM73.9412 12.4113C74.4113 12.8878 74.9863 13.125 75.6671 13.125C76.3479 13.125 76.9229 12.8868 77.393 12.4113C77.8631 11.9349 78.0992 11.3271 78.0992 10.5881C78.0992 9.84899 77.8631 9.24017 77.393 8.76476C76.9239 8.28828 76.3479 8.05111 75.6671 8.05111C74.9863 8.05111 74.4113 8.28934 73.9412 8.76476C73.4722 9.24123 73.236 9.84899 73.236 10.5881C73.236 11.3271 73.4722 11.9349 73.9412 12.4113Z" fill="#4A4C4F"/>
<path d="M50.2649 10.8453C50.2649 11.7326 50.0023 12.4389 49.476 12.9662C48.8789 13.593 48.0996 13.9064 47.1424 13.9064C46.2255 13.9064 45.4451 13.5888 44.8045 12.9535C44.1629 12.3171 43.842 11.5293 43.842 10.5891C43.842 9.64781 44.1629 8.86005 44.8045 8.22475C45.4451 7.5884 46.2255 7.27075 47.1424 7.27075C47.5977 7.27075 48.0329 7.35969 48.4458 7.53652C48.8598 7.7144 49.1912 7.95052 49.439 8.24593L48.881 8.80499C48.4606 8.30205 47.8815 8.05111 47.1413 8.05111C46.4722 8.05111 45.894 8.28617 45.4059 8.75628C44.9189 9.2264 44.6753 9.83628 44.6753 10.588C44.6753 11.3398 44.9189 11.9497 45.407 12.4209C45.8951 12.891 46.4732 13.126 47.1424 13.126C47.8518 13.126 48.4437 12.8899 48.917 12.4166C49.224 12.1085 49.4019 11.6797 49.4496 11.1302H47.1424V10.3657H50.2204C50.2511 10.5319 50.2649 10.6918 50.2649 10.8453Z" fill="#4A4C4F"/>
<path d="M55.146 8.19193H52.2533V10.2058H54.8623V10.9692H52.2533V12.9831H55.146V13.7645H51.437V7.41158H55.146V8.19193Z" fill="#4A4C4F"/>
<path d="M57.7709 13.7645H58.5872V8.19193H60.3618V7.41158H55.9963V8.19193H57.7709V13.7645Z" fill="#4A4C4F"/>
<path d="M63.5213 13.7645V7.41158H64.3377V13.7645H63.5213Z" fill="#4A4C4F"/>
<path d="M67.1404 13.7645H67.9567V8.19193H69.7313V7.41158H65.3658V8.19193H67.1404V13.7645Z" fill="#4A4C4F"/>
<path d="M80.0782 7.41158V13.7645H80.8924V9.80664L80.8574 8.58264H80.8924L84.1229 13.7645H84.9752V7.41158H84.1589V11.1302L84.1938 12.3542H84.1589L81.0713 7.41158H80.0782Z" fill="#4A4C4F"/>
<path fill-rule="evenodd" clip-rule="evenodd" d="M77.9965 12.9429C77.3718 13.5856 76.5957 13.9053 75.6671 13.9053C74.7385 13.9053 73.9624 13.5845 73.3388 12.9429C72.714 12.3012 72.4027 11.5156 72.4027 10.587C72.4027 9.6584 72.714 8.87276 73.3388 8.23111C73.9624 7.5884 74.7385 7.26758 75.6671 7.26758C76.5904 7.26758 77.3655 7.59052 77.9923 8.23534C78.6191 8.88017 78.9325 9.6637 78.9325 10.587C78.9325 11.5166 78.6202 12.3023 77.9965 12.9429ZM73.9412 12.4113C74.4113 12.8878 74.9863 13.125 75.6671 13.125C76.3479 13.125 76.9229 12.8868 77.393 12.4113C77.8631 11.9349 78.0992 11.3271 78.0992 10.5881C78.0992 9.84899 77.8631 9.24017 77.393 8.76476C76.9239 8.28828 76.3479 8.05111 75.6671 8.05111C74.9863 8.05111 74.4113 8.28934 73.9412 8.76476C73.4722 9.24123 73.236 9.84899 73.236 10.5881C73.236 11.3271 73.4722 11.9349 73.9412 12.4113Z" stroke="black" stroke-width="0.16" stroke-miterlimit="10"/>
<path d="M50.2649 10.8453C50.2649 11.7326 50.0023 12.4389 49.476 12.9662C48.8789 13.593 48.0996 13.9064 47.1424 13.9064C46.2255 13.9064 45.4451 13.5888 44.8045 12.9535C44.1629 12.3171 43.842 11.5293 43.842 10.5891C43.842 9.64781 44.1629 8.86005 44.8045 8.22475C45.4451 7.5884 46.2255 7.27075 47.1424 7.27075C47.5977 7.27075 48.0329 7.35969 48.4458 7.53652C48.8598 7.7144 49.1912 7.95052 49.439 8.24593L48.881 8.80499C48.4606 8.30205 47.8815 8.05111 47.1413 8.05111C46.4722 8.05111 45.894 8.28617 45.4059 8.75628C44.9189 9.2264 44.6753 9.83628 44.6753 10.588C44.6753 11.3398 44.9189 11.9497 45.407 12.4209C45.8951 12.891 46.4732 13.126 47.1424 13.126C47.8518 13.126 48.4437 12.8899 48.917 12.4166C49.224 12.1085 49.4019 11.6797 49.4496 11.1302H47.1424V10.3657H50.2204C50.2511 10.5319 50.2649 10.6918 50.2649 10.8453Z" stroke="black" stroke-width="0.16" stroke-miterlimit="10"/>
<path d="M55.146 8.19193H52.2533V10.2058H54.8623V10.9692H52.2533V12.9831H55.146V13.7645H51.437V7.41158H55.146V8.19193Z" stroke="black" stroke-width="0.16" stroke-miterlimit="10"/>
<path d="M57.7709 13.7645H58.5872V8.19193H60.3618V7.41158H55.9963V8.19193H57.7709V13.7645Z" stroke="black" stroke-width="0.16" stroke-miterlimit="10"/>
<path d="M63.5213 13.7645V7.41158H64.3377V13.7645H63.5213Z" stroke="black" stroke-width="0.16" stroke-miterlimit="10"/>
<path d="M67.1404 13.7645H67.9567V8.19193H69.7313V7.41158H65.3658V8.19193H67.1404V13.7645Z" stroke="black" stroke-width="0.16" stroke-miterlimit="10"/>
<path d="M80.0782 7.41158V13.7645H80.8924V9.80664L80.8574 8.58264H80.8924L84.1229 13.7645H84.9752V7.41158H84.1589V11.1302L84.1938 12.3542H84.1589L81.0713 7.41158H80.0782Z" stroke="black" stroke-width="0.16" stroke-miterlimit="10"/>
</g>
<defs>
<linearGradient id="paint0_linear_311_2613" x1="23.0822" y1="9.28873" x2="5.31258" y2="27.0583" gradientUnits="userSpaceOnUse">
<stop stop-color="#00A0FF"/>
<stop offset="0.0066" stop-color="#00A1FF"/>
<stop offset="0.2601" stop-color="#00BEFF"/>
<stop offset="0.5122" stop-color="#00D2FF"/>
<stop offset="0.7604" stop-color="#00DFFF"/>
<stop offset="1" stop-color="#00E3FF"/>
</linearGradient>
<linearGradient id="paint1_linear_311_2613" x1="35.8248" y1="21.2445" x2="10.2045" y2="21.2445" gradientUnits="userSpaceOnUse">
<stop stop-color="#FFE000"/>
<stop offset="0.4087" stop-color="#FFBD00"/>
<stop offset="0.7754" stop-color="#FFA500"/>
<stop offset="1" stop-color="#FF9C00"/>
</linearGradient>
<linearGradient id="paint2_linear_311_2613" x1="26.2876" y1="23.6744" x2="2.19053" y2="47.7714" gradientUnits="userSpaceOnUse">
<stop stop-color="#FF3A44"/>
<stop offset="1" stop-color="#C31162"/>
</linearGradient>
<linearGradient id="paint3_linear_311_2613" x1="7.72673" y1="0.253241" x2="18.4871" y2="11.0135" gradientUnits="userSpaceOnUse">
<stop stop-color="#32A071"/>
<stop offset="0.0685" stop-color="#2DA771"/>
<stop offset="0.4762" stop-color="#15CF74"/>
<stop offset="0.8009" stop-color="#06E775"/>
<stop offset="1" stop-color="#00F076"/>
</linearGradient>
<clipPath id="clip0_311_2613">
<rect x="0.0588379" width="142.941" height="42.353" rx="6" fill="white"/>
</clipPath>
</defs>
</svg>
